<?xml version="1.0" encoding="UTF-8" standalone="no"?>
<svg width="19px" height="22px" viewBox="0 0 19 22" version="1.1" xmlns="http://www.w3.org/2000/svg" xmlns:xlink="http://www.w3.org/1999/xlink">
    <!-- Generator: Sketch 44.1 (41455) - http://www.bohemiancoding.com/sketch -->
    <title>alarm-clock</title>
    <desc>Created with Sketch.</desc>
    <defs></defs>
    <g id="Page-1" stroke="none" stroke-width="1" fill="none" fill-rule="evenodd">
        <g id="alarm-clock" transform="translate(-3.000000, -1.000000)" fill="#000000">
            <path d="M9.71071579,3.13052778 C7.17155789,3.75819444 5.01518947,5.44402778 3.69182105,7.74041667 C2.51618947,5.94958333 2.86803158,3.48363889 4.52518947,2.15013889 C6.23024211,0.778138889 8.66624211,1.12541667 9.96566316,2.92558333 L9.71071579,3.13052778 Z M15.2558455,2.69784995 L15,2.50658682 C16.3055157,0.826592511 18.7536352,0.502497691 20.4675411,1.78290813 C22.1325734,3.02738869 22.486166,5.32871596 21.3046854,7 C19.974733,4.85690939 17.8076362,3.28361595 15.2558455,2.69784995 Z M21.828392,13.517822 C21.828392,16.596582 20.331572,19.324602 18.026872,21.017882 L18.810812,21.989922 C19.025892,22.256682 18.985232,22.647322 18.718472,22.862402 C18.451332,23.077482 18.061832,23.036442 17.845992,22.768542 L16.974652,21.688962 C15.652632,22.410202 14.137192,22.820602 12.525232,22.820602 C10.912892,22.820602 9.396692,22.409822 8.074292,21.688202 L7.202192,22.768542 C6.986732,23.036442 6.597232,23.077482 6.330092,22.862402 C6.062952,22.647322 6.022292,22.256682 6.237372,21.989922 L7.022452,21.016742 C4.718512,19.323462 3.222452,16.595822 3.222452,13.517822 C3.222452,8.380222 7.388012,4.214662 12.525232,4.214662 C17.662452,4.214662 21.828392,8.380222 21.828392,13.517822 Z M4.979952,13.517822 C4.979952,17.684522 8.357392,21.062722 12.525232,21.062722 C16.693452,21.062722 20.070892,17.684522 20.070892,13.517822 C20.070892,9.350742 16.693452,5.972542 12.525232,5.972542 C8.357392,5.972542 4.979952,9.350742 4.979952,13.517822 Z M13,14.7108063 C13,14.7422232 12.9833363,14.7701493 12.972794,14.7996269 C12.9918382,14.8585821 12.9982996,14.9113315 12.9765348,14.9446877 L11.002398,17.9556685 C10.9309822,18.0650458 10.6534808,17.9649772 10.3814206,17.7330351 C10.1086802,17.4999294 9.94578416,17.2249345 10.0165198,17.1155571 L11.7689276,14.4427929 L11.7689276,8.41152268 C11.7689276,8.18384708 12.0447286,8 12.3851439,8 C12.7252192,8 13,8.18384708 13,8.41152268 L13,14.7108063 Z"></path>
        </g>
    </g>
</svg>