<?xml version="1.0" encoding="UTF-8" standalone="no"?>
<svg width="24px" height="24px" viewBox="0 0 24 24" version="1.1" xmlns="http://www.w3.org/2000/svg" xmlns:xlink="http://www.w3.org/1999/xlink">
    <!-- Generator: Sketch 44.1 (41455) - http://www.bohemiancoding.com/sketch -->
    <title>Atom</title>
    <desc>Created with Sketch.</desc>
    <defs></defs>
    <g id="Page-1" stroke="none" stroke-width="1" fill="none" fill-rule="evenodd">
        <g id="Atom" fill-rule="nonzero" fill="#000000">
            <g id="Group-2" transform="translate(2.000000, 1.000000)">
                <g id="Group">
                    <path d="M16.352011,3.87243763 C15.5788378,3.25939148 14.7220944,2.76345689 13.8057849,2.3989507 C13.6546472,2.33967908 13.4809869,2.4083998 13.4184574,2.55471769 C13.3565206,2.70103557 13.4285333,2.86854234 13.5799673,2.92867298 C14.4417487,3.27170394 15.2481129,3.73785954 15.9756484,4.31511365 C19.9837615,7.49802865 20.5657899,13.2385001 17.273062,17.1111994 C13.9794451,20.9844713 8.0382509,21.546836 4.02984146,18.3642073 C2.08786991,16.8228586 0.883509721,14.6432663 0.638429535,12.226301 C0.393645696,9.80933578 1.13718401,7.44477009 2.73272419,5.56869424 C3.8087655,4.30308752 5.21523535,3.34214268 6.80040333,2.78979984 C6.95450453,2.73625494 7.03422227,2.57189787 6.97880511,2.42357563 C6.92309159,2.27439439 6.75298757,2.19736991 6.59977541,2.25120114 C4.9141453,2.83847702 3.41877091,3.85983883 2.2748658,5.20504706 C0.578863492,7.19966616 -0.211794234,9.71255408 0.0486960739,12.2818503 C0.309186381,14.8511465 1.58941178,17.168753 3.6534789,18.8071696 C5.534699,20.3007001 7.81539685,21.018259 10.0786101,20.9996472 C12.9413364,20.9764539 15.7759095,19.7749865 17.7312167,17.4751329 C21.2313886,13.3581887 20.6126129,7.25607443 16.352011,3.87243763 Z" id="Shape"></path>
                    <path d="M8.75645341,3.96012312 C9.7488632,4.74341182 11.2143388,4.60536199 12.0296346,3.65273582 C12.8446447,2.69901184 12.7012395,1.29134269 11.708544,0.507779533 C10.7169912,-0.275234716 9.2509443,-0.137459338 8.43536285,0.815990189 C7.6206384,1.76943972 7.76375795,3.17738332 8.75645341,3.96012312 Z M9.25322964,1.46122906 C9.69801434,0.941689638 10.4964557,0.867038437 11.0369391,1.29326386 C11.5777082,1.72031264 11.6556955,2.48768307 11.2111965,3.00694804 C10.7669831,3.52648747 9.96882737,3.60196203 9.42805831,3.17491324 C8.88757491,2.74786446 8.80901627,1.98076848 9.25322964,1.46122906 Z" id="Shape"></path>
                </g>
            </g>
        </g>
    </g>
</svg>