<?xml version="1.0" encoding="UTF-8" standalone="no"?>
<svg width="20px" height="20px" viewBox="0 0 20 20" version="1.1" xmlns="http://www.w3.org/2000/svg" xmlns:xlink="http://www.w3.org/1999/xlink">
    <!-- Generator: Sketch 44.1 (41455) - http://www.bohemiancoding.com/sketch -->
    <title>close</title>
    <desc>Created with Sketch.</desc>
    <defs></defs>
    <g id="Page-1" stroke="none" stroke-width="1" fill="none" fill-rule="evenodd">
        <g id="close" transform="translate(-1.000000, -2.000000)" fill="#000000">
            <path d="M10.929971,9.4995666 L3.93385439,2.50344998 C3.26251511,1.8321107 2.17454537,1.83227007 1.50340772,2.50340771 C0.832122504,3.17469292 0.832288994,4.26269339 1.50344997,4.93385437 L8.49956661,11.9299711 L1.50344997,18.9260877 C0.832110703,19.597427 0.832270067,20.6853967 1.50340772,21.3565344 C2.17469293,22.0278196 3.2626934,22.0276531 3.93385439,21.3564922 L10.929971,14.3603755 L17.9260877,21.3564922 C18.597427,22.0278314 19.6853967,22.027672 20.3565344,21.3565344 C21.0278196,20.6852491 21.0276531,19.5972487 20.3564922,18.9260877 L13.3603755,11.9299711 L20.3564922,4.93385437 C21.0278314,4.26251512 21.027672,3.17454535 20.3565344,2.50340771 C19.6852491,1.83212251 18.5972487,1.83228898 17.9260877,2.50344998 L10.929971,9.4995666 L10.929971,9.4995666 Z"></path>
        </g>
    </g>
</svg>