<?xml version="1.0" encoding="UTF-8" standalone="no"?>
<svg width="24px" height="24px" viewBox="0 0 24 24" version="1.1" xmlns="http://www.w3.org/2000/svg" xmlns:xlink="http://www.w3.org/1999/xlink">
    <!-- Generator: Sketch 44.1 (41455) - http://www.bohemiancoding.com/sketch -->
    <title>discover</title>
    <desc>Created with Sketch.</desc>
    <defs></defs>
    <g id="Page-1" stroke="none" stroke-width="1" fill="none" fill-rule="evenodd">
        <g id="discover">
            <g id="gear" transform="translate(1.000000, 1.000000)">
                <path d="M10.8249922,0.348678431 C16.8042471,0.348678431 21.6507176,5.19601176 21.6507176,11.1744039 C21.6507176,17.1527961 16.8042471,22.0001294 10.8249922,22.0001294 C4.8466,22.0001294 0.000129411765,17.1527961 0.000129411765,11.1744039 C0.000129411765,5.19601176 4.8466,0.348678431 10.8249922,0.348678431 Z M11.1032275,20.0533451 C15.9445216,19.9787176 19.8467176,16.0333843 19.8467176,11.1744039 C19.8467176,6.31542353 15.9445216,2.3700902 11.1032275,2.29546275 L11.1032275,4.1740902 C10.988051,4.16891373 10.8724431,4.16546275 10.7559725,4.16546275 C6.88569804,4.16546275 3.74746275,7.30326667 3.74746275,11.1744039 C3.74746275,15.0455412 6.88569804,18.1829137 10.7559725,18.1829137 C10.8724431,18.1829137 10.988051,18.1798941 11.1032275,18.1747176 L11.1032275,20.0533451 Z" id="Fill-1" fill="#FEFEFE"></path>
                <path d="M15.4,11 C15.4,13.4298013 13.4302157,15.4 11,15.4 C8.57019874,15.4 6.6,13.4298013 6.6,11 C6.6,8.57019874 8.57019874,6.6 11,6.6 C13.4302157,6.6 15.4,8.57019874 15.4,11" id="Fill-4" fill="#FEFEFE"></path>
                <path d="M10.8249922,0.210078431 C16.8042471,0.210078431 21.6507176,5.05698039 21.6507176,11.0353725 C21.6507176,17.0141961 16.8042471,21.861098 10.8249922,21.861098 C4.8466,21.861098 0.000129411765,17.0141961 0.000129411765,11.0353725 C0.000129411765,5.05698039 4.8466,0.210078431 10.8249922,0.210078431 Z M11.1032275,19.9143137 C15.9445216,19.8396863 19.8467176,15.8947843 19.8467176,11.0353725 C19.8467176,6.17639216 15.9445216,2.2314902 11.1032275,2.15686275 L11.1032275,4.0354902 C10.988051,4.03031373 10.8724431,4.02686275 10.7559725,4.02686275 C6.88569804,4.02686275 3.74746275,7.16466667 3.74746275,11.0353725 C3.74746275,14.9065098 6.88569804,18.0443137 10.7559725,18.0443137 C10.8724431,18.0443137 10.988051,18.0408627 11.1032275,18.0356863 L11.1032275,19.9143137 Z" id="Fill-6" fill="#000000"></path>
                <path d="M15.4,11 C15.4,13.4302157 13.4302157,15.4 11,15.4 C8.57019874,15.4 6.6,13.4302157 6.6,11 C6.6,8.57019874 8.57019874,6.6 11,6.6 C13.4302157,6.6 15.4,8.57019874 15.4,11" id="Fill-9" fill="#000000"></path>
            </g>
        </g>
    </g>
</svg>