<?xml version="1.0" encoding="UTF-8" standalone="no"?>
<svg width="22px" height="22px" viewBox="0 0 22 22" version="1.1" xmlns="http://www.w3.org/2000/svg" xmlns:xlink="http://www.w3.org/1999/xlink">
    <!-- Generator: Sketch 44.1 (41455) - http://www.bohemiancoding.com/sketch -->
    <title>feedback</title>
    <desc>Created with Sketch.</desc>
    <defs></defs>
    <g id="Page-1" stroke="none" stroke-width="1" fill="none" fill-rule="evenodd">
        <g id="feedback" transform="translate(-1.000000, -1.000000)" fill="#000000">
            <path d="M11.9998589,1 C5.92473284,1 1,5.92473284 1,11.9998589 C1,15.4665615 2.60535735,18.5567615 5.1113292,20.5730542 L1,23 L11.9998589,23 C18.0749849,23 23,18.0752672 23,11.9998589 C23,5.92473284 18.0744205,1 11.9998589,1 L11.9998589,1 Z M11.9995766,22.0212062 L4.65072034,22.0212062 L6.97690798,20.6704255 C3.98915958,18.9355219 1.97851159,15.7036396 1.97851159,11.9998589 C1.97851159,6.46521444 6.4649322,1.97879383 11.9995766,1.97879383 C17.5342211,1.97879383 22.0209239,6.46521444 22.0209239,11.9998589 C22.0209239,17.5342211 17.5342211,22.0212062 11.9995766,22.0212062 L11.9995766,22.0212062 Z M13.7810491,15.8218964 L10.2186686,15.8218964 C10.0682369,15.8218964 9.9443354,15.7039218 9.93671503,15.5537723 L9.93107032,15.4346688 C9.93050584,15.4225327 9.92316771,15.2989134 9.90200003,15.1188469 C9.84244827,14.6153382 9.73576313,14.1942424 9.60170111,13.9331743 C9.40639392,13.5532848 9.19838612,13.0686859 9.05811492,12.7285918 C9.00392564,12.615133 8.95086531,12.4827644 8.90627205,12.3492668 C8.90401416,12.3422109 8.90175628,12.3345906 8.89978063,12.326688 L8.89921615,12.3269702 L8.81313423,12.0145351 C8.75160682,11.7416131 8.72225429,11.4763114 8.72225429,11.2127032 C8.72225429,9.31466728 10.1927029,7.77027287 12.0001411,7.77027287 C13.8078616,7.77027287 15.2783102,9.31466728 15.2783102,11.2127032 C15.2783102,11.4754647 15.2489577,11.7404842 15.1905348,12.0009878 L15.1013483,12.3269702 L15.1013483,12.326688 C15.0976793,12.3393886 15.093728,12.351807 15.0886477,12.3636609 C15.0496992,12.4821999 14.9966388,12.6145685 14.9359581,12.7418569 C14.8018961,13.0681215 14.5941705,13.5532848 14.3988634,13.9334565 C14.1349729,14.4457145 14.0751389,15.3347573 14.0692119,15.4343866 L14.063285,15.5534901 C14.0553824,15.7036396 13.9314808,15.8218964 13.7810491,15.8218964 L13.7810491,15.8218964 Z M10.4836881,15.2574247 L13.5160297,15.2574247 C13.5453822,14.9176128 13.6373911,14.1781549 13.8964836,13.6752107 C14.0827592,13.3128199 14.2837111,12.8434618 14.4197488,12.5135281 C14.4764782,12.3930134 14.5210715,12.2826592 14.5580444,12.1708938 C14.5588911,12.1689181 14.5594555,12.1666603 14.5605845,12.1644024 L14.6429973,11.8649502 C14.6887195,11.6583535 14.7135563,11.4342583 14.7135563,11.2129854 C14.7135563,9.62597339 13.4962732,8.33502675 11.9998589,8.33502675 C10.5034446,8.33502675 9.2864437,9.62597339 9.2864437,11.2129854 C9.2864437,11.435105 9.31128045,11.658918 9.36038949,11.8782152 L9.44252011,12.1751273 C9.48485548,12.2970532 9.52690862,12.4006337 9.57432424,12.500263 C9.71600662,12.843744 9.91724076,13.3128199 10.1035164,13.6749285 C10.3143466,14.0844527 10.4151047,14.6503355 10.4625204,15.053086 C10.4718341,15.132112 10.47889,15.2012598 10.4836881,15.2574247 L10.4836881,15.2574247 Z M13.5453822,16.5018025 L10.4549,16.5018025 C10.2991058,16.5018025 10.1726642,16.375643 10.1726642,16.2195666 C10.1726642,16.0634902 10.2991058,15.9373308 10.4549,15.9373308 L13.5453822,15.9373308 C13.7014586,15.9373308 13.8276181,16.0634902 13.8276181,16.2195666 C13.8276181,16.375643 13.7011764,16.5018025 13.5453822,16.5018025 L13.5453822,16.5018025 Z M13.5453822,17.1729592 L10.4549,17.1729592 C10.2991058,17.1729592 10.1726642,17.0467998 10.1726642,16.8907234 C10.1726642,16.734647 10.2991058,16.6084876 10.4549,16.6084876 L13.5453822,16.6084876 C13.7014586,16.6084876 13.8276181,16.734647 13.8276181,16.8907234 C13.8276181,17.0467998 13.7011764,17.1729592 13.5453822,17.1729592 L13.5453822,17.1729592 Z M13.3229804,17.8438338 L10.6773018,17.8438338 C10.5215077,17.8438338 10.395066,17.7176744 10.395066,17.561598 C10.395066,17.4055216 10.5215077,17.2793621 10.6773018,17.2793621 L13.3229804,17.2793621 C13.4790568,17.2793621 13.6052162,17.4055216 13.6052162,17.561598 C13.6052162,17.7176744 13.4787746,17.8438338 13.3229804,17.8438338 L13.3229804,17.8438338 Z M10.763666,13.2295604 C10.6705282,13.2295604 10.579366,13.1835559 10.525459,13.0991674 C9.08464509,10.8412808 10.4977998,9.5054587 10.7958409,9.26076024 C10.9160733,9.16169547 11.0941641,9.17919409 11.1929467,9.29970878 C11.2917292,9.42022348 11.2745128,9.59803205 11.1539981,9.69681458 C10.9205891,9.88873494 9.81648257,10.9392167 11.0010263,12.7954817 C11.0848504,12.9270036 11.0464663,13.1014253 10.9149444,13.1852493 C10.8680932,13.2154486 10.8155974,13.2295604 10.763666,13.2295604 L10.763666,13.2295604 Z M18.2090469,11.4585306 L16.5943758,11.4585306 C16.4382994,11.4585306 16.31214,11.3320889 16.31214,11.1762948 C16.31214,11.0205006 16.4382994,10.8940589 16.5943758,10.8940589 L18.2090469,10.8940589 C18.3651233,10.8940589 18.4912828,11.0205006 18.4912828,11.1762948 C18.4912828,11.3320889 18.3651233,11.4585306 18.2090469,11.4585306 L18.2090469,11.4585306 Z M7.40562419,11.4585306 L5.79095306,11.4585306 C5.63515889,11.4585306 5.50871724,11.3320889 5.50871724,11.1762948 C5.50871724,11.0205006 5.63515889,10.8940589 5.79095306,10.8940589 L7.40562419,10.8940589 C7.56141836,10.8940589 7.68786001,11.0205006 7.68786001,11.1762948 C7.68786001,11.3320889 7.56141836,11.4585306 7.40562419,11.4585306 L7.40562419,11.4585306 Z M11.9998589,6.78555209 C11.8440647,6.78555209 11.7176231,6.65911044 11.7176231,6.50331627 L11.7176231,4.88864514 C11.7176231,4.73285097 11.8440647,4.60640932 11.9998589,4.60640932 C12.1559353,4.60640932 12.2820947,4.73285097 12.2820947,4.88864514 L12.2820947,6.50331627 C12.2820947,6.65911044 12.1559353,6.78555209 11.9998589,6.78555209 L11.9998589,6.78555209 Z M15.2766168,8.33474451 C15.2043644,8.33474451 15.132112,8.3070854 15.077076,8.25204942 C14.9667218,8.14169521 14.9667218,7.96332217 15.077076,7.85296797 L16.2187199,6.71132407 C16.3290741,6.60096986 16.5074472,6.60096986 16.6178014,6.71132407 C16.7281556,6.82167828 16.7281556,7.00005132 16.6178014,7.11040552 L15.4761575,8.25204942 C15.4211215,8.30736764 15.3488691,8.33474451 15.2766168,8.33474451 L15.2766168,8.33474451 Z M8.72366547,8.27942629 C8.6514131,8.27942629 8.57916073,8.25176718 8.52412475,8.1967312 L7.38248085,7.0550873 C7.27212665,6.94473309 7.27212665,6.76636006 7.38248085,6.65600585 C7.49283506,6.54565164 7.6712081,6.54565164 7.7815623,6.65600585 L8.9232062,7.79764975 C9.0335604,7.90800395 9.0335604,8.08637699 8.9232062,8.1967312 C8.86788798,8.25176718 8.79563561,8.27942629 8.72366547,8.27942629 L8.72366547,8.27942629 Z M7.58173934,16.0829645 C7.50948697,16.0829645 7.4372346,16.0553054 7.38219862,16.0002694 C7.27184441,15.8899152 7.27184441,15.7115422 7.38219862,15.601188 L8.52384251,14.4595441 C8.63419672,14.3491899 8.81256976,14.3491899 8.92292396,14.4595441 C9.03327817,14.5698983 9.03327817,14.7482713 8.92292396,14.8586255 L7.78128007,16.0002694 C7.72624408,16.0553054 7.65399171,16.0829645 7.58173934,16.0829645 L7.58173934,16.0829645 Z M16.4182607,16.1382827 C16.3460083,16.1382827 16.2737559,16.1106236 16.2187199,16.0555876 L15.0767938,14.9136615 C14.9664396,14.8033073 14.9664396,14.6249343 15.0767938,14.51458 C15.187148,14.4042258 15.365521,14.4042258 15.4758753,14.51458 L16.6178014,15.6565062 C16.7281556,15.7668604 16.7281556,15.9452334 16.6178014,16.0555876 C16.5627654,16.1106236 16.490513,16.1382827 16.4182607,16.1382827 L16.4182607,16.1382827 Z"></path>
        </g>
    </g>
</svg>