<?xml version="1.0" encoding="UTF-8" standalone="no"?>
<svg width="22px" height="18px" viewBox="0 0 22 18" version="1.1" xmlns="http://www.w3.org/2000/svg" xmlns:xlink="http://www.w3.org/1999/xlink">
    <!-- Generator: Sketch 44.1 (41455) - http://www.bohemiancoding.com/sketch -->
    <title>link</title>
    <desc>Created with Sketch.</desc>
    <defs></defs>
    <g id="Page-1" stroke="none" stroke-width="1" fill="none" fill-rule="evenodd">
        <g id="link" transform="translate(-1.000000, -3.000000)" fill="#000000">
            <path d="M21.8579047,4.31049754 C20.3348868,2.78747966 17.8571814,2.78747966 16.3341635,4.31049754 L15.0755896,5.56907147 C14.8129385,5.83172258 14.8129385,6.25752216 15.0755896,6.51972506 C15.2069152,6.65105062 15.3790278,6.71648929 15.5511405,6.71648929 C15.7232532,6.71648929 15.8953659,6.65105062 16.0266914,6.51972506 L17.2852653,5.26115113 C18.2838774,4.26253906 19.908639,4.26209085 20.9076993,5.26115113 C21.9063114,6.26021142 21.9063114,7.88497299 20.9072511,8.88313686 L20.9068029,8.88358507 L14.4947093,15.294334 C14.0110906,15.7779526 13.3679092,16.0446376 12.6839406,16.0450859 L12.6834924,16.0450859 C11.9995238,16.0450859 11.3567905,15.7784009 10.8731718,15.2947822 C9.87455975,14.2961701 9.87455975,12.6714085 10.8731718,11.6732447 C10.8731718,11.6732447 10.8731718,11.6732447 10.87362,11.6727964 L12.1317457,10.4142225 C12.3943969,10.1515714 12.3939487,9.72577182 12.1317457,9.46312071 C11.8690946,9.20091781 11.4432951,9.20091781 11.1806439,9.46312071 L9.92251823,10.7216946 C9.92251823,10.7216946 9.92251823,10.7221428 9.92207002,10.7225911 C8.39994856,12.2451607 8.39994856,14.7228661 9.92251823,16.2449876 C10.660272,16.9827414 11.6405075,17.3892679 12.6839406,17.3892679 L12.684837,17.3892679 C13.7278219,17.3888197 14.7085055,16.9827414 15.4458111,16.2445393 L21.8570082,9.83423866 C21.8574565,9.83423866 21.8579047,9.83423866 21.8579047,9.83379045 C23.3804743,8.31166899 23.3809225,5.83396363 21.8579047,4.31049754 L21.8579047,4.31049754 Z M7.97504539,17.2427032 L6.71691967,18.5012771 C5.7183076,19.499441 4.09354603,19.4998892 3.09493395,18.5008289 C2.61131527,18.0172102 2.34463026,17.3740288 2.34463026,16.6900602 C2.34463026,16.0056434 2.61131527,15.3624619 3.09493395,14.8788432 L9.50657926,8.4671979 C10.5051913,7.46903403 12.1299529,7.46858582 13.1290132,8.4671979 C14.1271771,9.46580997 14.1271771,11.0905715 13.1290132,12.0891836 L11.8704393,13.3482058 C11.6082364,13.6108569 11.6082364,14.0366565 11.8704393,14.2988594 C12.0017648,14.4301849 12.1738775,14.4956236 12.3459902,14.4956236 C12.5181028,14.4956236 12.6902155,14.4301849 12.8215411,14.2988594 L14.080115,13.0398372 C15.6022365,11.5172675 15.6022365,9.03911397 14.080115,7.51609609 C12.5570971,5.99397463 10.0789435,5.99307821 8.55637388,7.51609609 L2.14428036,13.9277414 C1.40652655,14.6654952 1,15.6461789 1,16.689612 C1,17.7325968 1.40652655,18.7137287 2.14428036,19.4510343 C2.90578929,20.2125433 3.905746,20.5935218 4.90615092,20.5935218 C5.90610763,20.5935218 6.90606433,20.2125433 7.66757327,19.4514825 L8.92569899,18.1929086 C9.1883501,17.9302575 9.1883501,17.5049061 8.92569899,17.242255 C8.66304788,16.9796039 8.23724829,16.9800521 7.97504539,17.2427032 L7.97504539,17.2427032 Z"></path>
        </g>
    </g>
</svg>