<?xml version="1.0" encoding="UTF-8" standalone="no"?>
<svg width="24px" height="19px" viewBox="0 0 24 19" version="1.1" xmlns="http://www.w3.org/2000/svg" xmlns:xlink="http://www.w3.org/1999/xlink">
    <!-- Generator: Sketch 44.1 (41455) - http://www.bohemiancoding.com/sketch -->
    <title>megaphone</title>
    <desc>Created with Sketch.</desc>
    <defs></defs>
    <g id="Page-1" stroke="none" stroke-width="1" fill="none" fill-rule="evenodd">
        <g id="megaphone" transform="translate(0.000000, -3.000000)" fill-rule="nonzero" fill="#000000">
            <g transform="translate(0.000000, 3.000000)" id="Shape">
                <path d="M17.6446364,6.87318171 C16.8518182,3.65655086 15.3002727,0.194420571 13.7675455,0.194420571 C13.6917273,0.194420571 13.6159091,0.203245714 13.5430909,0.220361143 C13.209,0.29952 12.9430909,0.549030857 12.7478182,0.954185143 C12.7270909,0.970230857 12.7044545,0.982532571 12.6872727,1.00392686 C11.8292727,2.07952457 8.75672727,5.63204571 5.25136364,6.46267886 L2.57318182,7.14034286 C2.56254545,7.14274971 2.55218182,7.14595886 2.54181818,7.149168 C1.72118182,7.37033143 1.02845455,7.87657371 0.582545455,8.58312 C0.116181818,9.32282743 -0.0256363636,10.196784 0.183545455,11.0448 C0.392727273,11.8925486 0.925909091,12.6068503 1.68518182,13.0558629 C2.44090909,13.5030034 3.33463636,13.6359154 4.20109091,13.4307977 L4.75636364,13.2992229 L4.75690909,13.2992229 L4.75718182,13.2992229 L5.42509091,13.1409051 L7.64127273,17.60616 C7.92981818,18.1870149 8.52490909,18.5255794 9.14372727,18.5255794 C9.38836364,18.5255794 9.63681818,18.472896 9.87109091,18.3611109 C10.6977273,17.9661189 11.043,16.9854583 10.6404545,16.1746149 L8.84863636,12.5643291 C12.048,12.5378537 15.3152727,13.9958743 16.062,14.3510194 C16.3292727,14.5462423 16.6000909,14.6545509 16.8703636,14.6545509 C16.9461818,14.6545509 17.022,14.6457257 17.0948182,14.6283429 C17.8022727,14.4606651 18.2089091,13.538304 18.2708182,11.9607429 C18.3264545,10.5441737 18.1041818,8.73742629 17.6446364,6.87318171 Z M4.03418182,12.7550057 C3.351,12.9173349 2.64654545,12.8125029 2.05118182,12.4602994 C1.45554545,12.108096 1.03663636,11.5470309 0.872727273,10.8811337 C0.708545455,10.2152366 0.819545455,9.52848 1.18581818,8.94816 C1.54663636,8.37559543 2.11472727,7.96937143 2.78727273,7.80329829 L3.02345455,7.74713829 L4.24554545,12.7047291 L4.03418182,12.7550057 Z M9.56072727,17.7358629 C9.08563636,17.9626423 8.50990909,17.7679543 8.27890909,17.3018263 L7.47463636,15.6814766 L9.22254545,14.9072709 L10.0028182,16.479216 C10.2343636,16.9450766 10.0358182,17.508816 9.56072727,17.7358629 Z M8.91218182,14.2817554 L7.16427273,15.0559611 L6.13090909,12.9737623 L6.95181818,12.7790743 C7.32027273,12.6918926 7.69718182,12.6343954 8.07790909,12.6006994 L8.91218182,14.2817554 Z M6.78490909,12.1032823 L4.93472727,12.5415977 L3.71263636,7.58373943 L5.41854545,7.17858514 C8.36618182,6.48006171 10.9868182,4.00447543 12.3965455,2.444832 C12.384,2.58683657 12.3736364,2.73338743 12.3673636,2.88796114 C12.3381818,3.62552914 12.3861818,4.470336 12.5023636,5.37264 C12.504,5.38547657 12.5007273,5.39777829 12.5037273,5.41088229 C12.5048182,5.41516114 12.5080909,5.41810286 12.5091818,5.42238171 C12.6160909,6.23830629 12.7775455,7.09996114 12.9935455,7.97578971 C13.2051818,8.83450286 13.4713636,9.71033143 13.7762727,10.5334766 C13.7779091,10.5497897 13.7740909,10.5653006 13.7781818,10.5816137 C13.7899091,10.6289486 13.8128182,10.6693303 13.8409091,10.705968 C14.1908182,11.6253874 14.5898182,12.4688571 15.0158182,13.139568 C13.1089091,12.3979886 9.75081818,11.3999451 6.78490909,12.1032823 Z M13.2605455,5.67938057 C13.7948182,5.82352457 14.4289091,6.53862857 14.6975455,7.62733029 C14.964,8.70934629 14.7381818,9.62368457 14.334,9.99648 C14.1021818,9.34234971 13.8807273,8.61574629 13.6827273,7.81212343 C13.503,7.08311314 13.3628182,6.36613714 13.2605455,5.67938057 Z M17.5625455,11.934 C17.511,13.2366446 17.2069091,13.886496 16.9281818,13.9525509 C16.9096364,13.9570971 16.8905455,13.9589691 16.8703636,13.9589691 C16.8076364,13.9589691 16.7378182,13.9399817 16.662,13.903344 C16.6322727,13.8667063 16.5951818,13.8351497 16.5501818,13.8121509 C16.5354545,13.8046629 16.4972727,13.7851406 16.44,13.757328 C15.927,13.3425463 15.2345455,12.2928891 14.5911818,10.6792251 C15.3902727,10.1978537 15.7385455,8.89066286 15.3867273,7.463664 C15.033,6.02917714 14.1095455,5.01749486 13.167,4.95732343 C13.0851818,4.21841829 13.0516364,3.52604571 13.0756364,2.91443657 C13.1269091,1.611792 13.431,0.962208 13.7097273,0.896153143 C13.7282727,0.891606857 13.7473636,0.889734857 13.7675455,0.889734857 C14.4512727,0.889734857 15.9799091,3.07863771 16.9554545,7.03658057 C17.4002727,8.84038629 17.6157273,10.5794743 17.5625455,11.934 Z"></path>
                <path d="M20.3525455,6.658704 C20.196,6.65549486 20.055,6.54986057 20.016,6.39368229 C19.9693636,6.20728457 20.0858182,6.01901486 20.2759091,5.97328457 L22.5924545,5.41596343 C22.7822727,5.36996571 22.9745455,5.48442514 23.0211818,5.67082286 C23.0678182,5.85722057 22.9513636,6.04549029 22.7612727,6.09122057 L20.4447273,6.64854171 C20.4139091,6.65602971 20.3828182,6.65950629 20.3525455,6.658704 Z"></path>
                <path d="M18.5975455,2.85961371 C18.5026364,2.85560229 18.4096364,2.81415086 18.3430909,2.73766629 C18.216,2.59138286 18.2342727,2.371824 18.3834545,2.24746971 L20.4722727,0.50544 C20.6211818,0.381353143 20.8453636,0.398736 20.9719091,0.545019429 C21.099,0.691302857 21.0807273,0.910861714 20.9315455,1.035216 L18.8427273,2.77724571 C18.7718182,2.83661486 18.684,2.86335771 18.5975455,2.85961371 Z"></path>
                <path d="M23.4711818,11.4411291 C23.4245455,11.4488846 23.3754545,11.4478149 23.3260909,11.4357806 L20.7580909,10.8137417 C20.5677273,10.767744 20.4520909,10.5792069 20.499,10.3930766 C20.5453636,10.2066789 20.7370909,10.091952 20.928,10.1390194 L23.496,10.7610583 C23.6863636,10.807056 23.802,10.9955931 23.7550909,11.1817234 C23.7207273,11.319984 23.6059091,11.4183977 23.4711818,11.4411291 Z"></path>
            </g>
        </g>
    </g>
</svg>