<?xml version="1.0" encoding="UTF-8" standalone="no"?>
<svg width="24px" height="24px" viewBox="0 0 24 24" version="1.1" xmlns="http://www.w3.org/2000/svg" xmlns:xlink="http://www.w3.org/1999/xlink">
    <!-- Generator: Sketch 44.1 (41455) - http://www.bohemiancoding.com/sketch -->
    <title>Molecule</title>
    <desc>Created with Sketch.</desc>
    <defs></defs>
    <g id="Page-1" stroke="none" stroke-width="1" fill="none" fill-rule="evenodd">
        <g id="Molecule" fill-rule="nonzero" fill="#000000">
            <g id="Group" transform="translate(2.000000, 3.000000)">
                <path d="M5.55104895,16.2939394 C5.55104895,15.6893939 5.34545455,15.1424242 5.02237762,14.7106061 L7.84195804,11.9469697 C8.34125874,12.3212121 8.95804196,12.580303 9.6041958,12.6666667 L9.6041958,14.2212121 C8.63496503,14.4227273 7.9006993,15.2575758 7.9006993,16.2939394 C7.9006993,17.4454545 8.86993007,18.3954545 10.0447552,18.3954545 C11.2195804,18.3954545 12.1888112,17.4454545 12.1888112,16.2939394 C12.1888112,15.2863636 11.4545455,14.4227273 10.4853147,14.2212121 L10.4853147,12.6666667 C12.1006993,12.4651515 13.4223776,11.1984848 13.5986014,9.61515152 L14.7734266,9.61515152 C14.8909091,11.1984848 16.241958,12.4651515 17.8867133,12.4651515 C19.6195804,12.4651515 21,11.0833333 21,9.41363636 C21,7.74393939 19.6195804,6.33333333 17.8867133,6.33333333 C16.3888112,6.33333333 15.1552448,7.36969697 14.8321678,8.75151515 L13.5986014,8.75151515 C13.393007,7.16818182 12.1006993,5.87272727 10.4853147,5.7 L10.4853147,4.17424242 C11.4545455,3.97272727 12.1888112,3.13787879 12.1888112,2.10151515 C12.1888112,0.95 11.2195804,0 10.0447552,0 C8.86993007,0 7.9006993,0.95 7.9006993,2.10151515 C7.9006993,3.10909091 8.63496503,3.97272727 9.6041958,4.17424242 L9.6041958,5.7 C8.86993007,5.78636364 8.19440559,6.1030303 7.66573427,6.56363636 L5.96223776,5.06666667 C6.28531469,4.57727273 6.49090909,3.97272727 6.49090909,3.33939394 C6.49090909,1.61212121 5.08111888,0.23030303 3.31888112,0.23030303 C1.55664336,0.23030303 0.146853147,1.61212121 0.146853147,3.33939394 C0.146853147,5.06666667 1.55664336,6.44848485 3.31888112,6.44848485 C4.11188811,6.44848485 4.81678322,6.16060606 5.37482517,5.7 L7.07832168,7.1969697 C6.66713287,7.77272727 6.43216783,8.46363636 6.43216783,9.18333333 C6.43216783,9.98939394 6.72587413,10.7378788 7.1958042,11.3424242 L4.37622378,14.1060606 C3.90629371,13.7893939 3.34825175,13.5878788 2.76083916,13.5878788 C1.23356643,13.5878788 0,14.7969697 0,16.2939394 C0,17.7909091 1.23356643,19 2.76083916,19 C4.31748252,19 5.55104895,17.7909091 5.55104895,16.2939394 Z M17.8867133,7.1969697 C19.1202797,7.1969697 20.1188811,8.17575758 20.1188811,9.38484848 C20.1188811,10.5939394 19.1202797,11.5727273 17.8867133,11.5727273 C16.6531469,11.5727273 15.6545455,10.5939394 15.6545455,9.38484848 C15.6545455,8.17575758 16.6531469,7.1969697 17.8867133,7.1969697 Z M3.34825175,5.55606061 C2.08531469,5.55606061 1.05734266,4.54848485 1.05734266,3.31060606 C1.05734266,2.07272727 2.08531469,1.06515152 3.34825175,1.06515152 C4.61118881,1.06515152 5.63916084,2.07272727 5.63916084,3.31060606 C5.63916084,4.54848485 4.61118881,5.55606061 3.34825175,5.55606061 Z M11.3076923,16.2939394 C11.3076923,16.9848485 10.7496503,17.5318182 10.0447552,17.5318182 C9.33986014,17.5318182 8.78181818,16.9848485 8.78181818,16.2939394 C8.78181818,15.6030303 9.33986014,15.0560606 10.0447552,15.0560606 C10.7496503,15.0560606 11.3076923,15.6030303 11.3076923,16.2939394 Z M8.78181818,2.10151515 C8.78181818,1.41060606 9.33986014,0.863636364 10.0447552,0.863636364 C10.7496503,0.863636364 11.3076923,1.41060606 11.3076923,2.10151515 C11.3076923,2.79242424 10.7496503,3.33939394 10.0447552,3.33939394 C9.33986014,3.33939394 8.78181818,2.79242424 8.78181818,2.10151515 Z M10.0447552,6.50606061 C11.5426573,6.50606061 12.7468531,7.68636364 12.7468531,9.15454545 C12.7468531,10.6227273 11.5426573,11.8030303 10.0447552,11.8030303 C8.54685315,11.8030303 7.34265734,10.6227273 7.34265734,9.15454545 C7.34265734,7.68636364 8.54685315,6.50606061 10.0447552,6.50606061 Z M0.881118881,16.2939394 C0.881118881,15.2863636 1.73286713,14.4515152 2.76083916,14.4515152 C3.78881119,14.4515152 4.64055944,15.2863636 4.64055944,16.2939394 C4.64055944,17.3015152 3.81818182,18.1363636 2.79020979,18.1363636 C1.76223776,18.1363636 0.881118881,17.3015152 0.881118881,16.2939394 Z" id="Shape"></path>
            </g>
        </g>
    </g>
</svg>