<?xml version="1.0" encoding="UTF-8" standalone="no"?>
<svg width="21px" height="18px" viewBox="0 0 21 18" version="1.1" xmlns="http://www.w3.org/2000/svg" xmlns:xlink="http://www.w3.org/1999/xlink">
    <!-- Generator: Sketch 44.1 (41455) - http://www.bohemiancoding.com/sketch -->
    <title>mute</title>
    <desc>Created with Sketch.</desc>
    <defs></defs>
    <g id="Page-1" stroke="none" stroke-width="1" fill="none" fill-rule="evenodd">
        <g id="mute" transform="translate(-2.000000, -3.000000)" fill="#000000">
            <path d="M6.71622418,16.4318335 L3.6013618,18.2302001 C3.09166217,18.5244753 2.44134416,18.3523203 2.14424142,17.8377232 C1.84919568,17.326689 2.02049881,16.6754203 2.53290666,16.3795815 L5.59210626,14.6133518 C5.56381611,14.448157 5.55037409,14.2874227 5.55037409,14.1368705 L5.55037409,9.74961854 C5.55037409,7.84858845 7.09474097,7.0939811 8.13295165,7.05078355 C8.14639236,7.05010857 8.1595052,7.04977109 8.17294591,7.04977109 L11.3944474,7.04977109 L15.3735445,3.26863482 C15.5554854,3.09584459 15.7934837,3 16.0406612,3 L17.0241256,3 C18.1000357,3 18.663233,4.01885492 18.663233,5.02488555 L18.663233,7.06673324 L21.2366667,5.58096063 C21.7463663,5.28668541 22.3966843,5.45884045 22.6937871,5.9734375 C22.9888328,6.48447171 22.8175297,7.13574039 22.3051218,7.4315792 L18.663233,9.53422468 L18.663233,18.5241226 C18.663233,20.0097136 17.6830468,20.5490081 17.0241256,20.5490081 L16.0406612,20.5490081 C15.8079079,20.5490081 15.5830223,20.4639628 15.4053431,20.3093967 L11.4187062,16.8367179 L8.17294591,16.8367179 C7.57386596,16.8367179 7.09359335,16.6801845 6.71622418,16.4318335 Z M9.52214836,14.8118324 L11.7786299,14.8118324 C12.0113699,14.8118324 12.2362428,14.8968776 12.4139119,15.0514438 L16.4003234,18.5241226 L16.6956738,18.5241226 L16.6956738,10.6701955 L9.52214836,14.8118324 Z M7.51719165,13.5019032 L16.6956738,8.20270408 L16.6956738,5.02488555 L16.4245808,5.02488555 L12.4457088,8.80602184 C12.2637782,8.97881207 12.0257933,9.07465666 11.7786299,9.07465666 L8.20164416,9.07465666 C7.75189858,9.11042963 7.51719165,9.33755428 7.51719165,9.74961854 L7.51719165,13.5019032 Z"></path>
        </g>
    </g>
</svg>