<?xml version="1.0" encoding="UTF-8" standalone="no"?>
<svg width="24px" height="24px" viewBox="0 0 24 24" version="1.1" xmlns="http://www.w3.org/2000/svg" xmlns:xlink="http://www.w3.org/1999/xlink">
    <!-- Generator: Sketch 44.1 (41455) - http://www.bohemiancoding.com/sketch -->
    <title>Organism</title>
    <desc>Created with Sketch.</desc>
    <defs></defs>
    <g id="Page-1" stroke="none" stroke-width="1" fill="none" fill-rule="evenodd">
        <g id="Organism">
            <g id="Group-2" transform="translate(2.000000, 1.000000)">
                <g id="Group">
                    <path d="M8.21580948,15.0130444 C8.22318873,14.9834667 8.2322898,14.9546222 8.24237478,14.9265111 C8.2450805,14.9189333 8.24877013,14.9116 8.25172182,14.9042667 C8.2539356,14.8988889 8.25614937,14.8935111 8.25836315,14.8881333 L5.99637746,13.2361778 C5.86576476,13.3466667 5.70292934,13.4168222 5.52902504,13.4339333 C5.52902504,13.4339333 5.52902504,13.4339333 5.52902504,13.4339333 C5.52853309,13.4339333 5.52804114,13.4339333 5.52754919,13.4339333 C5.50639535,13.4358889 5.48499553,13.4371111 5.46359571,13.4376 C5.45916816,13.4376 5.45474061,13.4376 5.45006708,13.4378444 C5.43112701,13.4380889 5.41218694,13.4376 5.39300089,13.4366222 C5.38291592,13.4361333 5.37258497,13.4349111 5.3625,13.4339333 C5.34798748,13.4324667 5.33372093,13.4314889 5.31920841,13.4292889 C5.29338104,13.4253778 5.26755367,13.4207333 5.2417263,13.4143778 C5.06536225,13.3711111 4.91630143,13.2760222 4.80536673,13.1496444 L2.34979875,14.2200667 C2.3512746,14.2929111 2.3443873,14.3669778 2.32618515,14.4410444 C2.24599732,14.7639556 1.98895349,14.9961778 1.68296064,15.0634 L1.36860465,17.8857556 C1.71862701,18.0576 1.91442308,18.4528667 1.81726297,18.8452 C1.81455725,18.8557111 1.81086762,18.8657333 1.80791592,18.8762444 L3.99192755,20.4712444 C4.00053667,20.4651333 4.00939177,20.4595111 4.01824687,20.4536444 C4.01873882,20.4531556 4.01947674,20.4529111 4.01996869,20.4524222 C4.04407424,20.4365333 4.06916369,20.4218667 4.09499106,20.4084222 C4.09499106,20.4084222 4.09499106,20.4084222 4.09499106,20.4084222 C4.09499106,20.4084222 4.09499106,20.4084222 4.09499106,20.4084222 C4.272339,20.3157778 4.48289356,20.2842444 4.6927102,20.3355778 C4.88973614,20.3837333 5.05355546,20.4969111 5.16719589,20.6462667 L7.61218694,19.5804889 C7.57553667,19.4465333 7.5713551,19.3020667 7.60726744,19.1576 C7.61464669,19.1280222 7.62374776,19.0991778 7.63383274,19.0710667 C7.63653846,19.0637333 7.63998211,19.0566444 7.64293381,19.0493111 C7.65105098,19.0287778 7.65966011,19.0082444 7.66925313,18.9886889 C7.67269678,18.9813556 7.67687835,18.9745111 7.68081395,18.9674222 C7.69089893,18.9481111 7.70147585,18.9292889 7.71303667,18.9109556 C7.7167263,18.9048444 7.72090787,18.8992222 7.72484347,18.8933556 C7.73738819,18.8745333 7.75042487,18.8559556 7.76444544,18.8383556 C7.76788909,18.8339556 7.77157871,18.8298 7.77526834,18.8254 C7.79076476,18.8068222 7.80675313,18.7887333 7.82347943,18.7713778 C7.82618515,18.7684444 7.82913685,18.7657556 7.83208855,18.7628222 C7.85053667,18.7444889 7.86947674,18.7271333 7.88940072,18.7107556 C7.89136852,18.7092889 7.89333631,18.7075778 7.89530411,18.7061111 C7.91670394,18.6887556 7.93884168,18.6726222 7.96171735,18.6574667 C7.96270125,18.6569778 7.96343918,18.6562444 7.96442308,18.6557556 C7.98852862,18.6398667 8.01337209,18.6252 8.03895349,18.612 C8.03895349,18.612 8.03895349,18.612 8.03895349,18.612 C8.03895349,18.612 8.03895349,18.612 8.03895349,18.612 C8.14792039,18.5552889 8.26918605,18.5213111 8.39561717,18.5159333 L8.67799642,15.9795778 C8.31911896,15.8106667 8.1174195,15.4100222 8.21580948,15.0130444 Z" id="Shape"></path>
                    <path d="M9.04203936,7.40886667 C9.0494186,7.37928889 9.0582737,7.35068889 9.06860465,7.32257778 C9.07180233,7.31402222 9.07573792,7.3062 9.0789356,7.29764444 C9.0868068,7.27833333 9.094678,7.25902222 9.10377907,7.24044444 C9.10796064,7.23213333 9.11263417,7.22431111 9.11681574,7.21624444 C9.12640877,7.19815556 9.13624776,7.18031111 9.14707066,7.16295556 C9.15149821,7.15611111 9.15617174,7.14951111 9.16084526,7.14266667 C9.17289803,7.12482222 9.18519678,7.10722222 9.19847943,7.09035556 C9.202661,7.08522222 9.20684258,7.08008889 9.21127013,7.0752 C9.22602862,7.05735556 9.24127907,7.04 9.25751342,7.02337778 C9.26095707,7.01995556 9.26440072,7.01653333 9.26784436,7.01311111 C9.28580054,6.99526667 9.30424866,6.9784 9.32368068,6.96251111 C9.32589445,6.96055556 9.3283542,6.95884444 9.33056798,6.95688889 C9.35172182,6.93977778 9.3736136,6.92364444 9.39624329,6.90873333 C9.39722719,6.908 9.39821109,6.90751111 9.39919499,6.90677778 C9.42059481,6.8926 9.44297853,6.87988889 9.46560823,6.86791111 C9.46831395,6.86644444 9.47101968,6.86448889 9.4737254,6.86302222 C9.47347943,6.86326667 9.47347943,6.86351111 9.47323345,6.86375556 C9.58220036,6.80655556 9.70371199,6.77233333 9.83014311,6.76695556 L10.1125224,4.23035556 C9.75438283,4.06217778 9.55243739,3.66128889 9.65107335,3.26431111 C9.65845259,3.23473333 9.66730769,3.20588889 9.67763864,3.17777778 C9.68059034,3.16995556 9.68427996,3.16237778 9.68723166,3.15455556 C9.68919946,3.14942222 9.69141324,3.14428889 9.69362701,3.13915556 L7.43164132,1.4872 C7.30102862,1.59768889 7.1381932,1.6676 6.96428891,1.68495556 C6.96428891,1.68495556 6.96428891,1.68495556 6.96428891,1.68495556 C6.96428891,1.68495556 6.96404293,1.68495556 6.96404293,1.68495556 C6.94215116,1.68715556 6.92025939,1.68837778 6.89812165,1.68886667 C6.89418605,1.68886667 6.89025045,1.68886667 6.88631485,1.68886667 C6.8671288,1.68911111 6.84769678,1.68862222 6.82826476,1.68764444 C6.81817979,1.68715556 6.80784884,1.68593333 6.79776386,1.68495556 C6.78325134,1.68348889 6.76898479,1.68251111 6.75447227,1.68031111 C6.7286449,1.67664444 6.70281753,1.67175556 6.67674419,1.6654 C6.50038014,1.62213333 6.35107335,1.52704444 6.24038462,1.40066667 L3.78506261,2.47108889 C3.78653846,2.54393333 3.77965116,2.618 3.76144902,2.69206667 C3.68150716,3.01497778 3.42421735,3.24744444 3.11822451,3.31442222 L2.80411449,6.13677778 C3.15413685,6.30862222 3.34993292,6.70388889 3.25277281,7.09622222 C3.25006708,7.10673333 3.24637746,7.11675556 3.24342576,7.12726667 L5.42719141,8.72226667 C5.43555456,8.71615556 5.44440966,8.71077778 5.45326476,8.70491111 C5.45400268,8.70442222 5.45498658,8.70393333 5.45572451,8.7032 C5.47983005,8.68731111 5.50467352,8.67288889 5.53000894,8.65944444 C5.53000894,8.65944444 5.53025492,8.65944444 5.53025492,8.6592 C5.53025492,8.6592 5.53025492,8.6592 5.53025492,8.6592 C5.70760286,8.56655556 5.91815742,8.53502222 6.12797406,8.58635556 C6.325,8.63475556 6.48881932,8.74768889 6.60221377,8.89704444 L9.04720483,7.83126667 C9.01030859,7.6978 9.00612701,7.55308889 9.04203936,7.40886667 Z" id="Shape"></path>
                    <path d="M11.7893336,9.04517778 L10.3449687,8.3094 C10.2288685,8.38762222 10.0938283,8.43724444 9.95140877,8.45142222 C9.95140877,8.45142222 9.95140877,8.45142222 9.95140877,8.45142222 C9.95140877,8.45142222 9.95140877,8.45142222 9.95116279,8.45142222 C9.92927102,8.45362222 9.90737925,8.45484444 9.8852415,8.45533333 C9.8813059,8.45533333 9.8773703,8.45533333 9.8734347,8.45533333 C9.85424866,8.45557778 9.83481664,8.45508889 9.81538462,8.45411111 C9.80529964,8.45337778 9.79496869,8.4524 9.78488372,8.45142222 C9.77061717,8.4502 9.75610465,8.44897778 9.7418381,8.44677778 C9.71601073,8.44286667 9.68993739,8.43822222 9.66411002,8.43186667 C9.54997764,8.404 9.44691413,8.35413333 9.35836315,8.28837778 L6.77390429,9.41526667 C6.77316637,9.47955556 6.76603309,9.54482222 6.74979875,9.60984444 C6.67010286,9.93055556 6.41576476,10.1622889 6.11247764,10.2309778 L5.83329606,11.8423556 C6.16806798,12.0127333 6.35697674,12.3889333 6.27654293,12.7675778 L8.62265206,14.4808889 C8.63027728,14.4764889 8.6379025,14.4725778 8.6457737,14.4684222 C8.64626565,14.4681778 8.64700358,14.4676889 8.64749553,14.4674444 C8.64749553,14.4674444 8.64749553,14.4674444 8.64749553,14.4674444 C8.82508945,14.3750444 9.03539803,14.3432667 9.24546064,14.3946 C9.40165474,14.4329778 9.53644902,14.5124222 9.64246422,14.6180222 L11.2636852,13.6659111 C11.2592576,13.5842667 11.2663909,13.5006667 11.2870528,13.4170667 C11.294432,13.3874889 11.3035331,13.3586444 11.3136181,13.3305333 C11.3163238,13.3229556 11.3197674,13.3158667 11.3227191,13.3085333 C11.3308363,13.2882444 11.3391995,13.2679556 11.3487925,13.2484 C11.3524821,13.2408222 11.3569097,13.2337333 11.3608453,13.2261556 C11.3706843,13.2073333 11.3810152,13.1887556 11.3923301,13.1709111 C11.3965116,13.1645556 11.4009392,13.1582 11.4051208,13.1520889 C11.4174195,13.1337556 11.4302102,13.1159111 11.4437388,13.0985556 C11.4476744,13.0936667 11.451856,13.0890222 11.4557916,13.0841333 C11.4707961,13.0660444 11.4862925,13.0484444 11.5025268,13.0318222 C11.5057245,13.0284 11.5091682,13.0252222 11.5126118,13.0218 C11.530568,13.0039556 11.5492621,12.9870889 11.5684481,12.9712 C11.5709079,12.9692444 11.5731216,12.9672889 11.5755814,12.9655778 C11.5967352,12.9484667 11.618381,12.9325778 11.6410107,12.9176667 C11.6422406,12.9169333 11.6432245,12.9162 11.6442084,12.9154667 C11.667576,12.9000667 11.6919275,12.8858889 11.716771,12.8729333 C11.7175089,12.8726889 11.7180009,12.8722 11.7184928,12.8719556 C11.7184928,12.8719556 11.7184928,12.8722 11.7182469,12.8722 C11.7903175,12.8345556 11.8677996,12.8071778 11.9484794,12.7912889 L12.2613596,9.98115556 C11.9101073,9.81811111 11.7088998,9.43311111 11.7893336,9.04517778 Z" id="Shape"></path>
                    <path d="M19.3365832,9.98995556 C19.3439624,9.96037778 19.3528175,9.93153333 19.3631485,9.90342222 C19.3661002,9.8956 19.3695438,9.88826667 19.3727415,9.88044444 C19.3747093,9.87531111 19.3769231,9.87017778 19.3791369,9.86504444 L17.1171512,8.21308889 C16.9865385,8.32357778 16.823703,8.39348889 16.6497987,8.41084444 C16.6497987,8.41084444 16.6497987,8.41084444 16.6497987,8.41084444 C16.6497987,8.41084444 16.6497987,8.41084444 16.6495528,8.41084444 C16.627661,8.41304444 16.6055233,8.41426667 16.5831395,8.41475556 C16.5796959,8.41475556 16.5760063,8.41475556 16.5725626,8.41475556 C16.5528846,8.415 16.5332066,8.41451111 16.5132826,8.41328889 C16.5036896,8.4128 16.4940966,8.41157778 16.4845036,8.4106 C16.4694991,8.40913333 16.4547406,8.40791111 16.4397361,8.40571111 C16.4139088,8.40204444 16.3880814,8.39715556 16.362254,8.3908 C16.186136,8.34753333 16.0368292,8.25244444 15.9258945,8.12606667 L13.4705725,9.19648889 C13.4720483,9.26933333 13.465161,9.3434 13.4469589,9.41746667 C13.366771,9.74037778 13.1097272,9.9726 12.8037343,10.0398222 L12.4893784,12.8621778 C12.8394007,13.0340222 13.0351968,13.4292889 12.9380367,13.8216222 C12.9353309,13.8323778 12.9316413,13.8424 12.9286896,13.8526667 L15.1124553,15.4476667 C15.1208184,15.4415556 15.1296735,15.4361778 15.1382826,15.4305556 C15.1392665,15.4300667 15.1400045,15.4293333 15.1409884,15.4288444 C15.1650939,15.4129556 15.1899374,15.3985333 15.2155188,15.3850889 C15.2155188,15.3850889 15.2155188,15.3850889 15.2157648,15.3850889 C15.2157648,15.3850889 15.2157648,15.3850889 15.2157648,15.3850889 C15.3931127,15.2924444 15.6036673,15.2609111 15.8134839,15.3122444 C16.0105098,15.3604 16.1743292,15.4735778 16.2877236,15.6229333 L18.7327147,14.5569111 C18.6960644,14.4229556 18.6921288,14.2784889 18.7277952,14.1342667 C18.7351744,14.1046889 18.7440295,14.0760889 18.7543605,14.0479778 C18.7573122,14.0396667 18.7612478,14.0318444 18.7644454,14.0237778 C18.7723166,14.0042222 18.7801878,13.9846667 18.7895349,13.9660889 C18.7934705,13.9580222 18.798144,13.9502 18.8023256,13.9423778 C18.8119186,13.9240444 18.8220036,13.9059556 18.8328265,13.8886 C18.8370081,13.8817556 18.8416816,13.8754 18.8463551,13.8688 C18.8584079,13.8507111 18.8709526,13.8331111 18.8842352,13.8162444 C18.8881708,13.8111111 18.8925984,13.8062222 18.89678,13.8013333 C18.9115385,13.7834889 18.9270349,13.7658889 18.9432692,13.7495111 C18.9467129,13.7460889 18.9501565,13.7426667 18.9536002,13.7392444 C18.9713104,13.7216444 18.9900045,13.7047778 19.0091905,13.6888889 C19.0116503,13.6869333 19.01411,13.6847333 19.0165698,13.6827778 C19.0372317,13.6659111 19.0588775,13.6502667 19.0810152,13.6353556 C19.0824911,13.6343778 19.0839669,13.6334 19.0854428,13.6324222 C19.1088104,13.6170222 19.1329159,13.6028444 19.1577594,13.5898889 C19.1582513,13.5896444 19.1587433,13.5894 19.1592352,13.5891556 C19.1592352,13.5891556 19.1592352,13.5891556 19.1592352,13.5891556 C19.2682021,13.5322 19.3894678,13.4984667 19.5158989,13.4928444 L19.7982782,10.9562444 C19.4398927,10.7878222 19.2379472,10.3871778 19.3365832,9.98995556 Z" id="Shape"></path>
                    <path d="M9.64221825,14.6180222 C9.53620304,14.5124222 9.40140877,14.4329778 9.24521467,14.3946 C9.03539803,14.3432667 8.82484347,14.3748 8.64724955,14.4674444 C8.12061717,15.3354667 8.76925313,15.8519778 9.12542487,16.0553556 C9.03146243,16.0646444 8.93479428,16.0592667 8.83788014,16.0355556 C8.78155188,16.0216222 8.72792934,16.0025556 8.6772585,15.9788444 L8.39512522,18.5154444 C8.26894007,18.5210667 8.14767442,18.5548 8.03846154,18.6115111 C7.51158318,19.4792889 8.15997317,19.9958 8.5161449,20.1994222 C8.86444544,20.1652 9.16970036,19.9188 9.25825134,19.5616667 C9.3440966,19.2157778 9.2016771,18.8674444 8.9266771,18.6721333 L9.21963327,16.0406889 C9.52759392,15.9749333 9.78685152,15.7417333 9.86728533,15.4173556 C9.89262075,15.3149333 9.89729428,15.2125111 9.88499553,15.1137556 L11.4759615,14.1794889 C11.3505143,14.0384444 11.2737701,13.8580444 11.2631932,13.6659111 L9.64221825,14.6180222 Z M9.0513864,19.0891556 C9.12321109,19.2453556 9.11460197,19.4022889 9.03195438,19.4396889 C8.94955277,19.4773333 8.82435152,19.3810222 8.75252683,19.2248222 C8.68070215,19.0686222 8.68931127,18.9116889 8.77195886,18.8740444 C8.85436047,18.8366444 8.97956172,18.9329556 9.0513864,19.0891556 Z M9.64098837,15.2953778 C9.55834079,15.3330222 9.43338551,15.2367111 9.36131485,15.0805111 C9.28949016,14.9243111 9.29809928,14.7673778 9.38074687,14.7297333 C9.46339445,14.6923333 9.58834973,14.7884 9.66017442,14.9446 C9.73199911,15.1010444 9.72338998,15.2579778 9.64098837,15.2953778 Z" id="Shape" fill="#000000" fill-rule="nonzero"></path>
                    <path d="M10.5604428,4.30711111 C10.4667263,4.3164 10.3698122,4.31102222 10.273144,4.28755556 C10.2168157,4.27362222 10.1631932,4.25455556 10.1125224,4.23084444 L9.83014311,6.76744444 C9.70371199,6.77306667 9.58220036,6.80728889 9.47323345,6.86424444 C8.947339,7.73177778 9.59548301,8.24804444 9.95165474,8.45166667 C10.0943202,8.43773333 10.2291145,8.38811111 10.3452147,8.30964444 L11.7895796,9.04542222 C11.7917934,9.03466667 11.7932692,9.02415556 11.795729,9.0134 C11.8407424,8.83153333 11.9423301,8.67875556 12.0771243,8.56753333 C12.0754025,8.569 12.0736807,8.57022222 12.0719589,8.57168889 L10.6787567,7.86182222 C10.6836762,7.84568889 10.6893336,7.83004444 10.6932692,7.81342222 C10.7791145,7.46753333 10.636695,7.1192 10.361695,6.92388889 L10.6546512,4.29244444 C10.9626118,4.22644444 11.2216234,3.99348889 11.3020572,3.66911111 C11.4144678,3.21591111 11.1360242,2.75806667 10.6799866,2.64635556 C10.4701699,2.59502222 10.2596154,2.62655556 10.0822674,2.7192 C9.55563506,3.58722222 10.204025,4.10348889 10.5604428,4.30711111 Z M10.4864043,7.34066667 C10.558229,7.49686667 10.5496199,7.6538 10.4669723,7.6912 C10.3845707,7.7286 10.2593694,7.63253333 10.1875447,7.47633333 C10.11572,7.32013333 10.1243292,7.1632 10.2069767,7.1258 C10.2896243,7.0884 10.4145796,7.18446667 10.4864043,7.34066667 Z M10.8157648,2.98173333 C10.8981664,2.94433333 11.0233676,3.0404 11.0951923,3.1966 C11.167017,3.3528 11.1584079,3.50973333 11.0757603,3.54713333 C10.9931127,3.58453333 10.8679114,3.48846667 10.7963327,3.33226667 C10.724754,3.17631111 10.7333631,3.01937778 10.8157648,2.98173333 Z" id="Shape" fill="#000000" fill-rule="nonzero"></path>
                    <ellipse id="Oval" fill="#000000" fill-rule="nonzero" transform="translate(10.716616, 3.573806) rotate(65.428958) translate(-10.716616, -3.573806) " cx="10.5298459" cy="3.26496361" rx="1" ry="1"></ellipse>
                    <ellipse id="Oval" fill="#000000" fill-rule="nonzero" opacity="0.2" transform="translate(10.716616, 3.573806) rotate(65.428958) translate(-10.716616, -3.573806) " cx="10.5298459" cy="3.26496361" rx="1" ry="1"></ellipse>
                    <polygon id="Shape" fill="#000000" fill-rule="nonzero" opacity="0.1" points="10.0823855 2.7192 10.0815295 2.71948675"></polygon>
                    <path d="M9.68723166,3.15504444 C9.68403399,3.16286667 9.68034436,3.1702 9.67763864,3.17826667 C9.66730769,3.20637778 9.65845259,3.23497778 9.65107335,3.2648 C9.55268336,3.66177778 9.75438283,4.06266667 10.1125224,4.23084444 C10.1631932,4.25455556 10.2168157,4.27386667 10.273144,4.28755556 C10.3698122,4.31126667 10.4667263,4.3164 10.5604428,4.30711111 C10.204271,4.10348889 9.55563506,3.58697778 10.0825134,2.7192 C10.0822674,2.71944444 10.0820215,2.71944444 10.0817755,2.71968889 C9.90614937,2.81111111 9.76397585,2.96315556 9.68723166,3.15504444 Z" id="Shape" fill="#000000" fill-rule="nonzero"></path>
                    <path d="M9.68723166,3.15504444 C9.68403399,3.16286667 9.68034436,3.1702 9.67763864,3.17826667 C9.66730769,3.20637778 9.65845259,3.23497778 9.65107335,3.2648 C9.55268336,3.66177778 9.75438283,4.06266667 10.1125224,4.23084444 C10.1631932,4.25455556 10.2168157,4.27386667 10.273144,4.28755556 C10.3698122,4.31126667 10.4667263,4.3164 10.5604428,4.30711111 C10.204271,4.10348889 9.55563506,3.58697778 10.0825134,2.7192 C10.0822674,2.71944444 10.0820215,2.71944444 10.0817755,2.71968889 C9.90614937,2.81111111 9.76397585,2.96315556 9.68723166,3.15504444 Z" id="Shape" fill="#000000" fill-rule="nonzero" opacity="0.1"></path>
                    <ellipse id="Oval" fill="#000000" fill-rule="nonzero" transform="translate(10.565273, 7.098883) rotate(-114.558238) translate(-10.565273, -7.098883) " cx="10.3776377" cy="6.79089833" rx="1" ry="1"></ellipse>
                    <ellipse id="Oval" fill="#000000" fill-rule="nonzero" opacity="0.2" transform="translate(10.565273, 7.098883) rotate(-114.558238) translate(-10.565273, -7.098883) " cx="10.3776377" cy="6.79089833" rx="1" ry="1"></ellipse>
                    <path d="M9.7418381,8.44677778 C9.75635063,8.44897778 9.77061717,8.4502 9.78488372,8.45142222 C9.79496869,8.4524 9.80529964,8.45362222 9.81538462,8.45411111 C9.83481664,8.45533333 9.85424866,8.45557778 9.8734347,8.45533333 C9.8773703,8.45533333 9.8813059,8.45533333 9.8852415,8.45533333 C9.90737925,8.45484444 9.92951699,8.45362222 9.95116279,8.45142222 C9.95116279,8.45142222 9.95116279,8.45142222 9.95140877,8.45142222 C9.59523703,8.2478 8.94709302,7.73153333 9.47298748,6.864 C9.47323345,6.86375556 9.47323345,6.86351111 9.47347943,6.86326667 C9.4707737,6.86473333 9.46806798,6.86644444 9.46536225,6.86815556 C9.44273256,6.88037778 9.42034884,6.89308889 9.39894902,6.90702222 C9.39796512,6.90775556 9.39698122,6.90824444 9.39599732,6.90897778 C9.37336762,6.92388889 9.35147585,6.94002222 9.330322,6.95713333 C9.32810823,6.95908889 9.32564848,6.9608 9.3234347,6.96275556 C9.30400268,6.97864444 9.28555456,6.99575556 9.26759839,7.01335556 C9.26415474,7.01677778 9.26071109,7.01995556 9.25726744,7.02362222 C9.24103309,7.04 9.22578265,7.0576 9.21102415,7.07544444 C9.20684258,7.08057778 9.20241503,7.08546667 9.19823345,7.0906 C9.18495081,7.10746667 9.17265206,7.12482222 9.16059928,7.14291111 C9.15592576,7.14975556 9.15125224,7.15635556 9.14682469,7.1632 C9.13600179,7.18031111 9.12616279,7.1984 9.11656977,7.21648889 C9.11214222,7.22455556 9.10746869,7.23237778 9.10353309,7.24068889 C9.09443202,7.25926667 9.08656082,7.27857778 9.07868962,7.29788889 C9.07524597,7.3062 9.07155635,7.31426667 9.06835868,7.32282222 C9.0582737,7.35093333 9.04917263,7.37953333 9.04179338,7.40911111 C9.00612701,7.55333333 9.01006261,7.69804444 9.04671288,7.83175556 C9.09615385,8.01313333 9.2056127,8.17495556 9.35811717,8.28837778 C9.44666816,8.35413333 9.54973166,8.404 9.66386404,8.43186667 C9.68993739,8.43797778 9.71601073,8.44286667 9.7418381,8.44677778 Z" id="Shape" fill="#000000" fill-rule="nonzero"></path>
                    <path d="M9.7418381,8.44677778 C9.75635063,8.44897778 9.77061717,8.4502 9.78488372,8.45142222 C9.79496869,8.4524 9.80529964,8.45362222 9.81538462,8.45411111 C9.83481664,8.45533333 9.85424866,8.45557778 9.8734347,8.45533333 C9.8773703,8.45533333 9.8813059,8.45533333 9.8852415,8.45533333 C9.90737925,8.45484444 9.92951699,8.45362222 9.95116279,8.45142222 C9.95116279,8.45142222 9.95116279,8.45142222 9.95140877,8.45142222 C9.59523703,8.2478 8.94709302,7.73153333 9.47298748,6.864 C9.47323345,6.86375556 9.47323345,6.86351111 9.47347943,6.86326667 C9.4707737,6.86473333 9.46806798,6.86644444 9.46536225,6.86815556 C9.44273256,6.88037778 9.42034884,6.89308889 9.39894902,6.90702222 C9.39796512,6.90775556 9.39698122,6.90824444 9.39599732,6.90897778 C9.37336762,6.92388889 9.35147585,6.94002222 9.330322,6.95713333 C9.32810823,6.95908889 9.32564848,6.9608 9.3234347,6.96275556 C9.30400268,6.97864444 9.28555456,6.99575556 9.26759839,7.01335556 C9.26415474,7.01677778 9.26071109,7.01995556 9.25726744,7.02362222 C9.24103309,7.04 9.22578265,7.0576 9.21102415,7.07544444 C9.20684258,7.08057778 9.20241503,7.08546667 9.19823345,7.0906 C9.18495081,7.10746667 9.17265206,7.12482222 9.16059928,7.14291111 C9.15592576,7.14975556 9.15125224,7.15635556 9.14682469,7.1632 C9.13600179,7.18031111 9.12616279,7.1984 9.11656977,7.21648889 C9.11214222,7.22455556 9.10746869,7.23237778 9.10353309,7.24068889 C9.09443202,7.25926667 9.08656082,7.27857778 9.07868962,7.29788889 C9.07524597,7.3062 9.07155635,7.31426667 9.06835868,7.32282222 C9.0582737,7.35093333 9.04917263,7.37953333 9.04179338,7.40911111 C9.00612701,7.55333333 9.01006261,7.69804444 9.04671288,7.83175556 C9.09615385,8.01313333 9.2056127,8.17495556 9.35811717,8.28837778 C9.44666816,8.35413333 9.54973166,8.404 9.66386404,8.43186667 C9.68993739,8.43797778 9.71601073,8.44286667 9.7418381,8.44677778 Z" id="Shape" fill="#000000" fill-rule="nonzero" opacity="0.1"></path>
                    <path d="M5.45277281,8.70515556 C5.44416369,8.71102222 5.43530859,8.7164 5.42669946,8.72251111 L3.24293381,7.12751111 C3.24588551,7.117 3.24982111,7.10697778 3.25228086,7.09646667 C3.34968694,6.70413333 3.1536449,6.30886667 2.80362254,6.13702222 L3.11773256,3.31466667 C3.4237254,3.24744444 3.68101521,3.01522222 3.76095707,2.69231111 C3.77940519,2.61824444 3.78629249,2.54417778 3.78457066,2.47133333 L6.23989267,1.40091111 C6.11838104,1.26255556 6.04335868,1.0868 6.0313059,0.899555556 L3.59713775,1.96068889 C3.48448122,1.82111111 3.32705725,1.71551111 3.1388864,1.66931111 C2.92906977,1.61797778 2.71851521,1.64951111 2.54116726,1.74215556 C2.01428891,2.61017778 2.66292487,3.12668889 3.01934258,3.33031111 C2.92538014,3.3396 2.82871199,3.33422222 2.73204383,3.31051111 C2.67719141,3.29706667 2.62479875,3.27824444 2.57535778,3.25551111 L2.26247764,6.06564444 C2.18155188,6.08153333 2.10431574,6.10915556 2.03224508,6.14655556 C1.5056127,7.01433333 2.15424866,7.5306 2.51042039,7.73422222 C2.66440072,7.71906667 2.81001789,7.66308889 2.93202147,7.57362222 L5.11062165,9.16471111 C5.16940966,8.96988889 5.29313506,8.81075556 5.45277281,8.70515556 Z M3.27491055,2.00468889 C3.35755814,1.96728889 3.48251342,2.06335556 3.5543381,2.21955556 C3.62616279,2.37575556 3.61755367,2.53268889 3.53490608,2.57008889 C3.4522585,2.60748889 3.32730322,2.51142222 3.25547853,2.35522222 C3.18365385,2.19926667 3.19226297,2.04233333 3.27491055,2.00468889 Z M3.0259839,6.97424444 C2.94333631,7.01164444 2.81838104,6.91557778 2.74655635,6.75937778 C2.67473166,6.60317778 2.68334079,6.44624444 2.76598837,6.40884444 C2.84863596,6.3712 2.97359123,6.46751111 3.04541592,6.62371111 C3.11724061,6.77991111 3.10863148,6.93684444 3.0259839,6.97424444 Z" id="Shape" fill="#000000" fill-rule="nonzero"></path>
                    <ellipse id="Oval" fill="#000000" fill-rule="nonzero" transform="translate(6.164090, 9.515376) rotate(65.431340) translate(-6.164090, -9.515376) " cx="5.97735038" cy="9.20654863" rx="1" ry="1"></ellipse>
                    <ellipse id="Oval" fill="#000000" fill-rule="nonzero" opacity="0.2" transform="translate(6.164090, 9.515376) rotate(65.431340) translate(-6.164090, -9.515376) " cx="5.97735038" cy="9.20654863" rx="1" ry="1"></ellipse>
                    <path d="M6.00793828,10.2476 C5.65176655,10.0439778 5.00313059,9.52746667 5.53000894,8.65968889 C5.53000894,8.65968889 5.52976297,8.65968889 5.52976297,8.65968889 C5.50418157,8.67313333 5.4793381,8.68755556 5.45547853,8.70344444 C5.45474061,8.70393333 5.45375671,8.70442222 5.45301878,8.70515556 C5.29338104,8.81075556 5.16965564,8.96988889 5.11086762,9.16471111 C5.10693202,9.17815556 5.1022585,9.19135556 5.09881485,9.20504444 C5.00017889,9.60275556 5.20261628,10.0038889 5.56173971,10.1718222 C5.6119186,10.1952889 5.66504919,10.2143556 5.72088551,10.2280444 C5.81730769,10.2517556 5.91422182,10.2568889 6.00793828,10.2476 Z" id="Shape" fill="#000000" fill-rule="nonzero"></path>
                    <path d="M6.00793828,10.2476 C5.65176655,10.0439778 5.00313059,9.52746667 5.53000894,8.65968889 C5.53000894,8.65968889 5.52976297,8.65968889 5.52976297,8.65968889 C5.50418157,8.67313333 5.4793381,8.68755556 5.45547853,8.70344444 C5.45474061,8.70393333 5.45375671,8.70442222 5.45301878,8.70515556 C5.29338104,8.81075556 5.16965564,8.96988889 5.11086762,9.16471111 C5.10693202,9.17815556 5.1022585,9.19135556 5.09881485,9.20504444 C5.00017889,9.60275556 5.20261628,10.0038889 5.56173971,10.1718222 C5.6119186,10.1952889 5.66504919,10.2143556 5.72088551,10.2280444 C5.81730769,10.2517556 5.91422182,10.2568889 6.00793828,10.2476 Z" id="Shape" fill="#000000" fill-rule="nonzero" opacity="0.1"></path>
                    <ellipse id="Oval" fill="#000000" fill-rule="nonzero" transform="translate(3.124214, 6.380753) rotate(-114.568660) translate(-3.124214, -6.380753) " cx="2.93659514" cy="6.07279225" rx="1" ry="1"></ellipse>
                    <ellipse id="Oval" fill="#000000" fill-rule="nonzero" opacity="0.2" transform="translate(3.124214, 6.380753) rotate(-114.568660) translate(-3.124214, -6.380753) " cx="2.93659514" cy="6.07279225" rx="1" ry="1"></ellipse>
                    <polygon id="Shape" fill="#000000" fill-rule="nonzero" opacity="0.1" points="2.51074508 7.73422222 2.51074508 7.73422222 2.51017442 7.73422222"></polygon>
                    <path d="M2.03224508,6.14655556 C2.03224508,6.14655556 2.03224508,6.14631111 2.03249106,6.14631111 C2.03175313,6.14655556 2.03126118,6.14704444 2.03052326,6.14728889 C2.00567979,6.16024444 1.98157424,6.17442222 1.95820662,6.18982222 C1.95697674,6.19055556 1.95574687,6.19128889 1.95476297,6.19226667 C1.93237925,6.20717778 1.91073345,6.22306667 1.88982558,6.23993333 C1.88736583,6.24188889 1.88490608,6.24384444 1.88244633,6.2458 C1.86326029,6.26168889 1.84481216,6.27855556 1.82710197,6.29615556 C1.82365832,6.29957778 1.81996869,6.303 1.81652504,6.30666667 C1.8002907,6.32304444 1.78504025,6.3404 1.77028175,6.35824444 C1.76610018,6.36337778 1.76167263,6.36826667 1.75749106,6.3734 C1.74420841,6.39026667 1.73166369,6.40786667 1.71961091,6.42595556 C1.71518336,6.43255556 1.71050984,6.43915556 1.70608229,6.44575556 C1.69501342,6.46311111 1.68517442,6.48144444 1.67533542,6.49977778 C1.67115385,6.5076 1.66648032,6.51517778 1.66254472,6.52324444 C1.65319767,6.54206667 1.64532648,6.56186667 1.6372093,6.58166667 C1.63401163,6.58973333 1.630322,6.59731111 1.6273703,6.60537778 C1.61703936,6.63348889 1.60818426,6.66208889 1.60080501,6.69166667 C1.48839445,7.14486667 1.7668381,7.60271111 2.22287567,7.71442222 C2.24870304,7.72077778 2.27477639,7.72542222 2.30060376,7.72933333 C2.31511628,7.73153333 2.3296288,7.73275556 2.34414132,7.73397778 C2.3542263,7.73495556 2.36431127,7.73617778 2.37439624,7.73666667 C2.39382826,7.73788889 2.41326029,7.73813333 2.43269231,7.73788889 C2.43662791,7.73788889 2.44056351,7.73788889 2.44425313,7.73788889 C2.46639088,7.7374 2.48828265,7.73617778 2.51017442,7.73397778 C2.51017442,7.73397778 2.51042039,7.73397778 2.51042039,7.73397778 C2.15424866,7.5306 1.50585868,7.01433333 2.03224508,6.14655556 Z" id="Shape" fill="#000000" fill-rule="nonzero"></path>
                    <path d="M2.03224508,6.14655556 C2.03224508,6.14655556 2.03224508,6.14631111 2.03249106,6.14631111 C2.03175313,6.14655556 2.03126118,6.14704444 2.03052326,6.14728889 C2.00567979,6.16024444 1.98157424,6.17442222 1.95820662,6.18982222 C1.95697674,6.19055556 1.95574687,6.19128889 1.95476297,6.19226667 C1.93237925,6.20717778 1.91073345,6.22306667 1.88982558,6.23993333 C1.88736583,6.24188889 1.88490608,6.24384444 1.88244633,6.2458 C1.86326029,6.26168889 1.84481216,6.27855556 1.82710197,6.29615556 C1.82365832,6.29957778 1.81996869,6.303 1.81652504,6.30666667 C1.8002907,6.32304444 1.78504025,6.3404 1.77028175,6.35824444 C1.76610018,6.36337778 1.76167263,6.36826667 1.75749106,6.3734 C1.74420841,6.39026667 1.73166369,6.40786667 1.71961091,6.42595556 C1.71518336,6.43255556 1.71050984,6.43915556 1.70608229,6.44575556 C1.69501342,6.46311111 1.68517442,6.48144444 1.67533542,6.49977778 C1.67115385,6.5076 1.66648032,6.51517778 1.66254472,6.52324444 C1.65319767,6.54206667 1.64532648,6.56186667 1.6372093,6.58166667 C1.63401163,6.58973333 1.630322,6.59731111 1.6273703,6.60537778 C1.61703936,6.63348889 1.60818426,6.66208889 1.60080501,6.69166667 C1.48839445,7.14486667 1.7668381,7.60271111 2.22287567,7.71442222 C2.24870304,7.72077778 2.27477639,7.72542222 2.30060376,7.72933333 C2.31511628,7.73153333 2.3296288,7.73275556 2.34414132,7.73397778 C2.3542263,7.73495556 2.36431127,7.73617778 2.37439624,7.73666667 C2.39382826,7.73788889 2.41326029,7.73813333 2.43269231,7.73788889 C2.43662791,7.73788889 2.44056351,7.73788889 2.44425313,7.73788889 C2.46639088,7.7374 2.48828265,7.73617778 2.51017442,7.73397778 C2.51017442,7.73397778 2.51042039,7.73397778 2.51042039,7.73397778 C2.15424866,7.5306 1.50585868,7.01433333 2.03224508,6.14655556 Z" id="Shape" fill="#000000" fill-rule="nonzero" opacity="0.1"></path>
                    <ellipse id="Oval" fill="#000000" fill-rule="nonzero" transform="translate(3.175761, 2.597833) rotate(65.431340) translate(-3.175761, -2.597833) " cx="2.98902188" cy="2.28900559" rx="1" ry="1"></ellipse>
                    <ellipse id="Oval" fill="#000000" fill-rule="nonzero" opacity="0.2" transform="translate(3.175761, 2.597833) rotate(65.431340) translate(-3.175761, -2.597833) " cx="2.98902188" cy="2.28900559" rx="1" ry="1"></ellipse>
                    <polygon id="Shape" fill="#000000" fill-rule="nonzero" opacity="0.1" points="2.54149195 1.74215556 2.54092129 1.74244231"></polygon>
                    <path d="M3.01934258,3.33031111 C2.66317084,3.12668889 2.01453488,2.61017778 2.54116726,1.74215556 C2.54092129,1.74215556 2.54092129,1.7424 2.54067531,1.7424 C2.51533989,1.7556 2.49098837,1.77002222 2.4671288,1.78566667 C2.46589893,1.7864 2.46466905,1.78737778 2.4631932,1.78835556 C2.44080948,1.80326667 2.41916369,1.81915556 2.39825581,1.83602222 C2.39579606,1.83797778 2.39333631,1.83993333 2.39112254,1.84188889 C2.37169052,1.85777778 2.3532424,1.87488889 2.33528623,1.89248889 C2.33184258,1.89591111 2.32839893,1.89908889 2.32520125,1.90251111 C2.30896691,1.91913333 2.29347048,1.93673333 2.27846601,1.95482222 C2.27453041,1.95971111 2.27034884,1.96435556 2.26641324,1.96948889 C2.25288462,1.9866 2.24009392,2.00468889 2.22804114,2.02302222 C2.22385957,2.02937778 2.21918605,2.03548889 2.21525045,2.04208889 C2.2039356,2.05993333 2.19385063,2.07851111 2.18401163,2.09708889 C2.18007603,2.10466667 2.17564848,2.11175556 2.17195886,2.11957778 C2.16236583,2.13888889 2.15424866,2.15917778 2.14613148,2.17946667 C2.14317979,2.18704444 2.13949016,2.19413333 2.13678444,2.20171111 C2.12645349,2.22982222 2.11759839,2.25866667 2.11021914,2.28824444 C2.01133721,2.68668889 2.21500447,3.0888 2.57584973,3.256 C2.6252907,3.27897778 2.67743739,3.29755556 2.73253578,3.311 C2.82871199,3.33422222 2.92562612,3.33935556 3.01934258,3.33031111 Z" id="Shape" fill="#000000" fill-rule="nonzero"></path>
                    <path d="M3.01934258,3.33031111 C2.66317084,3.12668889 2.01453488,2.61017778 2.54116726,1.74215556 C2.54092129,1.74215556 2.54092129,1.7424 2.54067531,1.7424 C2.51533989,1.7556 2.49098837,1.77002222 2.4671288,1.78566667 C2.46589893,1.7864 2.46466905,1.78737778 2.4631932,1.78835556 C2.44080948,1.80326667 2.41916369,1.81915556 2.39825581,1.83602222 C2.39579606,1.83797778 2.39333631,1.83993333 2.39112254,1.84188889 C2.37169052,1.85777778 2.3532424,1.87488889 2.33528623,1.89248889 C2.33184258,1.89591111 2.32839893,1.89908889 2.32520125,1.90251111 C2.30896691,1.91913333 2.29347048,1.93673333 2.27846601,1.95482222 C2.27453041,1.95971111 2.27034884,1.96435556 2.26641324,1.96948889 C2.25288462,1.9866 2.24009392,2.00468889 2.22804114,2.02302222 C2.22385957,2.02937778 2.21918605,2.03548889 2.21525045,2.04208889 C2.2039356,2.05993333 2.19385063,2.07851111 2.18401163,2.09708889 C2.18007603,2.10466667 2.17564848,2.11175556 2.17195886,2.11957778 C2.16236583,2.13888889 2.15424866,2.15917778 2.14613148,2.17946667 C2.14317979,2.18704444 2.13949016,2.19413333 2.13678444,2.20171111 C2.12645349,2.22982222 2.11759839,2.25866667 2.11021914,2.28824444 C2.01133721,2.68668889 2.21500447,3.0888 2.57584973,3.256 C2.6252907,3.27897778 2.67743739,3.29755556 2.73253578,3.311 C2.82871199,3.33422222 2.92562612,3.33935556 3.01934258,3.33031111 Z" id="Shape" fill="#000000" fill-rule="nonzero" opacity="0.1"></path>
                    <path d="M6.96428891,1.68544444 C7.1381932,1.66833333 7.30102862,1.59817778 7.43164132,1.48768889 L9.69362701,3.13964444 C9.69141324,3.14477778 9.68919946,3.14991111 9.68723166,3.15504444 C9.76397585,2.96291111 9.90614937,2.81111111 10.0817755,2.71944444 C10.0736583,2.7236 10.0657871,2.728 10.0579159,2.7324 L7.7118068,1.01908889 C7.80576923,0.575422222 7.53052326,0.133955556 7.08407871,0.0244444444 C6.87426208,-0.0268888889 6.66370751,0.00464444444 6.48635957,0.0972888889 C5.95948122,0.965311111 6.6078712,1.48182222 6.96428891,1.68544444 Z M7.21961091,0.359822222 C7.3022585,0.322422222 7.42721377,0.418488889 7.49903846,0.574688889 C7.57086315,0.730888889 7.56225403,0.887822222 7.47960644,0.925222222 C7.39695886,0.962866667 7.27200358,0.866555556 7.20017889,0.710355556 C7.1283542,0.5544 7.1372093,0.397466667 7.21961091,0.359822222 Z" id="Shape" fill="#000000" fill-rule="nonzero"></path>
                    <ellipse id="Oval" fill="#000000" fill-rule="nonzero" transform="translate(7.120587, 0.953023) rotate(65.431340) translate(-7.120587, -0.953023) " cx="6.93384771" cy="0.644195957" rx="1" ry="1"></ellipse>
                    <ellipse id="Oval" fill="#000000" fill-rule="nonzero" opacity="0.2" transform="translate(7.120587, 0.953023) rotate(65.431340) translate(-7.120587, -0.953023) " cx="6.93384771" cy="0.644195957" rx="1" ry="1"></ellipse>
                    <polygon id="Shape" fill="#000000" fill-rule="nonzero" opacity="0.1" points="6.96432826 1.68544444 6.96404293 1.68544444"></polygon>
                    <polygon id="Shape" fill="#000000" fill-rule="nonzero" opacity="0.1" points="6.48619231 0.0972888889 6.48562165 0.097575641"></polygon>
                    <path d="M6.67699016,1.66564444 C6.70281753,1.672 6.72889088,1.67688889 6.75471825,1.68055556 C6.76923077,1.68275556 6.78349732,1.68373333 6.79800984,1.6852 C6.80809481,1.68617778 6.81842576,1.6874 6.82851073,1.68788889 C6.84794275,1.68911111 6.86737478,1.68935556 6.88656082,1.68911111 C6.89049642,1.68911111 6.89443202,1.68911111 6.89836762,1.68911111 C6.92050537,1.68862222 6.94239714,1.6874 6.96428891,1.6852 C6.96428891,1.6852 6.96428891,1.6852 6.96453488,1.6852 C6.60836315,1.48157778 5.95972719,0.965066667 6.48635957,0.0970444444 C6.4861136,0.0970444444 6.48586762,0.0972888889 6.48586762,0.0972888889 C6.46077818,0.110488889 6.43642665,0.124911111 6.41256708,0.140311111 C6.41109123,0.141288889 6.40961538,0.142266667 6.40813953,0.143244444 C6.38600179,0.157911111 6.36460197,0.1738 6.3436941,0.190422222 C6.34098837,0.192622222 6.33852862,0.194577778 6.3358229,0.196777778 C6.31663685,0.212666667 6.2984347,0.229288889 6.28072451,0.246644444 C6.27703488,0.250066667 6.27359123,0.253733333 6.27014758,0.257155556 C6.25415921,0.273533333 6.23866279,0.290888889 6.22390429,0.308733333 C6.21972272,0.313866667 6.21529517,0.318755556 6.2111136,0.324133333 C6.19783095,0.341 6.18528623,0.3586 6.17323345,0.376688889 C6.1688059,0.383288889 6.16413238,0.389888889 6.15970483,0.396488889 C6.14863596,0.413844444 6.13879696,0.432177778 6.12895796,0.450511111 C6.12477639,0.458333333 6.12010286,0.465911111 6.11616726,0.473977778 C6.10682021,0.4928 6.09870304,0.5126 6.09083184,0.5324 C6.08763417,0.540222222 6.08394454,0.5478 6.08099284,0.556111111 C6.0706619,0.584222222 6.0618068,0.612822222 6.05442755,0.6424 C6.03302773,0.728688889 6.02589445,0.814977778 6.0313059,0.899066667 C6.04335868,1.08631111 6.11862701,1.26206667 6.23989267,1.40042222 C6.35131932,1.52728889 6.50062612,1.62262222 6.67699016,1.66564444 Z" id="Shape" fill="#000000" fill-rule="nonzero"></path>
                    <path d="M6.67699016,1.66564444 C6.70281753,1.672 6.72889088,1.67688889 6.75471825,1.68055556 C6.76923077,1.68275556 6.78349732,1.68373333 6.79800984,1.6852 C6.80809481,1.68617778 6.81842576,1.6874 6.82851073,1.68788889 C6.84794275,1.68911111 6.86737478,1.68935556 6.88656082,1.68911111 C6.89049642,1.68911111 6.89443202,1.68911111 6.89836762,1.68911111 C6.92050537,1.68862222 6.94239714,1.6874 6.96428891,1.6852 C6.96428891,1.6852 6.96428891,1.6852 6.96453488,1.6852 C6.60836315,1.48157778 5.95972719,0.965066667 6.48635957,0.0970444444 C6.4861136,0.0970444444 6.48586762,0.0972888889 6.48586762,0.0972888889 C6.46077818,0.110488889 6.43642665,0.124911111 6.41256708,0.140311111 C6.41109123,0.141288889 6.40961538,0.142266667 6.40813953,0.143244444 C6.38600179,0.157911111 6.36460197,0.1738 6.3436941,0.190422222 C6.34098837,0.192622222 6.33852862,0.194577778 6.3358229,0.196777778 C6.31663685,0.212666667 6.2984347,0.229288889 6.28072451,0.246644444 C6.27703488,0.250066667 6.27359123,0.253733333 6.27014758,0.257155556 C6.25415921,0.273533333 6.23866279,0.290888889 6.22390429,0.308733333 C6.21972272,0.313866667 6.21529517,0.318755556 6.2111136,0.324133333 C6.19783095,0.341 6.18528623,0.3586 6.17323345,0.376688889 C6.1688059,0.383288889 6.16413238,0.389888889 6.15970483,0.396488889 C6.14863596,0.413844444 6.13879696,0.432177778 6.12895796,0.450511111 C6.12477639,0.458333333 6.12010286,0.465911111 6.11616726,0.473977778 C6.10682021,0.4928 6.09870304,0.5126 6.09083184,0.5324 C6.08763417,0.540222222 6.08394454,0.5478 6.08099284,0.556111111 C6.0706619,0.584222222 6.0618068,0.612822222 6.05442755,0.6424 C6.03302773,0.728688889 6.02589445,0.814977778 6.0313059,0.899066667 C6.04335868,1.08631111 6.11862701,1.26206667 6.23989267,1.40042222 C6.35131932,1.52728889 6.50062612,1.62262222 6.67699016,1.66564444 Z" id="Shape" fill="#000000" fill-rule="nonzero" opacity="0.1"></path>
                    <path d="M18.7324687,14.5571556 L16.2874776,15.6231778 C16.1738372,15.4738222 16.0102639,15.3608889 15.8132379,15.3124889 C15.6034213,15.2611556 15.3928667,15.2926889 15.2155188,15.3853333 C14.6886404,16.2531111 15.3372764,16.7696222 15.6936941,16.9734889 C16.0419946,16.9390222 16.3470036,16.6923778 16.4355546,16.3354889 C16.4517889,16.2702222 16.4589222,16.2049556 16.4594141,16.1406667 L19.043873,15.0140222 C18.8913685,14.9001111 18.7821556,14.7385333 18.7324687,14.5571556 Z M16.2092576,16.2130222 C16.12661,16.2504222 16.0014088,16.1543556 15.9298301,15.9981556 C15.8580054,15.8419556 15.8668605,15.6850222 15.9492621,15.6473778 C16.0319097,15.6099778 16.1568649,15.7060444 16.2286896,15.8622444 C16.3002683,16.0186889 16.2916592,16.1756222 16.2092576,16.2130222 Z" id="Shape" fill="#000000" fill-rule="nonzero"></path>
                    <path d="M16.6497987,8.41084444 C16.823703,8.39373333 16.9865385,8.32357778 17.1171512,8.21308889 L19.3791369,9.86504444 C19.3769231,9.87017778 19.3747093,9.87531111 19.3727415,9.88044444 C19.4480098,9.69197778 19.5864937,9.54262222 19.7574463,9.45046667 C19.7527728,9.45291111 19.7478533,9.45511111 19.7434258,9.45755556 L17.3973166,7.74424444 C17.491525,7.30033333 17.2162791,6.85911111 16.7698345,6.74984444 C16.5597719,6.69851111 16.3494633,6.73004444 16.1718694,6.82268889 C15.6449911,7.69071111 16.293627,8.20722222 16.6497987,8.41084444 Z M16.9053667,7.08522222 C16.9880143,7.04782222 17.1129696,7.14388889 17.1847943,7.30008889 C17.256619,7.45628889 17.2480098,7.61322222 17.1653623,7.65062222 C17.0829606,7.68802222 16.9577594,7.59195556 16.8859347,7.43575556 C16.81411,7.27955556 16.8227191,7.12286667 16.9053667,7.08522222 Z" id="Shape" fill="#000000" fill-rule="nonzero"></path>
                    <path d="M20.3657424,9.37175556 C20.1554338,9.32017778 19.9448792,9.35268889 19.7672853,9.44557778 C19.2416369,10.3128667 19.8897809,10.8288889 20.2459526,11.0325111 C20.1522361,11.0418 20.055322,11.0364222 19.9586538,11.0127111 C19.9023256,10.9987778 19.8484571,10.9797111 19.7980322,10.956 L19.515653,13.4926 C19.3894678,13.4982222 19.2679562,13.5319556 19.1589893,13.5889111 C18.6323569,14.4566889 19.2807469,14.9732 19.6369186,15.1768222 C19.9854651,15.1426 20.2904741,14.8962 20.379025,14.5390667 C20.4648703,14.1931778 20.3224508,13.8448444 20.0474508,13.6495333 L20.340407,11.0183333 C20.6483676,10.9525778 20.9076252,10.7193778 20.988059,10.395 C21.1002236,9.94155556 20.82178,9.48346667 20.3657424,9.37175556 Z M20.1721601,14.0663111 C20.2439848,14.2225111 20.2353757,14.3794444 20.1527281,14.4168444 C20.0703265,14.4544889 19.9451252,14.3581778 19.8730546,14.2019778 C19.8012299,14.0460222 19.809839,13.8888444 19.8924866,13.8514444 C19.9751342,13.8138 20.1003354,13.9101111 20.1721601,14.0663111 Z M20.7617621,10.2727778 C20.6791145,10.3101778 20.5539132,10.2141111 20.4820886,10.0579111 C20.4102639,9.90171111 20.419119,9.74477778 20.5015206,9.70737778 C20.5839222,9.66997778 20.7091234,9.76604444 20.7809481,9.92224444 C20.8527728,10.0782 20.8441637,10.2351333 20.7617621,10.2727778 Z" id="Shape" fill="#000000" fill-rule="nonzero"></path>
                    <ellipse id="Oval" fill="#000000" fill-rule="nonzero" transform="translate(20.859430, 9.680666) rotate(-114.571042) translate(-20.859430, -9.680666) " cx="20.6717802" cy="9.37269" rx="1" ry="1"></ellipse>
                    <ellipse id="Oval" fill="#000000" fill-rule="nonzero" opacity="0.2" transform="translate(20.859430, 9.680666) rotate(-114.571042) translate(-20.859430, -9.680666) " cx="20.6717802" cy="9.37269" rx="1" ry="1"></ellipse>
                    <path d="M19.3727415,9.88068889 C19.3695438,9.88851111 19.3661002,9.89584444 19.3631485,9.90366667 C19.3528175,9.93177778 19.3439624,9.96037778 19.3365832,9.9902 C19.2381932,10.3874222 19.4398927,10.7880667 19.7980322,10.9562444 C19.848703,10.9799556 19.9023256,10.9992667 19.9586538,11.0129556 C20.055322,11.0366667 20.1522361,11.0418 20.2459526,11.0327556 C19.8897809,10.8291333 19.2416369,10.3131111 19.7672853,9.44582222 C19.7675313,9.44557778 19.7677773,9.44508889 19.7680233,9.44484444 C19.7643336,9.4468 19.76089,9.449 19.7572004,9.45095556 C19.5864937,9.54286667 19.4480098,9.69222222 19.3727415,9.88068889 Z" id="Shape" fill="#000000" fill-rule="nonzero"></path>
                    <path d="M19.3727415,9.88068889 C19.3695438,9.88851111 19.3661002,9.89584444 19.3631485,9.90366667 C19.3528175,9.93177778 19.3439624,9.96037778 19.3365832,9.9902 C19.2381932,10.3874222 19.4398927,10.7880667 19.7980322,10.9562444 C19.848703,10.9799556 19.9023256,10.9992667 19.9586538,11.0129556 C20.055322,11.0366667 20.1522361,11.0418 20.2459526,11.0327556 C19.8897809,10.8291333 19.2416369,10.3131111 19.7672853,9.44582222 C19.7675313,9.44557778 19.7677773,9.44508889 19.7680233,9.44484444 C19.7643336,9.4468 19.76089,9.449 19.7572004,9.45095556 C19.5864937,9.54286667 19.4480098,9.69222222 19.3727415,9.88068889 Z" id="Shape" fill="#000000" fill-rule="nonzero" opacity="0.1"></path>
                    <ellipse id="Oval" fill="#000000" fill-rule="nonzero" transform="translate(20.249879, 13.823601) rotate(-114.563449) translate(-20.249879, -13.823601) " cx="20.062252" cy="13.515628" rx="1" ry="1"></ellipse>
                    <ellipse id="Oval" fill="#000000" fill-rule="nonzero" opacity="0.2" transform="translate(20.249879, 13.823601) rotate(-114.563449) translate(-20.249879, -13.823601) " cx="20.062252" cy="13.515628" rx="1" ry="1"></ellipse>
                    <polygon id="Shape" fill="#000000" fill-rule="nonzero" opacity="0.1" points="19.1577594 13.5898137 19.159186 13.5889534 19.159186 13.5886667"></polygon>
                    <path d="M19.1589893,13.5889111 C19.1584973,13.5891556 19.1580054,13.5894 19.1577594,13.5896444 C19.1329159,13.6026 19.1088104,13.6167778 19.0854428,13.6321778 C19.0839669,13.6331556 19.0824911,13.6341333 19.0810152,13.6351111 C19.0588775,13.6497778 19.0372317,13.6656667 19.0165698,13.6825333 C19.01411,13.6844889 19.0116503,13.6864444 19.0091905,13.6886444 C18.9900045,13.7045333 18.9715564,13.7214 18.9536002,13.739 C18.9501565,13.7424222 18.9467129,13.7458444 18.9432692,13.7492667 C18.9270349,13.7658889 18.9117844,13.7832444 18.89678,13.8010889 C18.8925984,13.8062222 18.8884168,13.8108667 18.8842352,13.816 C18.8709526,13.8328667 18.8584079,13.8507111 18.8463551,13.8685556 C18.8419275,13.8751556 18.837254,13.8815111 18.8328265,13.8883556 C18.8220036,13.9057111 18.8119186,13.9238 18.8023256,13.9421333 C18.798144,13.9502 18.7934705,13.9577778 18.7895349,13.9658444 C18.7804338,13.9846667 18.7723166,14.0039778 18.7644454,14.0235333 C18.7612478,14.0316 18.7573122,14.0394222 18.7543605,14.0477333 C18.7442755,14.0758444 18.7351744,14.1044444 18.7277952,14.1340222 C18.6921288,14.2782444 18.6960644,14.4229556 18.7327147,14.5566667 C18.7821556,14.7380444 18.8916145,14.8998667 19.044119,15.0132889 C19.1326699,15.0790444 19.2357335,15.1289111 19.3498658,15.1567778 C19.3756932,15.1631333 19.4015206,15.1677778 19.4273479,15.1716889 C19.4421064,15.1738889 19.456619,15.1751111 19.4713775,15.1763333 C19.4812165,15.1773111 19.4913014,15.1782889 19.5011404,15.1790222 C19.5208184,15.1802444 19.5404964,15.1804889 19.5599284,15.1802444 C19.5636181,15.1802444 19.5670617,15.1802444 19.5705054,15.1802444 C19.5928891,15.1797556 19.6150268,15.1785333 19.6371646,15.1763333 C19.6371646,15.1763333 19.6371646,15.1763333 19.6369186,15.1763333 C19.2807469,14.9732 18.6323569,14.4566889 19.1589893,13.5889111 Z" id="Shape" fill="#000000" fill-rule="nonzero"></path>
                    <path d="M19.1589893,13.5889111 C19.1584973,13.5891556 19.1580054,13.5894 19.1577594,13.5896444 C19.1329159,13.6026 19.1088104,13.6167778 19.0854428,13.6321778 C19.0839669,13.6331556 19.0824911,13.6341333 19.0810152,13.6351111 C19.0588775,13.6497778 19.0372317,13.6656667 19.0165698,13.6825333 C19.01411,13.6844889 19.0116503,13.6864444 19.0091905,13.6886444 C18.9900045,13.7045333 18.9715564,13.7214 18.9536002,13.739 C18.9501565,13.7424222 18.9467129,13.7458444 18.9432692,13.7492667 C18.9270349,13.7658889 18.9117844,13.7832444 18.89678,13.8010889 C18.8925984,13.8062222 18.8884168,13.8108667 18.8842352,13.816 C18.8709526,13.8328667 18.8584079,13.8507111 18.8463551,13.8685556 C18.8419275,13.8751556 18.837254,13.8815111 18.8328265,13.8883556 C18.8220036,13.9057111 18.8119186,13.9238 18.8023256,13.9421333 C18.798144,13.9502 18.7934705,13.9577778 18.7895349,13.9658444 C18.7804338,13.9846667 18.7723166,14.0039778 18.7644454,14.0235333 C18.7612478,14.0316 18.7573122,14.0394222 18.7543605,14.0477333 C18.7442755,14.0758444 18.7351744,14.1044444 18.7277952,14.1340222 C18.6921288,14.2782444 18.6960644,14.4229556 18.7327147,14.5566667 C18.7821556,14.7380444 18.8916145,14.8998667 19.044119,15.0132889 C19.1326699,15.0790444 19.2357335,15.1289111 19.3498658,15.1567778 C19.3756932,15.1631333 19.4015206,15.1677778 19.4273479,15.1716889 C19.4421064,15.1738889 19.456619,15.1751111 19.4713775,15.1763333 C19.4812165,15.1773111 19.4913014,15.1782889 19.5011404,15.1790222 C19.5208184,15.1802444 19.5404964,15.1804889 19.5599284,15.1802444 C19.5636181,15.1802444 19.5670617,15.1802444 19.5705054,15.1802444 C19.5928891,15.1797556 19.6150268,15.1785333 19.6371646,15.1763333 C19.6371646,15.1763333 19.6371646,15.1763333 19.6369186,15.1763333 C19.2807469,14.9732 18.6323569,14.4566889 19.1589893,13.5889111 Z" id="Shape" fill="#000000" fill-rule="nonzero" opacity="0.1"></path>
                    <path d="M15.1382826,15.4308 C15.1296735,15.4364222 15.1208184,15.4420444 15.1124553,15.4479111 L12.9286896,13.8529111 C12.9316413,13.8424 12.9355769,13.8323778 12.9380367,13.8218667 C13.0354428,13.4297778 12.8394007,13.0342667 12.4893784,12.8624222 L12.8037343,10.0400667 C13.1097272,9.97284444 13.366771,9.74062222 13.4469589,9.41771111 C13.465407,9.34364444 13.4722943,9.26957778 13.4705725,9.19673333 L15.9258945,8.12631111 C15.8043828,7.98795556 15.7293605,7.8122 15.7173077,7.62495556 L13.2831395,8.68608889 C13.170483,8.54651111 13.013059,8.44091111 12.8248882,8.39471111 C12.6150716,8.34337778 12.404517,8.37491111 12.2271691,8.46731111 C11.7002907,9.33533333 12.3486807,9.85184444 12.7050984,10.0554667 C12.611136,10.0647556 12.5144678,10.0593778 12.4177996,10.0356667 C12.3629472,10.0222222 12.3105546,10.0034 12.2611136,9.98066667 L11.9482335,12.7908 C11.8673077,12.8066889 11.7900716,12.8343111 11.7180009,12.8717111 C11.1933363,13.7365556 11.8355769,14.2523333 12.1924866,14.4571778 C12.3476968,14.4425111 12.4947898,14.3887333 12.6177773,14.2987778 L14.7963775,15.8898667 C14.8549195,15.6952889 14.9786449,15.5361556 15.1382826,15.4308 Z M12.9604204,8.73008889 C13.042822,8.69268889 13.1680233,8.78875556 13.2398479,8.94495556 C13.3116726,9.10115556 13.3030635,9.25808889 13.2204159,9.29548889 C13.1380143,9.33288889 13.0128131,9.23682222 12.9409884,9.08062222 C12.8691637,8.92466667 12.8780188,8.76773333 12.9604204,8.73008889 Z M12.7117397,13.6996444 C12.6290921,13.7372889 12.5038909,13.6409778 12.4323122,13.4847778 C12.3602415,13.3285778 12.3690966,13.1716444 12.4514982,13.1342444 C12.5341458,13.0966 12.6591011,13.1929111 12.7311717,13.3491111 C12.8029964,13.5053111 12.7941413,13.6622444 12.7117397,13.6996444 Z" id="Shape" fill="#000000" fill-rule="nonzero"></path>
                    <ellipse id="Oval" fill="#000000" fill-rule="nonzero" transform="translate(16.307618, 15.620078) rotate(-114.563449) translate(-16.307618, -15.620078) " cx="16.1199912" cy="15.3121051" rx="1" ry="1"></ellipse>
                    <ellipse id="Oval" fill="#000000" fill-rule="nonzero" opacity="0.2" transform="translate(16.307618, 15.620078) rotate(-114.563449) translate(-16.307618, -15.620078) " cx="16.1199912" cy="15.3121051" rx="1" ry="1"></ellipse>
                    <polygon id="Shape" fill="#000000" fill-rule="nonzero" opacity="0.1" points="15.6937335 16.9732868 15.6937335 16.973 15.6934481 16.9732868"></polygon>
                    <path d="M15.2155188,15.3850889 C15.2155188,15.3850889 15.2155188,15.3850889 15.2155188,15.3850889 C15.2155188,15.3850889 15.2155188,15.3850889 15.2155188,15.3850889 C15.1899374,15.3985333 15.1650939,15.4132 15.1409884,15.4288444 C15.1400045,15.4293333 15.1392665,15.4300667 15.1382826,15.4305556 C14.9786449,15.5361556 14.8549195,15.6952889 14.7961315,15.8898667 C14.7919499,15.9033111 14.7875224,15.9165111 14.7840787,15.9304444 C14.6716682,16.3836444 14.9503578,16.8414889 15.4061494,16.9532 C15.4319767,16.9595556 15.4578041,16.9642 15.4836315,16.9681111 C15.498636,16.9703111 15.5133945,16.9715333 15.528153,16.973 C15.537746,16.9739778 15.547339,16.9749556 15.556932,16.9756889 C15.576856,16.9769111 15.59678,16.9774 15.6167039,16.9771556 C15.6199016,16.9771556 15.6233453,16.9771556 15.6265429,16.9771556 C15.6489267,16.9766667 15.6710644,16.9754444 15.6932021,16.9732444 C15.6932021,16.9732444 15.6934481,16.9732444 15.6934481,16.9732444 C15.3372764,16.7693778 14.6886404,16.2528667 15.2155188,15.3850889 Z" id="Shape" fill="#000000" fill-rule="nonzero"></path>
                    <path d="M15.2155188,15.3850889 C15.2155188,15.3850889 15.2155188,15.3850889 15.2155188,15.3850889 C15.2155188,15.3850889 15.2155188,15.3850889 15.2155188,15.3850889 C15.1899374,15.3985333 15.1650939,15.4132 15.1409884,15.4288444 C15.1400045,15.4293333 15.1392665,15.4300667 15.1382826,15.4305556 C14.9786449,15.5361556 14.8549195,15.6952889 14.7961315,15.8898667 C14.7919499,15.9033111 14.7875224,15.9165111 14.7840787,15.9304444 C14.6716682,16.3836444 14.9503578,16.8414889 15.4061494,16.9532 C15.4319767,16.9595556 15.4578041,16.9642 15.4836315,16.9681111 C15.498636,16.9703111 15.5133945,16.9715333 15.528153,16.973 C15.537746,16.9739778 15.547339,16.9749556 15.556932,16.9756889 C15.576856,16.9769111 15.59678,16.9774 15.6167039,16.9771556 C15.6199016,16.9771556 15.6233453,16.9771556 15.6265429,16.9771556 C15.6489267,16.9766667 15.6710644,16.9754444 15.6932021,16.9732444 C15.6932021,16.9732444 15.6934481,16.9732444 15.6934481,16.9732444 C15.3372764,16.7693778 14.6886404,16.2528667 15.2155188,15.3850889 Z" id="Shape" fill="#000000" fill-rule="nonzero" opacity="0.1"></path>
                    <ellipse id="Oval" fill="#000000" fill-rule="nonzero" transform="translate(12.809155, 13.107488) rotate(-114.571042) translate(-12.809155, -13.107488) " cx="12.6215056" cy="12.7995121" rx="1" ry="1"></ellipse>
                    <ellipse id="Oval" fill="#000000" fill-rule="nonzero" opacity="0.2" transform="translate(12.809155, 13.107488) rotate(-114.571042) translate(-12.809155, -13.107488) " cx="12.6215056" cy="12.7995121" rx="1" ry="1"></ellipse>
                    <path d="M11.7180009,12.8719556 C11.7180009,12.8719556 11.7180009,12.8717111 11.7182469,12.8717111 C11.7175089,12.8719556 11.717017,12.8724444 11.716525,12.8726889 C11.6916816,12.8856444 11.667576,12.8998222 11.6439624,12.9152222 C11.6427326,12.9159556 11.6417487,12.9166889 11.6407648,12.9174222 C11.6181351,12.9323333 11.5964893,12.9484667 11.5753354,12.9653333 C11.5728757,12.9672889 11.5706619,12.9692444 11.5682021,12.9709556 C11.5487701,12.9870889 11.530322,13.0039556 11.5123658,13.0215556 C11.5089222,13.0249778 11.5057245,13.0281556 11.5022809,13.0315778 C11.4858005,13.0482 11.4703041,13.0658 11.4555456,13.0838889 C11.45161,13.0887778 11.4474284,13.0934222 11.4434928,13.0983111 C11.4299642,13.1154222 11.4171735,13.1335111 11.4048748,13.1518444 C11.4006932,13.1582 11.3962657,13.1643111 11.3920841,13.1706667 C11.3807692,13.1885111 11.3706843,13.2070889 11.3605993,13.2259111 C11.3566637,13.2332444 11.3522361,13.2405778 11.3485465,13.2481556 C11.3389535,13.2677111 11.3305903,13.2877556 11.3224732,13.3082889 C11.3195215,13.3156222 11.3160778,13.3227111 11.3133721,13.3302889 C11.3030411,13.3584 11.294186,13.3872444 11.2868068,13.4168222 C11.2661449,13.5004222 11.2587657,13.5840222 11.2634392,13.6656667 C11.2740161,13.8578 11.3507603,14.0382 11.4762075,14.1792444 C11.5866503,14.3034222 11.7347272,14.3970444 11.9091234,14.4398222 C11.9349508,14.4461778 11.9607782,14.4508222 11.9866055,14.4547333 C12.001856,14.4569333 12.0171064,14.4584 12.0323569,14.4596222 C12.041458,14.4606 12.050559,14.4615778 12.0596601,14.4620667 C12.080076,14.4632889 12.100246,14.4637778 12.1204159,14.4635333 C12.1233676,14.4635333 12.1263193,14.4635333 12.129025,14.4635333 C12.1516547,14.4630444 12.1740385,14.4618222 12.1964222,14.4596222 C12.1951923,14.4588889 12.1939624,14.4581556 12.1927326,14.4574222 C11.8355769,14.2525778 11.1930903,13.7368 11.7180009,12.8719556 Z" id="Shape" fill="#000000" fill-rule="nonzero"></path>
                    <path d="M11.7180009,12.8719556 C11.7180009,12.8719556 11.7180009,12.8717111 11.7182469,12.8717111 C11.7175089,12.8719556 11.717017,12.8724444 11.716525,12.8726889 C11.6916816,12.8856444 11.667576,12.8998222 11.6439624,12.9152222 C11.6427326,12.9159556 11.6417487,12.9166889 11.6407648,12.9174222 C11.6181351,12.9323333 11.5964893,12.9484667 11.5753354,12.9653333 C11.5728757,12.9672889 11.5706619,12.9692444 11.5682021,12.9709556 C11.5487701,12.9870889 11.530322,13.0039556 11.5123658,13.0215556 C11.5089222,13.0249778 11.5057245,13.0281556 11.5022809,13.0315778 C11.4858005,13.0482 11.4703041,13.0658 11.4555456,13.0838889 C11.45161,13.0887778 11.4474284,13.0934222 11.4434928,13.0983111 C11.4299642,13.1154222 11.4171735,13.1335111 11.4048748,13.1518444 C11.4006932,13.1582 11.3962657,13.1643111 11.3920841,13.1706667 C11.3807692,13.1885111 11.3706843,13.2070889 11.3605993,13.2259111 C11.3566637,13.2332444 11.3522361,13.2405778 11.3485465,13.2481556 C11.3389535,13.2677111 11.3305903,13.2877556 11.3224732,13.3082889 C11.3195215,13.3156222 11.3160778,13.3227111 11.3133721,13.3302889 C11.3030411,13.3584 11.294186,13.3872444 11.2868068,13.4168222 C11.2661449,13.5004222 11.2587657,13.5840222 11.2634392,13.6656667 C11.2740161,13.8578 11.3507603,14.0382 11.4762075,14.1792444 C11.5866503,14.3034222 11.7347272,14.3970444 11.9091234,14.4398222 C11.9349508,14.4461778 11.9607782,14.4508222 11.9866055,14.4547333 C12.001856,14.4569333 12.0171064,14.4584 12.0323569,14.4596222 C12.041458,14.4606 12.050559,14.4615778 12.0596601,14.4620667 C12.080076,14.4632889 12.100246,14.4637778 12.1204159,14.4635333 C12.1233676,14.4635333 12.1263193,14.4635333 12.129025,14.4635333 C12.1516547,14.4630444 12.1740385,14.4618222 12.1964222,14.4596222 C12.1951923,14.4588889 12.1939624,14.4581556 12.1927326,14.4574222 C11.8355769,14.2525778 11.1930903,13.7368 11.7180009,12.8719556 Z" id="Shape" fill="#000000" fill-rule="nonzero" opacity="0.1"></path>
                    <ellipse id="Oval" fill="#000000" fill-rule="nonzero" transform="translate(12.861551, 9.322141) rotate(65.441762) translate(-12.861551, -9.322141) " cx="12.6747942" cy="9.01328907" rx="1" ry="1"></ellipse>
                    <ellipse id="Oval" fill="#000000" fill-rule="nonzero" opacity="0.2" transform="translate(12.861551, 9.322141) rotate(65.441762) translate(-12.861551, -9.322141) " cx="12.6747942" cy="9.01328907" rx="1" ry="1"></ellipse>
                    <path d="M11.795483,9.01315556 C11.7927773,9.02391111 11.7915474,9.03442222 11.7893336,9.04517778 C11.7088998,9.43311111 11.9101073,9.81811111 12.2611136,9.98066667 C12.3105546,10.0036444 12.3627013,10.0222222 12.4177996,10.0356667 C12.5144678,10.0593778 12.6113819,10.0645111 12.7050984,10.0554667 C12.3486807,9.85184444 11.7002907,9.33533333 12.2271691,8.46731111 C12.2271691,8.46731111 12.2271691,8.46731111 12.2271691,8.46731111 C12.2015877,8.48051111 12.1769902,8.49517778 12.1528846,8.51082222 C12.1516547,8.51155556 12.1504249,8.51253333 12.149441,8.51326667 C12.1270572,8.52817778 12.1054114,8.54406667 12.0842576,8.56093333 C12.0817979,8.56288889 12.0793381,8.56484444 12.0768784,8.5668 C11.9423301,8.67851111 11.8407424,8.83128889 11.795483,9.01315556 Z" id="Shape" fill="#000000" fill-rule="nonzero"></path>
                    <path d="M11.795483,9.01315556 C11.7927773,9.02391111 11.7915474,9.03442222 11.7893336,9.04517778 C11.7088998,9.43311111 11.9101073,9.81811111 12.2611136,9.98066667 C12.3105546,10.0036444 12.3627013,10.0222222 12.4177996,10.0356667 C12.5144678,10.0593778 12.6113819,10.0645111 12.7050984,10.0554667 C12.3486807,9.85184444 11.7002907,9.33533333 12.2271691,8.46731111 C12.2271691,8.46731111 12.2271691,8.46731111 12.2271691,8.46731111 C12.2015877,8.48051111 12.1769902,8.49517778 12.1528846,8.51082222 C12.1516547,8.51155556 12.1504249,8.51253333 12.149441,8.51326667 C12.1270572,8.52817778 12.1054114,8.54406667 12.0842576,8.56093333 C12.0817979,8.56288889 12.0793381,8.56484444 12.0768784,8.5668 C11.9423301,8.67851111 11.8407424,8.83128889 11.795483,9.01315556 Z" id="Shape" fill="#000000" fill-rule="nonzero" opacity="0.1"></path>
                    <ellipse id="Oval" fill="#000000" fill-rule="nonzero" transform="translate(16.807130, 7.677966) rotate(65.436551) translate(-16.807130, -7.677966) " cx="16.6203817" cy="7.36912609" rx="1" ry="1"></ellipse>
                    <ellipse id="Oval" fill="#000000" fill-rule="nonzero" opacity="0.2" transform="translate(16.807130, 7.677966) rotate(65.436551) translate(-16.807130, -7.677966) " cx="16.6203817" cy="7.36912609" rx="1" ry="1"></ellipse>
                    <path d="M16.3625,8.39104444 C16.3883274,8.3974 16.4141547,8.40228889 16.4399821,8.40595556 C16.4549866,8.40815556 16.4697451,8.40937778 16.4847496,8.41084444 C16.4943426,8.41182222 16.5039356,8.4128 16.5135286,8.41353333 C16.5334526,8.41475556 16.5531306,8.415 16.5728086,8.415 C16.5762522,8.415 16.5799419,8.415 16.5833855,8.415 C16.6057692,8.41451111 16.627907,8.41328889 16.6497987,8.41108889 C16.6497987,8.41108889 16.6497987,8.41108889 16.6500447,8.41108889 C16.293873,8.20746667 15.645237,7.69095556 16.1721154,6.82317778 C16.1721154,6.82317778 16.1721154,6.82317778 16.1721154,6.82317778 C16.1721154,6.82317778 16.1718694,6.82317778 16.1718694,6.82342222 C16.146288,6.83686667 16.1214445,6.85128889 16.097339,6.86717778 C16.0966011,6.86766667 16.0958631,6.86815556 16.0951252,6.86864444 C16.0722496,6.8838 16.0498658,6.90017778 16.028466,6.91753333 C16.0264982,6.919 16.0245304,6.92071111 16.0228086,6.92217778 C16.0028846,6.93855556 15.9839445,6.95591111 15.9654964,6.974 C15.9625447,6.97693333 15.959593,6.97962222 15.9566413,6.9828 C15.939915,6.99991111 15.9239267,7.018 15.9086762,7.03633333 C15.9049866,7.04073333 15.901297,7.04513333 15.8976073,7.04953333 C15.8835868,7.06713333 15.8707961,7.08546667 15.8580054,7.10428889 C15.8540698,7.11015556 15.8498882,7.11602222 15.8459526,7.12188889 C15.8343918,7.13997778 15.8240608,7.15904444 15.8139758,7.17835556 C15.8102862,7.18544444 15.8061047,7.19228889 15.802415,7.19962222 C15.792822,7.21917778 15.7844589,7.23971111 15.7760957,7.26024444 C15.773144,7.26757778 15.7697004,7.27442222 15.7669946,7.282 C15.7566637,7.31011111 15.7478086,7.33895556 15.7404293,7.36853333 C15.7190295,7.45482222 15.7118962,7.54111111 15.7175537,7.6252 C15.7296064,7.81244444 15.8048748,7.9882 15.9261404,8.12655556 C16.0368292,8.25268889 16.186136,8.34802222 16.3625,8.39104444 Z" id="Shape" fill="#000000" fill-rule="nonzero"></path>
                    <path d="M16.3625,8.39104444 C16.3883274,8.3974 16.4141547,8.40228889 16.4399821,8.40595556 C16.4549866,8.40815556 16.4697451,8.40937778 16.4847496,8.41084444 C16.4943426,8.41182222 16.5039356,8.4128 16.5135286,8.41353333 C16.5334526,8.41475556 16.5531306,8.415 16.5728086,8.415 C16.5762522,8.415 16.5799419,8.415 16.5833855,8.415 C16.6057692,8.41451111 16.627907,8.41328889 16.6497987,8.41108889 C16.6497987,8.41108889 16.6497987,8.41108889 16.6500447,8.41108889 C16.293873,8.20746667 15.645237,7.69095556 16.1721154,6.82317778 C16.1721154,6.82317778 16.1721154,6.82317778 16.1721154,6.82317778 C16.1721154,6.82317778 16.1718694,6.82317778 16.1718694,6.82342222 C16.146288,6.83686667 16.1214445,6.85128889 16.097339,6.86717778 C16.0966011,6.86766667 16.0958631,6.86815556 16.0951252,6.86864444 C16.0722496,6.8838 16.0498658,6.90017778 16.028466,6.91753333 C16.0264982,6.919 16.0245304,6.92071111 16.0228086,6.92217778 C16.0028846,6.93855556 15.9839445,6.95591111 15.9654964,6.974 C15.9625447,6.97693333 15.959593,6.97962222 15.9566413,6.9828 C15.939915,6.99991111 15.9239267,7.018 15.9086762,7.03633333 C15.9049866,7.04073333 15.901297,7.04513333 15.8976073,7.04953333 C15.8835868,7.06713333 15.8707961,7.08546667 15.8580054,7.10428889 C15.8540698,7.11015556 15.8498882,7.11602222 15.8459526,7.12188889 C15.8343918,7.13997778 15.8240608,7.15904444 15.8139758,7.17835556 C15.8102862,7.18544444 15.8061047,7.19228889 15.802415,7.19962222 C15.792822,7.21917778 15.7844589,7.23971111 15.7760957,7.26024444 C15.773144,7.26757778 15.7697004,7.27442222 15.7669946,7.282 C15.7566637,7.31011111 15.7478086,7.33895556 15.7404293,7.36853333 C15.7190295,7.45482222 15.7118962,7.54111111 15.7175537,7.6252 C15.7296064,7.81244444 15.8048748,7.9882 15.9261404,8.12655556 C16.0368292,8.25268889 16.186136,8.34802222 16.3625,8.39104444 Z" id="Shape" fill="#000000" fill-rule="nonzero" opacity="0.1"></path>
                    <path d="M7.61194097,19.58 L5.16694991,20.6457778 C5.05330948,20.4964222 4.88973614,20.3834889 4.69246422,20.3350889 C4.48264758,20.2837556 4.27209302,20.3152889 4.09474508,20.4079333 C3.5681127,21.2757111 4.21625671,21.7922222 4.57242844,21.9958444 C4.92097496,21.9616222 5.2259839,21.7152222 5.31453488,21.3580889 C5.33076923,21.2928222 5.3379025,21.2278 5.33839445,21.1632667 L7.92285331,20.0366222 C7.77059481,19.9229556 7.66138193,19.7613778 7.61194097,19.58 Z M5.0884839,21.2361111 C5.00583631,21.2735111 4.88088104,21.1774444 4.80881038,21.0212444 C4.73698569,20.8652889 4.74559481,20.7081111 4.8282424,20.6707111 C4.91088998,20.6330667 5.03584526,20.7293778 5.10766995,20.8855778 C5.17974061,21.0412889 5.17088551,21.1984667 5.0884839,21.2361111 Z" id="Shape" fill="#000000" fill-rule="nonzero"></path>
                    <ellipse id="Oval" fill="#000000" fill-rule="nonzero" transform="translate(9.739093, 14.702569) rotate(-114.576253) translate(-9.739093, -14.702569) " cx="9.55145158" cy="14.3946051" rx="1" ry="1"></ellipse>
                    <ellipse id="Oval" fill="#000000" fill-rule="nonzero" opacity="0.2" transform="translate(9.739093, 14.702569) rotate(-114.576253) translate(-9.739093, -14.702569) " cx="9.55145158" cy="14.3946051" rx="1" ry="1"></ellipse>
                    <polygon id="Shape" fill="#000000" fill-rule="nonzero" opacity="0.1" points="8.64552773 14.4685915 8.64752504 14.4674444 8.64752504 14.4674444"></polygon>
                    <path d="M8.25172182,14.9040222 C8.24877013,14.9116 8.2450805,14.9186889 8.24237478,14.9262667 C8.23204383,14.9543778 8.22318873,14.9832222 8.21580948,15.0128 C8.1174195,15.4100222 8.31911896,15.8106667 8.6772585,15.9788444 C8.72792934,16.0025556 8.78155188,16.0218667 8.83788014,16.0355556 C8.9345483,16.0592667 9.03146243,16.0644 9.12542487,16.0553556 C8.76900716,15.8517333 8.12061717,15.3352222 8.64724955,14.4674444 C8.6467576,14.4676889 8.64626565,14.4679333 8.64552773,14.4684222 C8.47039356,14.5603333 8.32822004,14.7121333 8.25172182,14.9040222 Z" id="Shape" fill="#000000" fill-rule="nonzero"></path>
                    <path d="M8.25172182,14.9040222 C8.24877013,14.9116 8.2450805,14.9186889 8.24237478,14.9262667 C8.23204383,14.9543778 8.22318873,14.9832222 8.21580948,15.0128 C8.1174195,15.4100222 8.31911896,15.8106667 8.6772585,15.9788444 C8.72792934,16.0025556 8.78155188,16.0218667 8.83788014,16.0355556 C8.9345483,16.0592667 9.03146243,16.0644 9.12542487,16.0553556 C8.76900716,15.8517333 8.12061717,15.3352222 8.64724955,14.4674444 C8.6467576,14.4676889 8.64626565,14.4679333 8.64552773,14.4684222 C8.47039356,14.5603333 8.32822004,14.7121333 8.25172182,14.9040222 Z" id="Shape" fill="#000000" fill-rule="nonzero" opacity="0.1"></path>
                    <ellipse id="Oval" fill="#000000" fill-rule="nonzero" transform="translate(9.129380, 18.846274) rotate(-114.563449) translate(-9.129380, -18.846274) " cx="8.94175344" cy="18.5383015" rx="1" ry="1"></ellipse>
                    <ellipse id="Oval" fill="#000000" fill-rule="nonzero" opacity="0.2" transform="translate(9.129380, 18.846274) rotate(-114.563449) translate(-9.129380, -18.846274) " cx="8.94175344" cy="18.5383015" rx="1" ry="1"></ellipse>
                    <polygon id="Shape" fill="#000000" fill-rule="nonzero" opacity="0.1" points="8.03821556 18.6117979 8.03850089 18.6115111 8.03850089 18.6115111"></polygon>
                    <path d="M8.03846154,18.6115111 C8.03846154,18.6115111 8.03846154,18.6115111 8.03846154,18.6115111 C8.01288014,18.6249556 7.98803667,18.6396222 7.96393113,18.6552667 C7.96294723,18.6557556 7.9622093,18.6564889 7.9612254,18.6569778 C7.93834973,18.6721333 7.91621199,18.6882667 7.89481216,18.7056222 C7.89284436,18.7070889 7.89087657,18.7088 7.88890877,18.7102667 C7.86898479,18.7266444 7.84979875,18.744 7.8315966,18.7623333 C7.8286449,18.7652667 7.8256932,18.7679556 7.82298748,18.7708889 C7.80601521,18.788 7.79002683,18.8060889 7.77477639,18.8249111 C7.77108676,18.8293111 7.76739714,18.8334667 7.76395349,18.8378667 C7.74993292,18.8554667 7.73689624,18.8740444 7.72435152,18.8928667 C7.72041592,18.8987333 7.71623435,18.9043556 7.71254472,18.9104667 C7.7009839,18.9288 7.69065295,18.9476222 7.680322,18.9669333 C7.67663238,18.9740222 7.67245081,18.9808667 7.66876118,18.9882 C7.65916816,19.0077556 7.65080501,19.0282889 7.64244186,19.0488222 C7.63949016,19.0561556 7.63604651,19.063 7.63334079,19.0705778 C7.62300984,19.0986889 7.61415474,19.1275333 7.60677549,19.1571111 C7.57086315,19.3013333 7.57504472,19.4460444 7.61169499,19.58 C7.66113596,19.7613778 7.77059481,19.9229556 7.92309928,20.0363778 C8.01165027,20.1021333 8.11471377,20.152 8.22884615,20.1798667 C8.2549195,20.1862222 8.28074687,20.1908667 8.30682021,20.1947778 C8.32084079,20.1967333 8.33461538,20.1979556 8.34838998,20.1991778 C8.35921288,20.2001556 8.3697898,20.2013778 8.3806127,20.2021111 C8.39979875,20.2030889 8.41898479,20.2035778 8.43792487,20.2033333 C8.44186047,20.2033333 8.44604204,20.2033333 8.44997764,20.2033333 C8.47211538,20.2028444 8.49425313,20.2016222 8.51589893,20.1994222 C8.51589893,20.1994222 8.51565295,20.1994222 8.51565295,20.1994222 C8.15997317,19.9958 7.51158318,19.4795333 8.03846154,18.6115111 Z" id="Shape" fill="#000000" fill-rule="nonzero"></path>
                    <path d="M8.03846154,18.6115111 C8.03846154,18.6115111 8.03846154,18.6115111 8.03846154,18.6115111 C8.01288014,18.6249556 7.98803667,18.6396222 7.96393113,18.6552667 C7.96294723,18.6557556 7.9622093,18.6564889 7.9612254,18.6569778 C7.93834973,18.6721333 7.91621199,18.6882667 7.89481216,18.7056222 C7.89284436,18.7070889 7.89087657,18.7088 7.88890877,18.7102667 C7.86898479,18.7266444 7.84979875,18.744 7.8315966,18.7623333 C7.8286449,18.7652667 7.8256932,18.7679556 7.82298748,18.7708889 C7.80601521,18.788 7.79002683,18.8060889 7.77477639,18.8249111 C7.77108676,18.8293111 7.76739714,18.8334667 7.76395349,18.8378667 C7.74993292,18.8554667 7.73689624,18.8740444 7.72435152,18.8928667 C7.72041592,18.8987333 7.71623435,18.9043556 7.71254472,18.9104667 C7.7009839,18.9288 7.69065295,18.9476222 7.680322,18.9669333 C7.67663238,18.9740222 7.67245081,18.9808667 7.66876118,18.9882 C7.65916816,19.0077556 7.65080501,19.0282889 7.64244186,19.0488222 C7.63949016,19.0561556 7.63604651,19.063 7.63334079,19.0705778 C7.62300984,19.0986889 7.61415474,19.1275333 7.60677549,19.1571111 C7.57086315,19.3013333 7.57504472,19.4460444 7.61169499,19.58 C7.66113596,19.7613778 7.77059481,19.9229556 7.92309928,20.0363778 C8.01165027,20.1021333 8.11471377,20.152 8.22884615,20.1798667 C8.2549195,20.1862222 8.28074687,20.1908667 8.30682021,20.1947778 C8.32084079,20.1967333 8.33461538,20.1979556 8.34838998,20.1991778 C8.35921288,20.2001556 8.3697898,20.2013778 8.3806127,20.2021111 C8.39979875,20.2030889 8.41898479,20.2035778 8.43792487,20.2033333 C8.44186047,20.2033333 8.44604204,20.2033333 8.44997764,20.2033333 C8.47211538,20.2028444 8.49425313,20.2016222 8.51589893,20.1994222 C8.51589893,20.1994222 8.51565295,20.1994222 8.51565295,20.1994222 C8.15997317,19.9958 7.51158318,19.4795333 8.03846154,18.6115111 Z" id="Shape" fill="#000000" fill-rule="nonzero" opacity="0.1"></path>
                    <path d="M4.01800089,20.4531556 C4.0091458,20.4590222 4.0002907,20.4646444 3.99168157,20.4707556 L1.80766995,18.8757556 C1.81062165,18.8652444 1.81431127,18.8552222 1.81701699,18.8447111 C1.91442308,18.4523778 1.71838104,18.0571111 1.36835868,17.8852667 L1.68271467,15.0629111 C1.98870751,14.9956889 2.24575134,14.7634667 2.32593918,14.4405556 C2.3443873,14.3664889 2.3512746,14.2924222 2.34955277,14.2195778 L4.80512075,13.1491556 C4.68360912,13.0108 4.60858676,12.8350444 4.59628801,12.6478 L2.16211986,13.7089333 C2.04946333,13.5693556 1.89203936,13.4637556 1.70386852,13.4175556 C1.49405188,13.3662222 1.28349732,13.3977556 1.10614937,13.4901556 C0.57927102,14.3581778 1.22790698,14.8746889 1.58432469,15.0783111 C1.49060823,15.0876 1.3936941,15.0824667 1.29702594,15.0587556 C1.24217352,15.0453111 1.18978086,15.0264889 1.14033989,15.0037556 L0.82745975,17.8138889 C0.746779964,17.8297778 0.669297853,17.8569111 0.597473166,17.8945556 C0.0705948122,18.7623333 0.719230769,19.2788444 1.0754025,19.4824667 C1.22938283,19.4673111 1.375,19.4113333 1.49700358,19.3218667 L3.67560376,20.9129556 C3.73439177,20.7178889 3.85836315,20.5587556 4.01800089,20.4531556 Z M1.83964669,13.7529333 C1.92229428,13.7155333 2.04724955,13.8116 2.11907424,13.9678 C2.19089893,14.124 2.1822898,14.2809333 2.09964222,14.3185778 C2.01724061,14.3559778 1.89203936,14.2599111 1.82021467,14.1037111 C1.74838998,13.9475111 1.75724508,13.7905778 1.83964669,13.7529333 Z M1.59096601,18.7227333 C1.50831843,18.7603778 1.38336315,18.6640667 1.31153846,18.5078667 C1.23971377,18.3516667 1.2483229,18.1947333 1.33097048,18.1573333 C1.41361807,18.1196889 1.53857335,18.216 1.61039803,18.3722 C1.68222272,18.5281556 1.67336762,18.6850889 1.59096601,18.7227333 Z" id="Shape" fill="#000000" fill-rule="nonzero"></path>
                    <ellipse id="Oval" fill="#000000" fill-rule="nonzero" transform="translate(5.186726, 20.643338) rotate(-114.563449) translate(-5.186726, -20.643338) " cx="4.99909907" cy="20.3353653" rx="1" ry="1"></ellipse>
                    <ellipse id="Oval" fill="#000000" fill-rule="nonzero" opacity="0.2" transform="translate(5.186726, 20.643338) rotate(-114.563449) translate(-5.186726, -20.643338) " cx="4.99909907" cy="20.3353653" rx="1" ry="1"></ellipse>
                    <path d="M4.09474508,20.4079333 C4.09474508,20.4079333 4.09474508,20.4079333 4.09474508,20.4079333 C4.09474508,20.4079333 4.09474508,20.4079333 4.09474508,20.4079333 C4.06891771,20.4213778 4.04382826,20.4360444 4.01972272,20.4519333 C4.01923077,20.4524222 4.01849284,20.4526667 4.01800089,20.4531556 C3.85811717,20.5587556 3.7341458,20.7178889 3.67535778,20.9129556 C3.67117621,20.9264 3.66674866,20.9396 3.66330501,20.9535333 C3.55089445,21.4067333 3.8293381,21.8645778 4.28537567,21.9762889 C4.31120304,21.9826444 4.33703041,21.9872889 4.36285778,21.9912 C4.3773703,21.9934 4.3921288,21.9946222 4.40664132,21.9958444 C4.4167263,21.9968222 4.4265653,21.9978 4.43665027,21.9985333 C4.45632826,21.9997556 4.47576029,22 4.49519231,21.9997556 C4.49888193,21.9997556 4.50257156,21.9997556 4.50626118,21.9997556 C4.5286449,21.9992667 4.55078265,21.9980444 4.57267442,21.9958444 C4.57267442,21.9958444 4.57242844,21.9958444 4.57242844,21.9956 C4.21625671,21.7922222 3.5681127,21.2757111 4.09474508,20.4079333 Z" id="Shape" fill="#000000" fill-rule="nonzero"></path>
                    <path d="M4.09474508,20.4079333 C4.09474508,20.4079333 4.09474508,20.4079333 4.09474508,20.4079333 C4.09474508,20.4079333 4.09474508,20.4079333 4.09474508,20.4079333 C4.06891771,20.4213778 4.04382826,20.4360444 4.01972272,20.4519333 C4.01923077,20.4524222 4.01849284,20.4526667 4.01800089,20.4531556 C3.85811717,20.5587556 3.7341458,20.7178889 3.67535778,20.9129556 C3.67117621,20.9264 3.66674866,20.9396 3.66330501,20.9535333 C3.55089445,21.4067333 3.8293381,21.8645778 4.28537567,21.9762889 C4.31120304,21.9826444 4.33703041,21.9872889 4.36285778,21.9912 C4.3773703,21.9934 4.3921288,21.9946222 4.40664132,21.9958444 C4.4167263,21.9968222 4.4265653,21.9978 4.43665027,21.9985333 C4.45632826,21.9997556 4.47576029,22 4.49519231,21.9997556 C4.49888193,21.9997556 4.50257156,21.9997556 4.50626118,21.9997556 C4.5286449,21.9992667 4.55078265,21.9980444 4.57267442,21.9958444 C4.57267442,21.9958444 4.57242844,21.9958444 4.57242844,21.9956 C4.21625671,21.7922222 3.5681127,21.2757111 4.09474508,20.4079333 Z" id="Shape" fill="#000000" fill-rule="nonzero" opacity="0.1"></path>
                    <ellipse id="Oval" fill="#000000" fill-rule="nonzero" transform="translate(1.688467, 18.129219) rotate(-114.576253) translate(-1.688467, -18.129219) " cx="1.50082591" cy="17.8212556" rx="1" ry="1"></ellipse>
                    <ellipse id="Oval" fill="#000000" fill-rule="nonzero" opacity="0.2" transform="translate(1.688467, 18.129219) rotate(-114.576253) translate(-1.688467, -18.129219) " cx="1.50082591" cy="17.8212556" rx="1" ry="1"></ellipse>
                    <polygon id="Shape" fill="#000000" fill-rule="nonzero" opacity="0.1" points="0.59763059 17.8945556 0.596489267 17.8951291 0.597345259 17.8945556"></polygon>
                    <polygon id="Shape" fill="#000000" fill-rule="nonzero" opacity="0.1" points="1.07544186 19.4827534 1.07544186 19.4824667 1.07515653 19.4827534"></polygon>
                    <path d="M0.597227191,17.8945556 C0.596981216,17.8948 0.596735242,17.8948 0.596489267,17.8950444 C0.571399821,17.908 0.547048301,17.9224222 0.52368068,17.9378222 C0.52220483,17.9388 0.52072898,17.9397778 0.519253131,17.9407556 C0.497115385,17.9554222 0.475469589,17.9713111 0.454807692,17.9881778 C0.452347943,17.9901333 0.449642218,17.9923333 0.447182469,17.9942889 C0.427996422,18.0101778 0.409548301,18.0270444 0.391592129,18.0446444 C0.388148479,18.0480667 0.38470483,18.0512444 0.381261181,18.0549111 C0.365026834,18.0715333 0.349530411,18.0891333 0.334525939,18.1069778 C0.33059034,18.1118667 0.326408766,18.1165111 0.322473166,18.1216444 C0.308944544,18.1387556 0.296153846,18.1568444 0.284101073,18.1749333 C0.279919499,18.1812889 0.275245975,18.1874 0.271310376,18.194 C0.259995528,18.2118444 0.249910555,18.2304222 0.240071556,18.249 C0.236135957,18.2565778 0.231708408,18.2636667 0.228018784,18.2714889 C0.21842576,18.2908 0.210308587,18.3108444 0.202191413,18.3311333 C0.199239714,18.3387111 0.195550089,18.3460444 0.192844365,18.3538667 C0.182513417,18.3819778 0.173658318,18.4105778 0.16627907,18.4404 C0.0538685152,18.8936 0.332312165,19.3514444 0.788349732,19.4631556 C0.814423077,19.4695111 0.840496422,19.4744 0.866323792,19.4780667 C0.88009839,19.4800222 0.893872987,19.4812444 0.907647585,19.4824667 C0.918470483,19.4834444 0.929293381,19.4846667 0.940116279,19.4854 C0.959302326,19.4863778 0.978242397,19.4868667 0.997182469,19.4866222 C1.00136404,19.4866222 1.00579159,19.4866222 1.00997317,19.4866222 C1.03186494,19.4861333 1.05375671,19.4849111 1.0754025,19.4827111 C1.0754025,19.4827111 1.07564848,19.4827111 1.07564848,19.4827111 C0.718984794,19.2788444 0.0705948122,18.7625778 0.597227191,17.8945556 Z" id="Shape" fill="#000000" fill-rule="nonzero"></path>
                    <path d="M0.597227191,17.8945556 C0.596981216,17.8948 0.596735242,17.8948 0.596489267,17.8950444 C0.571399821,17.908 0.547048301,17.9224222 0.52368068,17.9378222 C0.52220483,17.9388 0.52072898,17.9397778 0.519253131,17.9407556 C0.497115385,17.9554222 0.475469589,17.9713111 0.454807692,17.9881778 C0.452347943,17.9901333 0.449642218,17.9923333 0.447182469,17.9942889 C0.427996422,18.0101778 0.409548301,18.0270444 0.391592129,18.0446444 C0.388148479,18.0480667 0.38470483,18.0512444 0.381261181,18.0549111 C0.365026834,18.0715333 0.349530411,18.0891333 0.334525939,18.1069778 C0.33059034,18.1118667 0.326408766,18.1165111 0.322473166,18.1216444 C0.308944544,18.1387556 0.296153846,18.1568444 0.284101073,18.1749333 C0.279919499,18.1812889 0.275245975,18.1874 0.271310376,18.194 C0.259995528,18.2118444 0.249910555,18.2304222 0.240071556,18.249 C0.236135957,18.2565778 0.231708408,18.2636667 0.228018784,18.2714889 C0.21842576,18.2908 0.210308587,18.3108444 0.202191413,18.3311333 C0.199239714,18.3387111 0.195550089,18.3460444 0.192844365,18.3538667 C0.182513417,18.3819778 0.173658318,18.4105778 0.16627907,18.4404 C0.0538685152,18.8936 0.332312165,19.3514444 0.788349732,19.4631556 C0.814423077,19.4695111 0.840496422,19.4744 0.866323792,19.4780667 C0.88009839,19.4800222 0.893872987,19.4812444 0.907647585,19.4824667 C0.918470483,19.4834444 0.929293381,19.4846667 0.940116279,19.4854 C0.959302326,19.4863778 0.978242397,19.4868667 0.997182469,19.4866222 C1.00136404,19.4866222 1.00579159,19.4866222 1.00997317,19.4866222 C1.03186494,19.4861333 1.05375671,19.4849111 1.0754025,19.4827111 C1.0754025,19.4827111 1.07564848,19.4827111 1.07564848,19.4827111 C0.718984794,19.2788444 0.0705948122,18.7625778 0.597227191,17.8945556 Z" id="Shape" fill="#000000" fill-rule="nonzero" opacity="0.1"></path>
                    <ellipse id="Oval" fill="#000000" fill-rule="nonzero" transform="translate(1.740444, 14.345480) rotate(65.436551) translate(-1.740444, -14.345480) " cx="1.55369615" cy="14.0366399" rx="1" ry="1"></ellipse>
                    <ellipse id="Oval" fill="#000000" fill-rule="nonzero" opacity="0.2" transform="translate(1.740444, 14.345480) rotate(65.436551) translate(-1.740444, -14.345480) " cx="1.55369615" cy="14.0366399" rx="1" ry="1"></ellipse>
                    <polygon id="Shape" fill="#000000" fill-rule="nonzero" opacity="0.1" points="1.10618873 13.4904 1.1059034 13.4906868"></polygon>
                    <path d="M1.58432469,15.0785556 C1.22815295,14.8749333 0.579516995,14.3584222 1.10614937,13.4904 C1.10614937,13.4904 1.1059034,13.4904 1.1059034,13.4906444 C1.08056798,13.5038444 1.05597048,13.5182667 1.03211091,13.5339111 C1.03088104,13.5348889 1.02940519,13.5356222 1.02817531,13.5366 C1.00579159,13.5512667 0.984391771,13.5674 0.9634839,13.5840222 C0.96102415,13.5859778 0.958318426,13.5881778 0.955858676,13.5901333 C0.93667263,13.6060222 0.918224508,13.6226444 0.900514311,13.6402444 C0.897070662,13.6436667 0.893381038,13.6470889 0.889937388,13.6507556 C0.873703041,13.6671333 0.858452594,13.6844889 0.843694097,13.7023333 C0.839512522,13.7074667 0.835084973,13.7123556 0.831149374,13.7174889 C0.817866726,13.7343556 0.805322004,13.7522 0.793269231,13.7700444 C0.788841682,13.7766444 0.784168157,13.783 0.779986583,13.7898444 C0.76891771,13.8074444 0.759078712,13.8255333 0.749239714,13.8441111 C0.74505814,13.8519333 0.74063059,13.8595111 0.736694991,13.8673333 C0.727347943,13.8864 0.719230769,13.9062 0.711113596,13.9262444 C0.707915921,13.9340667 0.704472272,13.9414 0.701520572,13.9492222 C0.691189624,13.9773333 0.682334526,14.0059333 0.674955277,14.0357556 C0.576073345,14.4342 0.779740608,14.8363111 1.14058587,15.0035111 C1.19002683,15.0264889 1.24217352,15.0450667 1.29727191,15.0585111 C1.3936941,15.0824667 1.49036225,15.0878444 1.58432469,15.0785556 Z" id="Shape" fill="#000000" fill-rule="nonzero"></path>
                    <path d="M1.58432469,15.0785556 C1.22815295,14.8749333 0.579516995,14.3584222 1.10614937,13.4904 C1.10614937,13.4904 1.1059034,13.4904 1.1059034,13.4906444 C1.08056798,13.5038444 1.05597048,13.5182667 1.03211091,13.5339111 C1.03088104,13.5348889 1.02940519,13.5356222 1.02817531,13.5366 C1.00579159,13.5512667 0.984391771,13.5674 0.9634839,13.5840222 C0.96102415,13.5859778 0.958318426,13.5881778 0.955858676,13.5901333 C0.93667263,13.6060222 0.918224508,13.6226444 0.900514311,13.6402444 C0.897070662,13.6436667 0.893381038,13.6470889 0.889937388,13.6507556 C0.873703041,13.6671333 0.858452594,13.6844889 0.843694097,13.7023333 C0.839512522,13.7074667 0.835084973,13.7123556 0.831149374,13.7174889 C0.817866726,13.7343556 0.805322004,13.7522 0.793269231,13.7700444 C0.788841682,13.7766444 0.784168157,13.783 0.779986583,13.7898444 C0.76891771,13.8074444 0.759078712,13.8255333 0.749239714,13.8441111 C0.74505814,13.8519333 0.74063059,13.8595111 0.736694991,13.8673333 C0.727347943,13.8864 0.719230769,13.9062 0.711113596,13.9262444 C0.707915921,13.9340667 0.704472272,13.9414 0.701520572,13.9492222 C0.691189624,13.9773333 0.682334526,14.0059333 0.674955277,14.0357556 C0.576073345,14.4342 0.779740608,14.8363111 1.14058587,15.0035111 C1.19002683,15.0264889 1.24217352,15.0450667 1.29727191,15.0585111 C1.3936941,15.0824667 1.49036225,15.0878444 1.58432469,15.0785556 Z" id="Shape" fill="#000000" fill-rule="nonzero" opacity="0.1"></path>
                    <path d="M5.52902504,13.4336889 C5.70292934,13.4165778 5.86576476,13.3464222 5.99637746,13.2359333 L8.25836315,14.8878889 C8.25614937,14.8932667 8.25368962,14.8986444 8.25172182,14.9040222 C8.32822004,14.7121333 8.47039356,14.5600889 8.64552773,14.4681778 C8.6379025,14.4723333 8.63003131,14.4762444 8.62240608,14.4806444 L6.27629696,12.7673333 C6.35673077,12.3886889 6.167822,12.0124889 5.83305009,11.8421111 L6.11223166,10.2307333 C6.41576476,10.1620444 6.67010286,9.93031111 6.74955277,9.6096 C6.76578712,9.54433333 6.77292039,9.47931111 6.77365832,9.41502222 L9.35811717,8.28813333 C9.2056127,8.17471111 9.09615385,8.01313333 9.04671288,7.83151111 L6.60172182,8.89728889 C6.4880814,8.74793333 6.32450805,8.635 6.12748211,8.5866 C5.91766547,8.53526667 5.70711091,8.5668 5.52976297,8.65944444 C5.00288462,9.52746667 5.65152057,10.0437333 6.00769231,10.2473556 C5.91397585,10.2566444 5.81706172,10.2512667 5.72039356,10.2275556 C5.66455725,10.2138667 5.61142665,10.1948 5.56124776,10.1713333 L5.28526386,11.7636444 C5.20286225,11.7792889 5.12390429,11.8071556 5.05060376,11.8455333 C4.52446333,12.7135556 5.17285331,13.2300667 5.52902504,13.4336889 Z M6.26350626,8.92222222 C6.34615385,8.88457778 6.47110912,8.98088889 6.54293381,9.13708889 C6.6147585,9.29328889 6.60614937,9.45022222 6.52350179,9.48786667 C6.4408542,9.52526667 6.31589893,9.4292 6.24382826,9.273 C6.17224955,9.11655556 6.18085868,8.95962222 6.26350626,8.92222222 Z M5.78459302,12.1083111 C5.86724061,12.0709111 5.99219589,12.1669778 6.06402057,12.3231778 C6.13584526,12.4793778 6.12723614,12.6363111 6.04458855,12.6739556 C5.96218694,12.7113556 5.83698569,12.6152889 5.765161,12.4590889 C5.69333631,12.3026444 5.70219141,12.1457111 5.78459302,12.1083111 Z" id="Shape" fill="#000000" fill-rule="nonzero"></path>
                    <polygon id="Shape" fill="#000000" fill-rule="nonzero" points="5.52976297 8.65968889 5.5300483 8.65968889 5.5300483 8.65968889"></polygon>
                    <ellipse id="Oval" fill="#000000" fill-rule="nonzero" transform="translate(5.684965, 12.701302) rotate(65.431340) translate(-5.684965, -12.701302) " cx="5.49822553" cy="12.3924748" rx="1" ry="1"></ellipse>
                    <ellipse id="Oval" fill="#000000" fill-rule="nonzero" opacity="0.2" transform="translate(5.684965, 12.701302) rotate(65.431340) translate(-5.684965, -12.701302) " cx="5.49822553" cy="12.3924748" rx="1" ry="1"></ellipse>
                    <polygon id="Shape" fill="#000000" fill-rule="nonzero" opacity="0.1" points="5.52922182 13.4336889 5.52779517 13.4336889 5.52950716 13.4336889"></polygon>
                    <path d="M5.2417263,13.4138889 C5.26755367,13.4202444 5.29338104,13.4251333 5.31920841,13.4288 C5.33372093,13.431 5.34823345,13.4319778 5.3625,13.4334444 C5.37258497,13.4344222 5.38291592,13.4356444 5.39300089,13.4361333 C5.41218694,13.4373556 5.43112701,13.4376 5.45006708,13.4373556 C5.45449463,13.4373556 5.45892218,13.4373556 5.46359571,13.4371111 C5.48499553,13.4366222 5.50639535,13.4354 5.52754919,13.4334444 C5.52804114,13.4334444 5.52828712,13.4334444 5.52877907,13.4332 C5.17236136,13.2295778 4.52421735,12.7130667 5.05084973,11.8452889 C5.05084973,11.8452889 5.05084973,11.8450444 5.05084973,11.8450444 C5.05035778,11.8452889 5.05011181,11.8455333 5.04961986,11.8457778 C5.02453041,11.8589778 5.00017889,11.8731556 4.9765653,11.8888 C4.9755814,11.8895333 4.97435152,11.8902667 4.97336762,11.891 C4.95073792,11.9059111 4.92909213,11.9220444 4.90793828,11.9389111 C4.90547853,11.9408667 4.90301878,11.9428222 4.90080501,11.9447778 C4.88161896,11.9606667 4.86292487,11.9775333 4.84521467,11.9951333 C4.84177102,11.9985556 4.83832737,12.0019778 4.83488372,12.0054 C4.81864937,12.0220222 4.80339893,12.0393778 4.78839445,12.0572222 C4.78421288,12.0623556 4.78003131,12.067 4.77584973,12.0721333 C4.76232111,12.089 4.75002236,12.1068444 4.73772361,12.1249333 C4.73329606,12.1315333 4.72862254,12.1378889 4.72444097,12.1444889 C4.71337209,12.1620889 4.70328712,12.1804222 4.6936941,12.1987556 C4.68951252,12.2065778 4.68508497,12.2139111 4.68114937,12.2219778 C4.67180233,12.2410444 4.66368515,12.2608444 4.65581395,12.2808889 C4.65261628,12.2887111 4.64892665,12.2962889 4.64622093,12.3041111 C4.63588998,12.3322222 4.62703488,12.3608222 4.61965564,12.3906444 C4.59825581,12.4766889 4.59112254,12.5629778 4.59653399,12.6470667 C4.60858676,12.8343111 4.6838551,13.0100667 4.80536673,13.1484222 C4.91630143,13.2755333 5.06560823,13.3708667 5.2417263,13.4138889 Z" id="Shape" fill="#000000" fill-rule="nonzero"></path>
                    <path d="M5.2417263,13.4138889 C5.26755367,13.4202444 5.29338104,13.4251333 5.31920841,13.4288 C5.33372093,13.431 5.34823345,13.4319778 5.3625,13.4334444 C5.37258497,13.4344222 5.38291592,13.4356444 5.39300089,13.4361333 C5.41218694,13.4373556 5.43112701,13.4376 5.45006708,13.4373556 C5.45449463,13.4373556 5.45892218,13.4373556 5.46359571,13.4371111 C5.48499553,13.4366222 5.50639535,13.4354 5.52754919,13.4334444 C5.52804114,13.4334444 5.52828712,13.4334444 5.52877907,13.4332 C5.17236136,13.2295778 4.52421735,12.7130667 5.05084973,11.8452889 C5.05084973,11.8452889 5.05084973,11.8450444 5.05084973,11.8450444 C5.05035778,11.8452889 5.05011181,11.8455333 5.04961986,11.8457778 C5.02453041,11.8589778 5.00017889,11.8731556 4.9765653,11.8888 C4.9755814,11.8895333 4.97435152,11.8902667 4.97336762,11.891 C4.95073792,11.9059111 4.92909213,11.9220444 4.90793828,11.9389111 C4.90547853,11.9408667 4.90301878,11.9428222 4.90080501,11.9447778 C4.88161896,11.9606667 4.86292487,11.9775333 4.84521467,11.9951333 C4.84177102,11.9985556 4.83832737,12.0019778 4.83488372,12.0054 C4.81864937,12.0220222 4.80339893,12.0393778 4.78839445,12.0572222 C4.78421288,12.0623556 4.78003131,12.067 4.77584973,12.0721333 C4.76232111,12.089 4.75002236,12.1068444 4.73772361,12.1249333 C4.73329606,12.1315333 4.72862254,12.1378889 4.72444097,12.1444889 C4.71337209,12.1620889 4.70328712,12.1804222 4.6936941,12.1987556 C4.68951252,12.2065778 4.68508497,12.2139111 4.68114937,12.2219778 C4.67180233,12.2410444 4.66368515,12.2608444 4.65581395,12.2808889 C4.65261628,12.2887111 4.64892665,12.2962889 4.64622093,12.3041111 C4.63588998,12.3322222 4.62703488,12.3608222 4.61965564,12.3906444 C4.59825581,12.4766889 4.59112254,12.5629778 4.59653399,12.6470667 C4.60858676,12.8343111 4.6838551,13.0100667 4.80536673,13.1484222 C4.91630143,13.2755333 5.06560823,13.3708667 5.2417263,13.4138889 Z" id="Shape" fill="#000000" fill-rule="nonzero" opacity="0.1"></path>
                </g>
            </g>
        </g>
    </g>
</svg>