<?xml version="1.0" encoding="UTF-8" standalone="no"?>
<svg width="23px" height="19px" viewBox="0 0 23 19" version="1.1" xmlns="http://www.w3.org/2000/svg" xmlns:xlink="http://www.w3.org/1999/xlink">
    <!-- Generator: Sketch 44.1 (41455) - http://www.bohemiancoding.com/sketch -->
    <title>pig</title>
    <desc>Created with Sketch.</desc>
    <defs></defs>
    <g id="Page-1" stroke="none" stroke-width="1" fill="none" fill-rule="evenodd">
        <g id="pig" transform="translate(-1.000000, -2.000000)" fill="#000000">
            <path d="M12.7324515,7.00462613 L8.22886919,7.00462613 C7.9724551,7.00462613 7.7645369,6.76962581 7.7645369,6.47975272 C7.7645369,6.18987964 7.9724551,5.95495805 8.22886919,5.95495805 L12.7324515,5.95495805 C12.9888656,5.95495805 13.196705,6.18987964 13.196705,6.47975272 C13.196705,6.76962581 12.9888656,7.00462613 12.7324515,7.00462613 M23.1564672,10.9369648 C23.1148993,10.7707719 23.0852979,10.1228481 22.574989,10.4801115 C21.5417749,11.2033772 21.5942859,9.65513054 20.9552582,8.6526987 C20.2885973,7.60688825 19.5473819,6.53226368 18.4633101,5.95314732 C17.6906039,5.54030255 18.1561958,3.84152974 18.6545382,3.30154074 C19.1529593,2.76163046 19.6261877,2.91695898 19.5846986,2.62621989 C19.5431307,2.33548081 19.2939595,1.96168466 18.0480248,2.00317383 C16.8020114,2.04474172 15.5975659,3.50268841 15.0576556,3.95954162 C14.5177453,4.41639483 13.8232151,4.55802484 11.8052827,4.40371978 C6.00632515,3.96048635 4.32684048,5.94181063 3.64451292,6.63720687 C3.27701494,7.01186902 2.8788134,7.69065385 2.41109585,7.10956932 C1.54509803,6.03368512 2.69978803,5.53502783 3.05303641,5.60533111 C3.37534506,5.66949368 2.91384695,5.22011954 2.33236878,5.22011954 C1.85890415,5.22011954 1.13280435,5.59486041 1.02030336,6.26986634 C0.915281439,6.89968294 1.23018974,7.42447762 1.67633607,8.00186198 C2.1131926,8.5672011 1.4269287,9.5692393 1.25648458,10.6260715 C0.994008514,12.253124 1.20397362,15.1397309 4.09065925,16.9767484 C5.20031737,17.6828516 5.08868237,18.7100037 4.96539578,19.7418007 C4.82541904,20.9131022 6.00632515,20.755648 6.00632515,20.755648 C6.00632515,20.755648 7.26595834,20.814221 8.44536864,20.755648 C9.15178668,20.7205357 8.7863356,19.7418007 8.7863356,19.3680046 C8.7863356,18.9941297 8.82782477,18.8695835 9.03558552,18.6203336 C9.24318881,18.3711624 13.6456068,18.4957873 13.9363459,18.6203336 C14.2270062,18.7449585 14.3487183,18.9746054 14.10246,19.9909719 C13.8790326,20.9131022 14.9812116,20.8343751 14.9812116,20.8343751 C14.9812116,20.8343751 15.2954901,20.869881 16.5943294,20.8343751 C17.552989,20.8080802 17.8545136,20.6338572 17.8403428,20.2401431 C17.8153863,19.5484471 17.0281156,18.3151087 18.3386852,17.748195 C19.8467023,17.09602 20.581462,16.0038393 20.8722011,15.7546681 C21.1628615,15.5054969 21.804251,14.6673684 22.4088749,15.0486437 C23.0623883,15.4607012 23.1564672,14.4256763 23.1564672,14.4256763 C23.1564672,14.4256763 23.1927604,11.0822162 23.1564672,10.9369648"></path>
        </g>
    </g>
</svg>