<?xml version="1.0" encoding="UTF-8" standalone="no"?>
<svg width="15px" height="22px" viewBox="0 0 15 22" version="1.1" xmlns="http://www.w3.org/2000/svg" xmlns:xlink="http://www.w3.org/1999/xlink">
    <!-- Generator: Sketch 44.1 (41455) - http://www.bohemiancoding.com/sketch -->
    <title>radio-tower</title>
    <desc>Created with Sketch.</desc>
    <defs></defs>
    <g id="Page-1" stroke="none" stroke-width="1" fill="none" fill-rule="evenodd">
        <g id="radio-tower" transform="translate(-5.000000, -1.000000)" fill="#000000">
            <path d="M12.3799465,17.9660365 C11.1997392,17.9660365 10.1099995,18.2717223 9.22532016,18.7884995 L10.5531328,15.4373835 C11.1229209,15.5789576 11.7190558,15.6554584 12.3332842,15.6554584 C12.9471952,15.6554584 13.5433301,15.5789576 14.1134356,15.4370661 L15.4155364,18.7240611 C14.5530772,18.2475976 13.5084127,17.9660365 12.3799465,17.9660365 L12.3799465,17.9660365 Z M12.3336017,13.0658587 C12.6107187,13.0658587 12.8805348,13.0372899 13.1446371,12.9915799 L13.6823647,14.3482787 C13.2474847,14.4450951 12.7970505,14.500328 12.3332842,14.500328 C11.8692005,14.500328 11.4190838,14.4454125 10.9845212,14.3485962 L11.5222488,12.9915799 C11.7863511,13.0372899 12.0561672,13.0658587 12.3336017,13.0658587 L12.3336017,13.0658587 Z M12.3336017,10.943517 L12.7567368,12.0119887 C12.6177021,12.0275428 12.4767629,12.0377006 12.3336017,12.0377006 C12.190123,12.0377006 12.0491837,12.0275428 11.9104665,12.0119887 L12.3336017,10.943517 Z M12.3336017,6.31220291 C11.2184676,6.31220291 10.3166469,7.21275383 10.3166469,8.32693562 C10.3166469,9.12844816 10.7842224,9.81790766 11.4606672,10.1429567 L10.8359636,11.7205873 C9.53322795,11.1444506 8.62347154,9.84361955 8.62347154,8.32788791 C8.62347154,6.27887269 10.284269,4.61775779 12.3336017,4.61775779 C14.3829343,4.61775779 16.0434144,6.27887269 16.0434144,8.32788791 C16.0434144,9.84361955 15.1336579,11.144768 13.8309223,11.7205873 L13.2062187,10.1429567 C13.8823461,9.81790766 14.3505564,9.12844816 14.3505564,8.32693562 C14.3505564,7.21275383 13.4477835,6.31220291 12.3336017,6.31220291 L12.3336017,6.31220291 Z M6.15608264,8.32534847 C6.15608264,4.91201605 8.91804724,2.15481292 12.3332842,2.15481292 C15.7459818,2.15481292 18.5108033,4.91201605 18.5108033,8.32534847 C18.5108033,10.8847923 16.9563451,13.0776036 14.7400439,14.0146591 L14.210252,12.6779583 C15.8929522,11.951042 17.0715724,10.2775473 17.0715724,8.32788791 C17.0715724,5.71098915 14.9505004,3.58959972 12.3336017,3.58959972 C9.7167029,3.58959972 7.59563091,5.71098915 7.59563091,8.32788791 C7.59563091,10.2775473 8.7739337,11.9507246 10.4563165,12.6776409 L9.9265246,14.0152939 C7.7092711,13.0785559 6.15608264,10.8851097 6.15608264,8.32534847 L6.15608264,8.32534847 Z M15.1650836,15.0888446 C17.8095988,13.9822811 19.6668859,11.3726833 19.6668859,8.3247136 C19.6668859,4.27334547 16.3849698,1 12.3332842,1 C8.27874179,1 5,4.27334547 5,8.3247136 C5,11.3730007 6.85601735,13.9832334 9.50148488,15.089162 L6.67032039,22.2364318 C6.55763249,22.5202149 6.69666714,22.8414548 6.98013276,22.9541427 C7.26455068,23.0665131 7.58579055,22.9274785 7.69816102,22.6436954 L8.74346035,20.004894 C9.58242971,19.1341815 10.8972277,18.5704246 12.3799465,18.5704246 C13.7741022,18.5704246 15.0203352,19.0675211 15.8621614,19.8506226 L16.9684074,22.6436954 C17.0810953,22.9274785 17.4023352,23.0665131 17.6861183,22.9541427 C17.9699013,22.8414548 18.1092534,22.5202149 17.9965655,22.2364318 L15.1650836,15.0888446 Z"></path>
        </g>
    </g>
</svg>