<?xml version="1.0" encoding="UTF-8" standalone="no"?>
<svg width="21px" height="23px" viewBox="0 0 21 23" version="1.1" xmlns="http://www.w3.org/2000/svg" xmlns:xlink="http://www.w3.org/1999/xlink">
    <!-- Generator: Sketch 44.1 (41455) - http://www.bohemiancoding.com/sketch -->
    <title>search</title>
    <desc>Created with Sketch.</desc>
    <defs></defs>
    <g id="Page-1" stroke="none" stroke-width="1" fill="none" fill-rule="evenodd">
        <g id="search" transform="translate(-2.000000, -1.000000)" fill="#000000">
            <path d="M14.1796383,4.01686174 C10.8376594,4.01686174 8.11949713,6.77711691 8.11949713,10.1708492 C8.11949713,11.8155379 8.7491034,13.3602814 9.89397364,14.5228808 C11.0388439,15.6854804 12.5614779,16.3263063 14.1796383,16.3263063 C17.5216173,16.3263063 20.2397795,13.5660512 20.2397795,10.1708492 C20.2397795,6.77711691 17.5216173,4.01686174 14.1796383,4.01686174 M9.41481177,17.7324702 C10.8237343,18.6548514 12.4648932,19.1493898 14.1800034,19.1493898 C19.0431594,19.1493898 23,15.1312743 23,10.1910815 C23,5.25261559 19.0431594,1.23450011 14.1800034,1.23450011 C9.31684745,1.23450011 5.36000684,5.25261559 5.36000684,10.1910815 C5.36000684,12.3490717 6.10518707,14.3891315 7.47337915,16.0099716 L2.37781903,21.1055318 C1.87280464,21.6105461 1.87447421,22.4290755 2.38035754,22.9349588 C2.88976779,23.4443691 3.70530325,23.4419787 4.2097846,22.9374973 L9.41481177,17.7324702 Z" transform="translate(12.500000, 12.275469) scale(-1, 1) translate(-12.500000, -12.275469) "></path>
        </g>
    </g>
</svg>