<?xml version="1.0" encoding="UTF-8" standalone="no"?>
<svg width="18px" height="22px" viewBox="0 0 18 22" version="1.1" xmlns="http://www.w3.org/2000/svg" xmlns:xlink="http://www.w3.org/1999/xlink">
    <!-- Generator: Sketch 44.1 (41455) - http://www.bohemiancoding.com/sketch -->
    <title>stopwatch</title>
    <desc>Created with Sketch.</desc>
    <defs></defs>
    <g id="Page-1" stroke="none" stroke-width="1" fill="none" fill-rule="evenodd">
        <g id="stopwatch" transform="translate(-3.000000, -1.000000)" fill="#000000">
            <path d="M18.7300638,6.67006334 L18.189119,7.28193143 C19.9186184,8.94194498 21,11.2863253 21,13.8893355 C21,18.9210508 16.9705965,23 12,23 C7.02991139,23 3,18.9210508 3,13.8893355 C3,9.18592096 6.52147412,5.31598383 11.0407754,4.83085984 L11.0407754,4.52518288 L11.0407754,4.18608456 L11.0407754,3.28936359 L10.9099836,3.28936359 C10.6834471,3.28936359 10.24612,3.06029869 10.24612,2.77750251 L10.24612,1.51160399 C10.24612,1.2290649 10.6834471,1 10.9099836,1 L13.0900164,1 C13.3168068,1 13.75388,1.2290649 13.75388,1.51160399 L13.75388,2.77750251 C13.75388,3.06029869 13.3168068,3.28936359 13.0900164,3.28936359 L12.9592246,3.28936359 L12.9592246,4.18608456 L12.9592246,4.52518288 L12.9592246,4.83085984 C14.3997122,4.98536939 15.7370901,5.48668988 16.8928833,6.24612616 L17.1779785,5.87304688 L17.3652576,5.53862154 C17.2349738,5.43038773 17.2156724,5.23577255 17.3223376,5.10414378 L17.9067103,4.38198518 C18.0131215,4.25035642 18.2056267,4.23056068 18.3361646,4.33879449 L19.7883346,5.54299203 C19.9186184,5.65096875 19.9379197,5.84584103 19.8312546,5.97746979 L19.2473898,6.6993713 C19.1402167,6.83151424 19.1062012,6.81384277 18.9737549,6.81384277 L18.7300638,6.67006334 Z M12,21.3862739 C16.0649788,21.3862739 19.3601617,18.0505732 19.3601617,13.9356113 C19.3601617,9.82064935 16.0649788,6.4849487 12,6.4849487 C7.93533843,6.4849487 4.63983833,9.82064935 4.63983833,13.9356113 C4.63983833,18.0505732 7.93533843,21.3862739 12,21.3862739 Z M11,9.00292933 C11,8.44902676 11.4438648,8 12,8 C12.5522847,8 13,8.43788135 13,9.00292933 L13,13.9970707 C13,14.5509732 12.5561352,15 12,15 C11.4477153,15 11,14.5621186 11,13.9970707 L11,9.00292933 Z"></path>
        </g>
    </g>
</svg>