<?xml version="1.0" encoding="UTF-8" standalone="no"?>
<svg width="24px" height="24px" viewBox="0 0 24 24" version="1.1" xmlns="http://www.w3.org/2000/svg" xmlns:xlink="http://www.w3.org/1999/xlink">
    <!-- Generator: Sketch 44.1 (41455) - http://www.bohemiancoding.com/sketch -->
    <title>template</title>
    <desc>Created with Sketch.</desc>
    <defs></defs>
    <g id="Page-1" stroke="none" stroke-width="1" fill="none" fill-rule="evenodd">
        <g id="template" fill-rule="nonzero" fill="#000000">
            <g id="Group" transform="translate(2.000000, 2.000000)">
                <path d="M18.5,0 L1.5,0 C0.67275,0 0,0.67275 0,1.5 L0,18.5 C0,19.32725 0.67275,20 1.5,20 L18.5,20 C19.32725,20 20,19.32725 20,18.5 L20,1.5 C20,0.67275 19.32725,0 18.5,0 Z M19,1.5 L19,8 L9,8 L9,1 L18.5,1 C18.776,1 19,1.224 19,1.5 Z M1,18.5 L1,1.5 C1,1.224 1.224,1 1.5,1 L8,1 L8,19 L1.5,19 C1.224,19 1,18.776 1,18.5 Z M18.5,19 L9,19 L9,9 L19,9 L19,18.5 C19,18.776 18.776,19 18.5,19 Z" id="Shape"></path>
            </g>
        </g>
    </g>
</svg>