<?xml version="1.0" encoding="UTF-8" standalone="no"?>
<svg width="23px" height="14px" viewBox="0 0 23 14" version="1.1" xmlns="http://www.w3.org/2000/svg" xmlns:xlink="http://www.w3.org/1999/xlink">
    <!-- Generator: Sketch 44.1 (41455) - http://www.bohemiancoding.com/sketch -->
    <title>WNYC Beta</title>
    <desc>Created with Sketch.</desc>
    <defs></defs>
    <g id="Page-1" stroke="none" stroke-width="1" fill="none" fill-rule="evenodd">
        <g id="logo_WNYC_beta" transform="translate(-1.000000, -6.000000)" fill="#000000">
            <path d="M12.5498963,14.8628214 L17.4700688,14.8628214 L17.4700688,7.8215799 L12.5498963,7.8215799 L12.5498963,14.8628214 Z M15.6753858,9.37564316 L16.6516663,9.37564316 L15.4550592,11.2978976 L15.4550592,12.5342712 L14.5776558,12.5342712 L14.5776558,11.3113386 L13.3811138,9.37564316 L14.3755434,9.37564316 L15.0229927,10.4855672 L15.6753858,9.37564316 Z M18.3202789,14.8628475 L18.3202789,6 L23.2299995,6 L23.2299995,14.8628475 L18.3202789,14.8628475 Z M20.8897468,12.6005569 C21.5854414,12.6005569 21.9849936,12.2987401 22.2813309,11.8887826 L21.625559,11.42039 C21.4374351,11.6498959 21.2443128,11.8032472 20.9166216,11.8032472 C20.4765624,11.8032472 20.1669176,11.4338099 20.1669176,10.9609223 L20.1669176,10.9517369 C20.1669176,10.4920737 20.4765624,10.1184671 20.9166216,10.1184671 C21.2175029,10.1184671 21.4238679,10.2625027 21.6034229,10.4877742 L22.2587404,9.97879624 C21.9804496,9.59118347 21.5673301,9.32102714 20.925515,9.32102714 C19.9739251,9.32102714 19.2692072,10.0418566 19.2692072,10.9609223 L19.2692072,10.9697169 C19.2692072,11.9117136 19.9920364,12.6005569 20.8897468,12.6005569 Z M6.77338303,14.862411 L6.77338303,7.04344707 L11.6834282,7.04344707 L11.6834282,14.862411 L6.77338303,14.862411 Z M10.7576746,12.5375161 L10.7576746,9.38384647 L9.89566752,9.38384647 L9.89566752,11.0506465 L8.60281921,9.38384647 L7.79034234,9.38384647 L7.79034234,12.5375161 L8.6523494,12.5375161 L8.6523494,10.8075905 L9.99433841,12.5375161 L10.7576746,12.5375161 Z M2.06574298,12.5532291 L1.01522258,9.37721471 L1.93578303,9.37721471 L2.48340646,11.2019914 L3.08945345,9.36828984 L3.83909255,9.36828984 L4.44494479,11.2019914 L4.99282788,9.37721471 L5.89482262,9.37721471 L4.84462681,12.5532291 L4.08609435,12.5532291 L3.45284795,10.7378333 L2.8245351,12.5532291 L2.06574298,12.5532291 Z M1,14.8624305 L1,13.3646166 L5.91004521,13.3646166 L5.91004521,14.8624305 L1,14.8624305 Z M12.5783333,19.0415997 L12.5783333,16.5406009 L13.7369713,16.5406009 C14.0221745,16.5406009 14.2467721,16.6192037 14.3893737,16.7621179 C14.503455,16.8764493 14.5604956,17.0157907 14.5604956,17.1872877 L14.5604956,17.1944335 C14.5604956,17.476689 14.4107639,17.6338947 14.2325119,17.7339346 C14.5212802,17.8446931 14.6995322,18.0126174 14.6995322,18.3484658 L14.6995322,18.3556115 C14.6995322,18.812937 14.328768,19.0415997 13.7654916,19.0415997 L12.5783333,19.0415997 Z M13.1130893,17.551719 L13.619325,17.551719 C13.8617477,17.551719 14.0150445,17.4731162 14.0150445,17.2873277 L14.0150445,17.280182 C14.0150445,17.1158306 13.886703,17.0229364 13.6549754,17.0229364 L13.1130893,17.0229364 L13.1130893,17.551719 Z M13.1130893,18.5592642 L13.7654916,18.5592642 C14.0079144,18.5592642 14.154081,18.4735157 14.154081,18.2877272 L14.154081,18.2805815 C14.154081,18.1126573 14.0293046,18.0090445 13.7476664,18.0090445 L13.1130893,18.0090445 L13.1130893,18.5592642 Z M15.5632621,19.0415997 L15.5632621,16.5406009 L17.4456034,16.5406009 L17.4456034,17.0300821 L16.1087133,17.0300821 L16.1087133,17.5374276 L17.2851766,17.5374276 L17.2851766,18.0269088 L16.1087133,18.0269088 L16.1087133,18.5521185 L17.4634286,18.5521185 L17.4634286,19.0415997 L15.5632621,19.0415997 Z M18.9439105,19.0415997 L18.9439105,17.0479464 L18.1845569,17.0479464 L18.1845569,16.5406009 L20.2522802,16.5406009 L20.2522802,17.0479464 L19.4929267,17.0479464 L19.4929267,19.0415997 L18.9439105,19.0415997 Z M20.5491688,19.0415997 L21.6186809,16.5227366 L22.1249166,16.5227366 L23.1944287,19.0415997 L22.6204572,19.0415997 L22.3922946,18.4806614 L21.3370427,18.4806614 L21.1088801,19.0415997 L20.5491688,19.0415997 Z M21.5331199,17.9947531 L22.1962174,17.9947531 L21.8646687,17.1837149 L21.5331199,17.9947531 Z" id="WNYC-Beta"></path>
        </g>
    </g>
</svg>