<svg width="11px" height="21px" viewBox="6 1 11 21" version="1.1" xmlns="http://www.w3.org/2000/svg" xmlns:xlink="http://www.w3.org/1999/xlink">
    <path d="M16.7889062,13.665625 C16.5074479,13.3841667 16.0852604,13.3841667 15.8038021,13.665625 L12.4263021,17.043125 L12.4263021,1.70364583 C12.4263021,1.28145833 12.1448437,1 11.7226562,1 C11.3004687,1 11.0190104,1.28145833 11.0190104,1.70364583 L11.0190104,17.1134896 L7.64151042,13.7359896 C7.36005208,13.4545313 6.93786458,13.4545313 6.65640625,13.7359896 C6.37494792,14.0174479 6.37494792,14.4396354 6.65640625,14.7210938 L11.7226563,19.7873438 L16.7889063,14.7210938 C17.0703646,14.4396354 17.0703646,13.9470833 16.7889062,13.665625 Z M16.2666667,22 L6.73333333,22 C6.29333333,22 6,21.8 6,21.5 C6,21.2 6.29333333,21 6.73333333,21 L16.2666667,21 C16.7066667,21 17,21.2 17,21.5 C17,21.75 16.6333333,22 16.2666667,22 Z" id="download-thin" stroke="none" fill="#000000" fill-rule="evenodd"></path>
</svg>
