<?xml version="1.0" encoding="UTF-8" standalone="no"?>
<svg width="496px" height="200px" viewBox="0 0 496 200" version="1.1" xmlns="http://www.w3.org/2000/svg" xmlns:xlink="http://www.w3.org/1999/xlink">
    <!-- Generator: Sketch 44.1 (41455) - http://www.bohemiancoding.com/sketch -->
    <title>NYPR logo Copy</title>
    <desc>Created with Sketch.</desc>
    <defs>
        <polygon id="path-1" points="0.239191017 143.920939 317.243032 143.920939 317.243032 0.0532627649 0.239191017 0.0532627649"></polygon>
    </defs>
    <g id="Page-1" stroke="none" stroke-width="1" fill="none" fill-rule="evenodd">
        <g id="NYPR-logo-Copy">
            <g id="Group" transform="translate(1.000000, 0.000000)">
                <polyline id="Fill-3" fill="#FFFFFF" points="149.237808 19.6650117 134.480644 1 130 1 130 28 134.754148 28 134.754148 8.78694509 149.945701 28 154 28 154 1 149.237808 1 149.237808 19.6650117"></polyline>
                <polyline id="Fill-4" fill="#FFFFFF" points="167.693718 16.4989778 181.09208 16.4989778 181.09208 12.2565713 167.693718 12.2565713 167.693718 5.24240654 182.808818 5.24240654 182.808818 1 163 1 163 28 183 28 183 23.7575935 167.693718 23.7575935 167.693718 16.4989778"></polyline>
                <polyline id="Fill-5" fill="#FFFFFF" points="219.665426 20.8986408 213.073827 1 209.090669 1 202.49907 20.8986408 196.09155 1.07807981 191 1.07807981 200.352786 28 204.410359 28 211.001958 8.78846154 217.593557 28 221.655047 28 231 1.07807981 226.05728 1.07807981 219.665426 20.8986408"></polyline>
                <polyline id="Fill-6" fill="#FFFFFF" points="255.037137 12.9623248 247.543227 1 242 1 252.632988 17.3584988 252.632988 28 257.374831 28 257.374831 17.2441589 268 1 262.613141 1 255.037137 12.9623248"></polyline>
                <path d="M285.039095,23.6351313 C279.722145,23.6351313 275.933817,19.2584016 275.933817,13.9644168 C275.933817,8.66252471 279.643954,4.36882237 284.960905,4.36882237 C290.277855,4.36882237 294.062273,8.74159842 294.062273,14.0355832 C294.062273,19.341429 290.352136,23.6351313 285.039095,23.6351313 Z M285.039095,0 C276.817369,0 271,6.38520192 271,14.0355832 C271,21.6978255 276.739179,28 284.960905,28 C293.18654,28 299,21.6227055 299,13.9644168 C299,6.30612821 293.260821,0 285.039095,0 L285.039095,0 Z" id="Fill-7" fill="#FFFFFF"></path>
                <path d="M312.765445,14.3777745 L312.765445,5.30943341 L319.691964,5.30943341 C323.214593,5.30943341 325.304423,6.85499416 325.304423,9.8317757 C325.304423,12.6114194 323.135433,14.3777745 319.727586,14.3777745 L312.765445,14.3777745 Z M330.14507,9.56366822 C330.14507,4.27643107 326.317673,1 320.075891,1 L308,1 L308,28 L312.765445,28 L312.765445,18.5846963 L318.726209,18.5846963 L325.387541,28 L331,28 L323.681638,17.7764311 C327.481329,16.7355432 330.14507,14.0347547 330.14507,9.56366822 L330.14507,9.56366822 Z" id="Fill-8" fill="#FFFFFF"></path>
                <polyline id="Fill-9" fill="#FFFFFF" points="351.233432 12.6114194 362.501484 1 356.653808 1 343.767557 14.5749124 343.767557 1 339 1 339 28 343.767557 28 343.767557 20.1657418 347.981207 15.8444801 357.231454 28 363 28 351.233432 12.6114194"></polyline>
                <path d="M180.761487,183.387648 L180.761487,174.328515 L187.691964,174.328515 C191.218551,174.328515 193.312339,175.858081 193.312339,178.834428 C193.312339,181.609724 191.139391,183.387648 187.735502,183.387648 L180.761487,183.387648 Z M198.149028,178.56636 C198.149028,173.279895 194.313715,170 188.083807,170 L176,170 L176,197 L180.761487,197 L180.761487,187.593955 L186.726209,187.593955 L193.387541,197 L199,197 L191.685596,186.777924 C195.481329,185.74113 198.149028,183.036794 198.149028,178.56636 L198.149028,178.56636 Z" id="Fill-10" fill="#FFFFFF"></path>
                <path d="M215.326799,186.349522 L219.921591,175.636416 L224.563428,186.349522 L215.326799,186.349522 Z M217.808457,170 L206,197 L210.83002,197 L213.597872,190.533778 L226.288435,190.533778 L229.013162,197 L234,197 L222.191543,170 L217.808457,170 L217.808457,170 Z" id="Fill-11" fill="#FFFFFF"></path>
                <path d="M252.310734,192.66944 L246.862793,192.66944 L246.862793,174.32268 L252.310734,174.32268 C258.113801,174.32268 261.903148,178.211909 261.903148,183.531524 C261.903148,188.851138 258.113801,192.66944 252.310734,192.66944 Z M252.310734,170 L242,170 L242,197 L252.310734,197 C260.995157,197 267,191.089317 267,183.452715 C267,175.823993 260.995157,170 252.310734,170 L252.310734,170 Z" id="Fill-12" fill="#FFFFFF"></path>
                <polygon id="Fill-13" fill="#FFFFFF" points="275 197 280 197 280 170 275 170"></polygon>
                <g id="Group-17" transform="translate(0.000000, 55.000000)">
                    <mask id="mask-2" fill="white">
                        <use xlink:href="#path-1"></use>
                    </mask>
                    <g id="Clip-15"></g>
                    <path d="M303.003193,137.487031 C297.585517,137.487031 293.718595,133.077156 293.718595,127.697989 C293.718595,122.330839 297.5018,117.985049 302.923463,117.985049 C308.345126,117.985049 312.208061,122.410945 312.208061,127.778096 C312.208061,133.153257 308.42087,137.487031 303.003193,137.487031 Z M303.003193,113.551141 C294.619548,113.551141 288.683625,120.019759 288.683625,127.778096 C288.683625,135.536432 294.543804,141.920939 302.923463,141.920939 C311.307108,141.920939 317.243032,135.460331 317.243032,127.697989 C317.243032,119.943658 311.390825,113.551141 303.003193,113.551141 L303.003193,113.551141 Z" id="Fill-14" fill="#FFFFFF" mask="url(#mask-2)"></path>
                    <path d="M64.8367116,8.38436234 C58.2549721,2.89304623 49.0182123,0.0532627649 38.0911694,0.0532627649 L0,0.0532627649 L0,88.4109823 L4.75591471,88.4109823 L4.75591471,4.85165569 L38.0911694,4.85165569 C48.2328685,4.85165569 56.3215114,7.47114566 61.7949992,12.0532504 C67.2645004,16.6513765 70.3341184,23.1920908 70.3580375,31.887676 L70.3580375,32.1239908 C70.3261454,41.3843284 66.9136869,48.0652294 61.1133048,52.7194302 C55.2969765,57.3576097 46.8734662,59.8729609 36.9071739,59.8689556 L23.0978792,59.8689556 L23.0978792,88.4109823 L27.8537939,88.4109823 L27.8537939,64.6473218 L36.9071739,64.6473218 C47.6468505,64.6473218 57.1347608,61.9597412 64.0673138,56.4644197 C70.9998668,50.9891249 75.1458444,42.5979453 75.1139523,32.1239908 L75.1139523,31.887676 C75.1338848,22.0345486 71.4304106,13.8596571 64.8367116,8.38436234" id="Fill-16" fill="#FFFFFF" mask="url(#mask-2)"></path>
                </g>
                <polyline id="Fill-18" fill="#FFFFFF" points="284.737946 56 280.003971 56 280 144 344 144 344 139.248957 284.737946 139.248957 284.737946 56"></polyline>
                <polyline id="Fill-19" fill="#FFFFFF" points="306.746658 56 302 56 302 124 343 124 343 119.23095 306.734741 119.226946 306.746658 56"></polyline>
                <polygon id="Fill-20" fill="#FFFFFF" points="384 144 389 144 389 56 384 56"></polygon>
                <polygon id="Fill-21" fill="#FFFFFF" points="360 144 365 144 365 56 360 56"></polygon>
                <path d="M473.005356,107.378702 L471.603866,109.084971 C466.710526,114.925967 462.569399,118.223432 454.750349,118.290889 C444.619236,118.271048 437.457382,109.946042 437.366325,98.4941983 L437.362366,98.2640504 C437.441546,87.1971093 444.631113,78.7094122 454.750349,78.7054442 C461.856777,78.7490929 466.437354,81.9076749 470.994178,87.5383631 L474.683978,84.5861207 C469.78272,78.3522861 463.483931,73.9278905 454.750349,73.9794754 C448.285282,73.9596351 442.651607,76.765059 438.759898,81.2053269 C434.864229,85.6495628 432.647182,91.688962 432.647182,98.2640504 L432.647182,98.4941983 C432.647182,105.235946 434.86027,111.342802 438.759898,115.798942 C442.651607,120.270954 448.2932,123.024794 454.750349,123.016857 C463.317653,123.080347 469.074057,119.167832 473.828831,113.779196 L487.336982,123.425568 C479.957382,132.78624 470.558687,139.186734 454.037727,139.258159 C431.625757,139.218478 413.758733,122.227212 413.73102,98.7283143 L413.723102,98.4941983 C413.766651,75.5786067 431.158593,57.7778545 454.98789,57.7262697 C471.219842,57.7937268 481.145086,64.3648471 488.184211,74.0509006 L492.012576,71.2851574 C484.387517,60.5872465 472.565906,52.9447479 454.98789,53.0003009 C441.859804,52.9963328 430.323242,57.980226 422.108291,66.1861902 C413.89334,74.3881864 409,85.8082856 409,98.4941983 L409,98.7283143 C409,111.727704 414.016069,123.088283 422.171635,131.155364 C430.327201,139.218478 441.614346,144 454.037727,144 L454.283186,144 C473.179553,144 484.644853,135.432942 492.59851,124.302511 L494,122.35419 L473.005356,107.378702" id="Fill-22" fill="#FFFFFF"></path>
                <path d="M27.6009715,96.382852 L27.6009715,79.6210182 L35.7916273,79.6210182 C39.4932478,79.6132778 42.1797211,80.4763322 43.8240281,81.8192915 C45.4644752,83.1738613 46.3715459,84.992855 46.3947051,87.941947 L46.4024249,88.1702888 C46.2866286,93.1551057 43.1253906,96.1932123 35.9074235,96.382852 L27.6009715,96.382852 Z M46.7575334,97.5903543 C49.4941851,95.334028 51.0265557,91.9398631 50.9995366,88.1702888 L50.9995366,87.941947 C51.0304156,83.9556416 49.5173444,80.4569812 46.7112149,78.2316166 C43.9282447,75.9946413 40.1610063,75.0038702 35.7916273,75 L23,75 L23,100.99613 L35.9074235,100.99613 L35.9074235,101 C40.2729427,101 44.0208817,99.8582912 46.7575334,97.5903543 L46.7575334,97.5903543 Z" id="Fill-23" fill="#FFFFFF"></path>
                <path d="M208.655002,109.730373 L223.588499,109.730373 C227.095371,109.722443 229.403346,110.436162 230.63739,111.332276 C231.848003,112.256146 232.297101,113.183981 232.340059,114.817605 L232.340059,115.059477 C232.293196,116.827914 231.769899,117.783505 230.508518,118.71134 C229.235422,119.61935 226.966499,120.281523 223.818906,120.273592 L208.655002,120.273592 L208.655002,109.730373 Z M204,125 L223.818906,125 C227.556185,124.98414 230.715494,124.278351 233.13672,122.60904 C235.581377,120.971451 237.041923,118.14433 236.998966,115.059477 L236.998966,114.817605 C237.041923,111.946868 235.745396,109.151467 233.312454,107.462331 C230.899039,105.765266 227.65772,105 223.588499,105 L204,105 L204,125 L204,125 Z" id="Fill-24" fill="#FFFFFF"></path>
                <path d="M208.718909,87.3447071 L208.718909,77.6591984 L221.242014,77.6591984 C224.386635,77.6513875 226.518648,78.2723535 227.661787,79.0768756 C228.785148,79.9048304 229.236075,80.7249743 229.283541,82.3301131 L229.283541,82.5605344 C229.220253,84.3336074 228.749549,85.1186023 227.539167,85.9582734 C226.301096,86.7745118 223.995041,87.3564234 220.77131,87.3447071 L208.718909,87.3447071 Z M230.098374,89.8637205 C232.578471,88.3445015 234.053871,85.5716341 233.998494,82.5605344 L233.998494,82.3301131 C234.04596,79.5064748 232.716913,76.8273381 230.359437,75.2573484 C228.021737,73.6717369 224.952271,73.0117163 221.242014,73 L204,73 L204,92 L220.77131,92 C224.513211,91.9882837 227.645965,91.4141829 230.098374,89.8637205 L230.098374,89.8637205 Z" id="Fill-25" fill="#FFFFFF"></path>
                <path d="M247.871818,97.5492356 C258.363776,90.0341441 257.25578,79.2401751 257.25578,79.2401751 C257.25578,60.1413121 237.875859,55.6857085 226.679904,56.0167874 L203,56.0167874 L203,60.6518916 L226.679904,60.6518916 C249.93581,60.6518916 252.4718,74.0944915 252.4878,79.2401751 C252.4878,79.2401751 253.303796,93.6720228 237.66786,97.7127806 C237.66786,97.7127806 256.151785,102.351874 256.151785,117.605435 C256.151785,117.605435 258.895774,139.281129 226.923903,139.281129 L203,139.281129 L203,144 L226.923903,144 C237.231861,143.996011 245.679827,141.861948 251.635803,137.446234 C260.507767,130.860557 261.059765,121.490626 260.995765,118.534849 C260.987765,117.936514 260.963765,117.398012 260.959765,117.035022 C260.935765,114.454202 260.091769,103.771923 247.871818,97.5492356" id="Fill-26" fill="#FFFFFF"></path>
                <path d="M169.26608,105.142813 C169.24624,118.100809 165.611498,126.957621 159.425295,132.692933 C153.24306,138.440143 144.180015,141.272102 132.763911,141.272102 C121.347808,141.268136 112.415708,138.384615 106.344579,132.688967 C100.277418,126.985386 96.7537823,118.28326 96.73791,105.72983 L96.73791,56 L92.0000484,56 L92.0000484,105.72983 C91.9841762,119.124122 95.8728733,129.369149 103.102676,136.143639 C110.332478,142.914162 120.593877,146.011865 132.763911,145.999966 C144.922042,145.999966 155.294547,142.973657 162.651327,136.159504 C170.008107,129.349318 174.011878,118.949604 173.999974,105.142813 L173.999974,56.023798 L169.26608,56.023798 L169.26608,105.142813" id="Fill-27" fill="#FFFFFF"></path>
                <path d="M132.923112,124.99988 L133.004047,124.99988 C138.15962,125.015679 142.821489,123.471289 146.083178,120.106019 C149.340821,116.7368 151.004039,111.81924 150.999993,105.657478 L150.999993,56.0355486 L146.16816,56.0355486 L146.16816,105.657478 C146.164113,111.04902 144.755841,114.623632 142.574636,116.863195 C140.389385,119.098808 137.257193,120.271913 133.004047,120.283763 C128.758995,120.271913 125.647035,119.06721 123.449644,116.73285 C121.260347,114.39849 119.827793,110.646135 119.827793,105.065001 L119.827793,56 L115.000007,56 L115.000007,105.065001 C114.995961,111.396606 116.647039,116.436611 119.892541,119.916427 C123.113763,123.376493 127.767538,124.99988 132.923112,124.99988" id="Fill-28" fill="#FFFFFF"></path>
            </g>
        </g>
    </g>
</svg>