<svg width="22px" height="14px" viewBox="1 5 22 14" version="1.1" xmlns="http://www.w3.org/2000/svg" xmlns:xlink="http://www.w3.org/1999/xlink">
    <path d="M12.434041,14.5541396 L17.1798885,14.5541396 L17.1798885,7.43536838 L12.434041,7.43536838 L12.434041,14.5541396 Z M15.4487542,9.00622373 L16.3904895,9.00622373 L15.2362568,10.9500273 L15.2362568,12.1998897 L14.3899197,12.1998897 L14.3899197,10.963355 L13.2359018,9.00622373 L14.1952557,9.00622373 L14.8196415,10.1286828 L15.4487542,9.00622373 Z M18.141256,14.5542281 L23,14.5542281 L23,5.76961582 L18.141256,5.76961582 L18.141256,14.5542281 Z M20.6841439,12.3116965 C19.7955961,12.3116965 19.080622,11.6291196 19.080622,10.6953579 L19.080622,10.6867345 C19.080622,9.77552637 19.7779967,9.06110914 20.7193426,9.06110914 C21.3548996,9.06110914 21.7634248,9.32909852 22.0388548,9.71295129 L21.3905383,10.217532 C21.2125647,9.99420748 21.0088521,9.85136825 20.7107629,9.85136825 C20.2756187,9.85136825 19.9687298,10.2219542 19.9687298,10.6772266 L19.9687298,10.6862923 C19.9687298,11.1550526 20.2756187,11.5212163 20.7107629,11.5212163 C21.0352512,11.5212163 21.2264242,11.3690903 21.4125375,11.1415646 L22.061294,11.6063449 C21.7678246,12.0125301 21.372499,12.3116965 20.6841439,12.3116965 Z M6.71427592,14.5537416 L11.5732399,14.5537416 L11.5732399,6.80416096 L6.71427592,6.80416096 L6.71427592,14.5537416 Z M10.6574131,12.2492983 L9.90174046,12.2492983 L8.57364857,10.5347854 L8.57364857,12.2492983 L7.72051947,12.2492983 L7.72051947,9.12341888 L8.52459035,9.12341888 L9.804064,10.7757989 L9.804064,9.12341888 L10.6571931,9.12341888 L10.6571931,12.2492983 L10.6574131,12.2492983 Z M2.05548268,12.2648426 L2.80653547,12.2648426 L3.42823295,10.465201 L4.05477026,12.2648426 L4.80560306,12.2648426 L5.84506541,9.11707293 L4.95211775,9.11707293 L4.41005739,10.925559 L3.81035911,9.10844951 L3.06876598,9.10844951 L2.46884771,10.925559 L1.92678734,9.11707293 L1.01580034,9.11707293 L2.05548268,12.2648426 Z M1.00086288,14.5536974 L5.86004687,14.5536974 L5.86004687,13.0693635 L1.00086288,13.0693635 L1.00086288,14.5536974 Z M1.7688273,18.0315515 C2.15971255,18.0315515 2.43410883,17.8296373 2.43410883,17.4698158 L2.43410883,17.4646385 C2.43410883,17.1488239 2.2270173,17.0168031 1.85942984,16.9210232 C1.5462039,16.8407753 1.46854458,16.8019456 1.46854458,16.682868 L1.46854458,16.6776907 C1.46854458,16.5896768 1.54879255,16.5197834 1.70152255,16.5197834 C1.85425255,16.5197834 2.01215984,16.5870881 2.17265577,16.6983998 L2.3797473,16.3981171 C2.19595357,16.2505644 1.97074154,16.1677278 1.70669984,16.1677278 C1.33652373,16.1677278 1.07248203,16.3851739 1.07248203,16.7139317 L1.07248203,16.719109 C1.07248203,17.0789305 1.30804865,17.1798876 1.67304746,17.2730788 C1.97591882,17.3507381 2.03804628,17.402511 2.03804628,17.5034681 L2.03804628,17.5086454 C2.03804628,17.6147798 1.93967781,17.6794959 1.77659323,17.6794959 C1.5695017,17.6794959 1.39865119,17.5940707 1.23556661,17.4594612 L1,17.7416234 C1.2174461,17.9357717 1.49443102,18.0315515 1.7688273,18.0315515 Z M3.59554715,18.0056651 L3.99419834,18.0056651 L3.99419834,16.5612017 L4.54557953,16.5612017 L4.54557953,16.1936142 L3.04416595,16.1936142 L3.04416595,16.5612017 L3.59554715,16.5612017 L3.59554715,18.0056651 Z M5.7924431,18.0056651 L6.19109429,18.0056651 L6.19109429,17.2834334 L6.88743955,16.1936142 L6.43442684,16.1936142 L5.99435734,16.9210232 L5.56205378,16.1936142 L5.09609784,16.1936142 L5.7924431,17.2911993 L5.7924431,18.0056651 Z M7.56739007,18.0056651 L8.86947805,18.0056651 L8.86947805,17.6432549 L7.96604126,17.6432549 L7.96604126,16.1936142 L7.56739007,16.1936142 L7.56739007,18.0056651 Z M9.60120145,18.0056651 L10.9809487,18.0056651 L10.9809487,17.6510209 L9.99726399,17.6510209 L9.99726399,17.2704902 L10.8515165,17.2704902 L10.8515165,16.9158459 L9.99726399,16.9158459 L9.99726399,16.5482585 L10.9680055,16.5482585 L10.9680055,16.1936142 L9.60120145,16.1936142 L9.60120145,18.0056651 Z M13.8474406,18.0367288 C14.1787871,18.0367288 14.4350629,17.9072966 14.6214452,17.7493893 L14.6214452,16.9624415 L13.8344974,16.9624415 L13.8344974,17.3067312 L14.2357373,17.3067312 L14.2357373,17.5655956 C14.1347801,17.6380776 14.0053479,17.6743187 13.8603839,17.6743187 C13.539392,17.6743187 13.3115913,17.4309861 13.3115913,17.0996397 L13.3115913,17.0944624 C13.3115913,16.7864137 13.5419806,16.530138 13.8319088,16.530138 C14.0415889,16.530138 14.1658439,16.5974427 14.3056306,16.7139317 L14.5567291,16.4110603 C14.3677581,16.2505644 14.1710212,16.1625505 13.844852,16.1625505 C13.2960595,16.1625505 12.8948196,16.5844995 12.8948196,17.0996397 L12.8948196,17.104817 C12.8948196,17.6406663 13.2831162,18.0367288 13.8474406,18.0367288 Z M16.1918893,18.0341402 C16.6785544,18.0341402 16.986603,17.7649212 16.986603,17.2161287 L16.986603,16.1936142 L16.5879519,16.1936142 L16.5879519,17.2316605 C16.5879519,17.519 16.4403991,17.6665527 16.1970666,17.6665527 C15.9537341,17.6665527 15.8061813,17.5138227 15.8061813,17.2187173 L15.8061813,16.1936142 L15.4075302,16.1936142 L15.4075302,17.2290719 C15.4075302,17.7623326 15.7052242,18.0341402 16.1918893,18.0341402 Z M17.8425814,18.0056651 L18.2412326,18.0056651 L18.2412326,16.1936142 L17.8425814,16.1936142 L17.8425814,18.0056651 Z M19.125686,18.0056651 L19.8323858,18.0056651 C20.4018875,18.0056651 20.7953614,17.6096026 20.7953614,17.0996397 L20.7953614,17.0944624 C20.7953614,16.5844995 20.4018875,16.1936142 19.8323858,16.1936142 L19.125686,16.1936142 L19.125686,18.0056651 Z M19.5243371,17.6458436 L19.5243371,16.5534358 L19.8323858,16.5534358 C20.1585549,16.5534358 20.3785897,16.7786478 20.3785897,17.0996397 L20.3785897,17.104817 C20.3785897,17.4258088 20.1585549,17.6458436 19.8323858,17.6458436 L19.5243371,17.6458436 Z M21.5814463,18.0056651 L22.9611936,18.0056651 L22.9611936,17.6510209 L21.9775089,17.6510209 L21.9775089,17.2704902 L22.8317614,17.2704902 L22.8317614,16.9158459 L21.9775089,16.9158459 L21.9775089,16.5482585 L22.9482504,16.5482585 L22.9482504,16.1936142 L21.5814463,16.1936142 L21.5814463,18.0056651 Z" id="logo-wnyc-style-guide" stroke="none" fill="#FFFFFF" fill-rule="evenodd"></path>
</svg>
